<svg id="Calque_2" data-name="Calque 2" xmlns="http://www.w3.org/2000/svg" viewBox="0 0 389.95 373.4"><defs><style>.cls-1{fill:#32274c;}.cls-2{fill:#fcdc3f;}.cls-3{stroke:#000;stroke-miterlimit:10;}</style></defs><title>favicon</title><path class="cls-1" d="M133.43,233.66a20.25,20.25,0,0,1-2.21,7.53C123.63,255.64,97.38,316.13,163,359c75,49,156,78,248,17,81.43-54,5.39-133.05-13.15-150.51a19.9,19.9,0,0,1-6.31-13.37c-.34-6.36,1.78-14.31,12.47-19.12,20-9,13-35,6-39s-4,12-10,10-32-26-17-46,17-31,0-40-28-5-28-5-18.9,12.12,4.38,41.13a12.5,12.5,0,0,1,2,3.44c7,19-20.85,46-45.92,46.93-22.83.88-26.38-26.77-26.91-33.53a11.57,11.57,0,0,0-.8-3.42c-1.66-4.12-5.87-12.18-9,2.58a9,9,0,0,0-.19,2.62c1.69,19.78,19.6,44,4.91,54.75-16.4-9.84-53-.18-65.61,3.62a12.85,12.85,0,0,1-11.39-1.87c-3-2.25-5-5.75-1-10.75,8-10,24-27,15-36s-14,28-22,25-27-24-13-37c18-12,51,1,49-28s-23-14-28-8c-4.75,5.7-11.31,31.29-40.3,19.2a7.93,7.93,0,0,0-10.82,6c-.78,4.37-1.53,8.84-7.88,8.84-6.65,0-8.39-4.31-8.61-8.14a13.12,13.12,0,0,0-9.39-12c-3.75-1-7.5-.16-9.14,6a20.32,20.32,0,0,0,1.6,14.12c6.2,12.61,16.3,22.14,1.54,43-17,24-31,50-12,58s12-18,9-28c-2-11,9-14,11,2C133.37,218.48,135.24,214.18,133.43,233.66Z" transform="translate(-75.91 -72.11)"/><path class="cls-2" d="M310.5,275.5s42-60,92,0C402.5,275.5,372.5,331.5,310.5,275.5Z" transform="translate(-75.91 -72.11)"/><path class="cls-2" d="M164.5,275.5s42-60,92,0C256.5,275.5,226.5,331.5,164.5,275.5Z" transform="translate(-75.91 -72.11)"/><path class="cls-3" d="M289.62,329c-2.09,5.05-8,14.7-18.12-2.48-2.76-2.07-7.42-1.28-10-.6a6.89,6.89,0,0,1-4.6-.42c-4.14-1.89-10.67-6.35-.35-13,14-9,44-4,47,0,2.54,3.38,5.07,10.33,1,13a4.52,4.52,0,0,1-4.14.22c-1.13-.45-3.09-.61-6.85.11A5.23,5.23,0,0,0,289.62,329Z" transform="translate(-75.91 -72.11)"/><path class="cls-3" d="M356.5,248.84s-19,21.79,0,51.22C356.5,300.07,376.5,266.19,356.5,248.84Z" transform="translate(-75.91 -72.11)"/><path class="cls-3" d="M210.5,300.07s20-33.88,0-51.22c0,0-19,21.79,0,51.22" transform="translate(-75.91 -72.11)"/><path class="cls-1" d="M128,371s-10,24,6,28,25-9,25-9,8-20-17-11c-7,2-3-8-3-8S139,360,128,371Z" transform="translate(-75.91 -72.11)"/><path class="cls-1" d="M420,394s-29,12-8,29c8,2,13,11,3,17-3,13,23,0,27-8S456,387,420,394Z" transform="translate(-75.91 -72.11)"/><path class="cls-1" d="M417,202s-15,24,22,26,25-29,25-29-12-13-24,0C433,204,426,191,417,202Z" transform="translate(-75.91 -72.11)"/><path class="cls-1" d="M291.69,109.77c-1.9,5.44-4.62,16.36,7.64,8.49a13.29,13.29,0,0,0,3.95-3.95c10-15.43,9.05.09,11.25,6.9,2.29,7.1,18.33,0,6.87-14.21-2.29-5.92-5.73-7.1,4.58-11.84s-1.15-18.94-12.6-5.92c-5.84,5.18-11.08-.33-13.49-3.7A9.38,9.38,0,0,0,295.07,82c-4-1.26-9.93-1.95-7.76,5.86a12.81,12.81,0,0,0,7,8.3c2.72,1.21,5,3.83-.1,9.35A12.08,12.08,0,0,0,291.69,109.77Z" transform="translate(-75.91 -72.11)"/><path class="cls-1" d="M96,121s-.93-20.56-9.13-3.86a7.06,7.06,0,0,0-.7,3.71C87.82,140,84.88,140,81,141s-10,11,2,13c11.5,1.92,10.14,2.92,12.65,6.52a6.34,6.34,0,0,0,.78.91c9.18,8.92,7.34-1.31,8.75-10.62a6.74,6.74,0,0,1,3.36-4.76c8.07-4.74,8.14-23.38-4.36-19.84a6.74,6.74,0,0,0-3,1.83C96.89,132.51,96,121,96,121Z" transform="translate(-75.91 -72.11)"/></svg>