<svg id="Layer_1" data-name="Layer 1" xmlns="http://www.w3.org/2000/svg" viewBox="0 0 201.58 282.21"><defs><style>.cls-1{fill:#14110d;}.cls-2{fill:#fff;}</style></defs><title>cards_back_7</title><path class="cls-1" d="M796.85,558.51a10.08,10.08,0,0,0-10.08-10.08H605.35a10.08,10.08,0,0,0-10.08,10.08h0V820.57a10.08,10.08,0,0,0,10.08,10.08H786.77a10.08,10.08,0,0,0,10.08-10.08V558.51Z" transform="translate(-595.27 -548.43)"/><path class="cls-2" d="M610.84,683.22h-1.12V625.29a40.52,40.52,0,0,1-3.83,1.43v56.5h-1.12V625.88l.41-.12a38.7,38.7,0,0,0,4.54-1.71V606.42c0-3.13-.79-4.41-1.45-4.94a1.83,1.83,0,0,0-1.41-.4l-.69.16v-8.54h.55a32.19,32.19,0,0,0,11.77-2.89v-5.14a49.43,49.43,0,0,0-13.08,0l-.93.13.32-.88c.13-.36,1.2-3.15,3-4.11a13.29,13.29,0,0,1-3-5.37l-.16-.69h13.43v-7h4.42A14,14,0,0,0,612.1,563l-.61,0V558H697.1l-.59.88c-2,3-10.61,4.66-14,5.22a7.07,7.07,0,0,1,1.62,3.18l.13.67H625.09a17.74,17.74,0,0,1,1.1,1.5,13.76,13.76,0,0,1,2,11.26c5.86.38,13.19.18,17.7-2.44l1.07-.62-.24,1.22c0,.23-1.12,5.41-4.62,6.47a14.94,14.94,0,0,1-.14,6.14l-.16.74-.66-.37a68.81,68.81,0,0,0-15.75-5.85,18.7,18.7,0,0,1-5.81,4.6v24.84c0,4.35-4.77,7.52-8.77,9.41ZM607.29,600a3,3,0,0,1,1.67.65c1.25,1,1.88,2.94,1.88,5.82v17.11c3.62-1.78,7.65-4.56,7.65-8.15V591.09a32.72,32.72,0,0,1-11.2,2.71Zm18.87-15A72.18,72.18,0,0,1,641,590.46a12.46,12.46,0,0,0-.12-5.41l-.2-.63.65-.1c2.24-.34,3.43-2.94,4-4.52-4.87,2.25-11.88,2.37-17.46,2a13.14,13.14,0,0,1-.76,1.67A15.64,15.64,0,0,1,626.16,585Zm-6.55-.15v4.41a17.66,17.66,0,0,0,4.57-3.57C622.71,585.34,621.18,585.05,619.61,584.83Zm0-1.13c1.86.26,3.65.61,5.36,1a13.89,13.89,0,0,0,1.14-1.77,12.08,12.08,0,0,0,.58-1.23c-3.26-.28-5.89-.7-7.09-.91Zm-7.76-.56a54.72,54.72,0,0,1,6.64.42v-4.12l.67.13a78.51,78.51,0,0,0,7.93,1A12.63,12.63,0,0,0,625.25,570a16.38,16.38,0,0,0-1.64-2.11h-4.43v7h-13.1a14,14,0,0,0,3.13,4.78l.84.8-1.15.15c-1.11.15-2.09,1.68-2.65,2.82A46.91,46.91,0,0,1,611.85,583.13Zm12.24-16.35h58.74a4.23,4.23,0,0,0-2-2.56l-1.86-.8,2-.27c3.06-.41,10.76-1.87,13.72-4.08H612.61v2.8A15.5,15.5,0,0,1,624.09,566.78Z" transform="translate(-595.27 -548.43)"/><path class="cls-2" d="M787.35,683.22h-1.12v-56.5a40.41,40.41,0,0,1-3.83-1.43v57.92h-1.12V624.79c-4-1.89-8.77-5.05-8.77-9.41V590.54a18.69,18.69,0,0,1-5.81-4.6,68.74,68.74,0,0,0-15.75,5.85l-.66.37-.16-.74a15,15,0,0,1-.14-6.14c-3.5-1.06-4.58-6.24-4.62-6.47l-.24-1.22,1.07.62c4.51,2.62,11.85,2.82,17.7,2.44a13.76,13.76,0,0,1,2-11.26,17.55,17.55,0,0,1,1.1-1.5H707.87l.13-.67a7.08,7.08,0,0,1,1.62-3.18c-3.4-.56-12-2.24-14-5.22L695,558h85.61v5.12l-.61,0a14,14,0,0,0-10.38,3.76h4.42v7H787.5l-.16.69a13.31,13.31,0,0,1-3,5.37c1.81,1,2.87,3.75,3,4.11l.32.88-.93-.13a49.29,49.29,0,0,0-13.08,0v5.14a32.11,32.11,0,0,0,11.77,2.89H786v8.54l-.69-.16a1.84,1.84,0,0,0-1.43.41c-.65.53-1.43,1.82-1.43,4.92v17.63a38.74,38.74,0,0,0,4.54,1.71l.41.12Zm-13.72-92.12v24.29c0,3.59,4,6.38,7.65,8.15V606.42c0-2.87.63-4.83,1.88-5.82a3,3,0,0,1,1.67-.65V593.8A32.71,32.71,0,0,1,773.63,591.09ZM746.8,579.8c.53,1.57,1.73,4.17,4,4.52l.65.1-.21.63a12.44,12.44,0,0,0-.12,5.41A72.19,72.19,0,0,1,766,585a15.24,15.24,0,0,1-.94-1.53,13,13,0,0,1-.76-1.67C758.68,582.17,751.67,582,746.8,579.8Zm21.14,5.86a17.63,17.63,0,0,0,4.57,3.57v-4.41C770.94,585.05,769.41,585.34,767.94,585.66Zm-2.52-4a11.87,11.87,0,0,0,.58,1.23,14.21,14.21,0,0,0,1.14,1.78c1.71-.39,3.5-.74,5.36-1v-2.92C771.32,581,768.69,581.42,765.43,581.69Zm8.21-2.27v4.12a51,51,0,0,1,12.25-.09c-.56-1.14-1.54-2.67-2.65-2.82l-1.15-.15.84-.8A14.11,14.11,0,0,0,786,574.9h-13.1v-7h-4.43a16.46,16.46,0,0,0-1.64,2.11A12.63,12.63,0,0,0,765,580.58a78.36,78.36,0,0,0,7.93-1ZM709.3,566.78H768a15.53,15.53,0,0,1,11.48-4.91v-2.8H697.43c3,2.2,10.67,3.66,13.72,4.08l2,.27-1.86.8A4.24,4.24,0,0,0,709.3,566.78Z" transform="translate(-595.27 -548.43)"/><path class="cls-2" d="M780.63,821.13H695l.59-.87c2-3,10.61-4.66,14-5.22a7.07,7.07,0,0,1-1.62-3.18l-.13-.67H767a17.56,17.56,0,0,1-1.1-1.5,13.75,13.75,0,0,1-2-11.26c-5.86-.38-13.19-.18-17.7,2.44l-1.07.62.24-1.22c0-.23,1.12-5.41,4.62-6.47a15,15,0,0,1,.14-6.14l.16-.74.66.37a68.76,68.76,0,0,0,15.75,5.85,18.64,18.64,0,0,1,5.81-4.6V763.7c0-4.35,4.77-7.52,8.77-9.4V686.16h1.12v67.64a39.68,39.68,0,0,1,3.83-1.43V686.16h1.12v67l-.41.12A39.23,39.23,0,0,0,782.4,755v17.63c0,3.13.79,4.42,1.45,4.94a1.83,1.83,0,0,0,1.41.4l.69-.16v8.54h-.55a32.15,32.15,0,0,0-11.77,2.9v5.14a49.49,49.49,0,0,0,13.08,0l.93-.13-.32.88c-.13.36-1.2,3.15-3,4.11a13.32,13.32,0,0,1,3,5.37l.16.69H774.07v7h-4.42A14,14,0,0,0,780,816.06l.61,0ZM697.43,820h82.09v-2.8A15.56,15.56,0,0,1,768,812.3H709.3a4.24,4.24,0,0,0,2,2.57l1.86.8-2,.27C708.09,816.35,700.39,817.81,697.43,820Zm71.09-8.83h4.43v-7H786a14,14,0,0,0-3.13-4.77l-.84-.81,1.15-.16c1.11-.15,2.09-1.68,2.65-2.82a50.83,50.83,0,0,1-12.25-.09v4.12l-.67-.13a79.07,79.07,0,0,0-7.93-1,12.63,12.63,0,0,0,1.84,10.56A16.32,16.32,0,0,0,768.51,811.18Zm-17.43-22.55a12.45,12.45,0,0,0,.13,5.42l.21.63-.65.1c-2.24.34-3.43,2.95-4,4.52,4.87-2.25,11.88-2.37,17.46-2a13.19,13.19,0,0,1,.76-1.67,15.42,15.42,0,0,1,.94-1.52A72.18,72.18,0,0,1,751.08,788.63Zm14.34,8.76c3.26.28,5.89.7,7.09.91v-2.92c-1.86-.26-3.66-.61-5.36-1a14.15,14.15,0,0,0-1.14,1.77A12.06,12.06,0,0,0,765.43,797.39Zm2.52-4c1.47.32,3,.61,4.57.84v-4.41A17.56,17.56,0,0,0,767.95,793.43Zm13.34-37.87c-3.62,1.78-7.65,4.56-7.65,8.15V788a32.74,32.74,0,0,1,11.2-2.71v-6.16a3,3,0,0,1-1.67-.65c-1.25-1-1.88-2.94-1.88-5.82Z" transform="translate(-595.27 -548.43)"/><path class="cls-2" d="M697.1,821.13H611.49V816l.61,0a14,14,0,0,0,10.38-3.76h-4.42v-7H604.63l.16-.69a13.31,13.31,0,0,1,3-5.37c-1.81-1-2.87-3.75-3-4.11l-.32-.88.93.13a49.63,49.63,0,0,0,13.08,0v-5.14a32.1,32.1,0,0,0-11.77-2.89h-.55v-8.54l.69.16a1.81,1.81,0,0,0,1.42-.41c.65-.53,1.43-1.81,1.43-4.92V755a39.38,39.38,0,0,0-4.54-1.71l-.41-.12v-67h1.12v66.21a39.68,39.68,0,0,1,3.83,1.43V686.16h1.12V754.3c4,1.89,8.77,5.05,8.77,9.4v24.84a18.66,18.66,0,0,1,5.81,4.6,68.63,68.63,0,0,0,15.75-5.85l.66-.37.16.74a14.93,14.93,0,0,1,.14,6.14c3.5,1.06,4.58,6.24,4.62,6.47l.24,1.22-1.07-.62c-4.51-2.62-11.84-2.82-17.7-2.44a13.75,13.75,0,0,1-2,11.26,17.76,17.76,0,0,1-1.1,1.5h59.16l-.13.67A7.05,7.05,0,0,1,682.5,815c3.4.56,12,2.25,14,5.22ZM612.61,820H694.7c-3-2.2-10.67-3.66-13.73-4.07l-2-.27,1.86-.8a4.22,4.22,0,0,0,2-2.57H624.09a15.56,15.56,0,0,1-11.48,4.91Zm6.56-8.83h4.43a16.24,16.24,0,0,0,1.64-2.11,12.63,12.63,0,0,0,1.84-10.56,79.12,79.12,0,0,0-7.93,1l-.67.13v-4.12a51,51,0,0,1-12.25.09c.56,1.14,1.54,2.67,2.65,2.82l1.15.16-.84.81a14.05,14.05,0,0,0-3.13,4.77h13.1Zm13.37-14c4.47,0,9.2.51,12.77,2.16-.53-1.57-1.73-4.17-4-4.52l-.65-.1.21-.63a12.48,12.48,0,0,0,.12-5.42,72.21,72.21,0,0,1-14.88,5.48,15.84,15.84,0,0,1,.94,1.52,13.47,13.47,0,0,1,.76,1.67C629.35,797.2,630.93,797.13,632.55,797.13Zm-12.94-1.75v2.92c1.19-.21,3.83-.64,7.09-.91a12.28,12.28,0,0,0-.58-1.23,14.28,14.28,0,0,0-1.14-1.77C623.26,794.78,621.47,795.13,619.61,795.39Zm0-5.54v4.41c1.58-.23,3.1-.51,4.57-.84A17.67,17.67,0,0,0,619.61,789.85Zm-12.32-4.57a32.75,32.75,0,0,1,11.2,2.71V763.7c0-3.59-4-6.37-7.65-8.15v17.11c0,2.87-.63,4.83-1.88,5.82a3,3,0,0,1-1.67.65Z" transform="translate(-595.27 -548.43)"/><path class="cls-2" d="M717.49,741.84a.56.56,0,0,1-.4-.16l-21-21-21,21a.56.56,0,0,1-1-.4V711.53H644.33a.56.56,0,0,1-.4-1l21-21-21-21a.56.56,0,0,1,.4-1h29.74V637.81a.56.56,0,0,1,1-.4l21,21,21-21a.56.56,0,0,1,1,.4v29.75h29.74a.56.56,0,0,1,.4,1l-21,21,21,21a.56.56,0,0,1-.4,1H718v29.75a.56.56,0,0,1-.35.52A.58.58,0,0,1,717.49,741.84Zm-20.64-22,20.08,20.08V711.53H705.17Zm-21.66-8.32v28.39l20.08-20.08L687,711.53Zm13.34,0,7.53,7.52,7.52-7.52ZM718,710.41h28.39l-20.07-20.08L718,698.65Zm-11.76,0h10.64V699.77Zm-18.87,0h17.29l12.22-12.22V680.9l-12.22-12.22H687.42L675.19,680.9v17.29Zm-12.22,0h10.64l-10.64-10.64Zm-29.51,0h28.39V698.65l-8.32-8.32ZM718,682v15l7.52-7.52Zm-51.5,7.52,7.52,7.52V682Zm51.5-9.11,8.32,8.32,20.07-20.08H718Zm-72.37-11.76,20.08,20.08,8.32-8.32V668.67Zm60.61,0,10.64,10.64V668.67Zm-31.1,0v10.64l10.64-10.64Zm30-1.12h11.76V639.16l-20.08,20.08Zm-16.63,0h15L696.06,660Zm-13.34,0H687l8.32-8.32-20.08-20.08Z" transform="translate(-595.27 -548.43)"/></svg>