<svg id="Layer_1" data-name="Layer 1" xmlns="http://www.w3.org/2000/svg" viewBox="0 0 201.58 282.21"><defs><style>.cls-1{fill:#14110d;}.cls-2{fill:#fff;}</style></defs><title>cards_back_8</title><path class="cls-1" d="M1025.75,558.12A10.08,10.08,0,0,0,1015.67,548H834.24a10.08,10.08,0,0,0-10.08,10.08h0V820.18a10.08,10.08,0,0,0,10.08,10.08h181.42a10.08,10.08,0,0,0,10.08-10.08V558.12Z" transform="translate(-824.16 -548.05)"/><path class="cls-2" d="M953.35,730.45a5.9,5.9,0,0,1-2.61-.6,6.05,6.05,0,0,1-3.41-5.29,3.4,3.4,0,0,1,2.05-3.17,2.82,2.82,0,0,1,2.48,0c1.63.81,2.2,3.15,2.22,3.25a.56.56,0,0,1-1.09.26,4.19,4.19,0,0,0-1.63-2.51,1.72,1.72,0,0,0-1.52.05,2.28,2.28,0,0,0-1.39,2.17,5,5,0,0,0,2.79,4.26c2,1,4.32.47,6.64-1.38,6.93-5.56,6.45-20,6.45-20.16l0-.58h28.34l-13-14.38c-9.6,7.41-19.62,4.42-23.56,2.74,2.44,4.35,3.2,8.58,2.25,12.6-1.69,7.18-8.17,11-8.44,11.21a.56.56,0,0,1-.57-1c.06,0,6.34-3.79,7.92-10.51,1-4.21-.05-8.7-3.09-13.35l-1.31-2,2.07,1.22c.13.08,12.69,7.31,24.45-2.14l.41-.33,15.38,17h-29.7c0,2.86-.25,15.17-6.87,20.49A8.34,8.34,0,0,1,953.35,730.45Z" transform="translate(-824.16 -548.05)"/><path class="cls-2" d="M930.72,723.34v-42.2l1.07,2.35c0,.07,3.3,7.23,5.43,9.6,4.39,4.9,6.63,9.65,6,12.71a4.57,4.57,0,0,1-2.82,3.3c-2.37,1.06-3.5,0-4-.76-1.1-1.77-.7-5.27.18-6a.56.56,0,0,1,.71.86c-.37.41-.82,3.33.13,4.65.18.25.72,1,2.48.22a3.46,3.46,0,0,0,2.18-2.51c.57-2.67-1.62-7.17-5.71-11.73a41.38,41.38,0,0,1-4.55-7.64v35.56c22.09-8.31,14.93-33.73,14.61-34.82l-.35-1.21,1.14.55c19.25,9.31,32.59-5.18,32.72-5.32l.4-.45,21.84,22.58H958a.56.56,0,0,1,0-1.12h41.5l-19.19-19.83c-2.42,2.37-15,13.44-32.55,5.65,1.2,5.37,4.85,27.92-16.35,35.31Z" transform="translate(-824.16 -548.05)"/><path class="cls-2" d="M930.72,762.84V733a.56.56,0,0,1,1.12,0V760.2c4.73-4.68,14.3-14.92,14.3-18.74a4.56,4.56,0,0,0-4.06-4.36,4.1,4.1,0,0,0-4.73,3.07.56.56,0,0,1-1.07-.32,5.23,5.23,0,0,1,6-3.85,5.67,5.67,0,0,1,5,5.47c0,5.41-15,19.86-15.59,20.47Z" transform="translate(-824.16 -548.05)"/><path class="cls-2" d="M979.77,671.84l-.41-.33c-11.78-9.46-24.33-2.21-24.45-2.14l-2.07,1.23,1.32-2c3-4.66,4.08-9.15,3.09-13.36-1.58-6.72-7.86-10.46-7.92-10.5a.56.56,0,0,1,.57-1c.28.16,6.75,4,8.44,11.21.95,4,.19,8.25-2.25,12.6,3.94-1.67,14-4.67,23.56,2.74l13-14.38H964.29l0-.58c0-.15.48-14.6-6.45-20.16-2.32-1.86-4.67-2.35-6.64-1.38a5,5,0,0,0-2.79,4.26,2.28,2.28,0,0,0,1.39,2.17,1.72,1.72,0,0,0,1.53.05,4.17,4.17,0,0,0,1.63-2.51.56.56,0,1,1,1.09.26c0,.1-.6,2.45-2.22,3.25a2.81,2.81,0,0,1-2.48,0,3.4,3.4,0,0,1-2.05-3.17,6.05,6.05,0,0,1,3.41-5.29c1.38-.68,4.23-1.38,7.83,1.52,6.63,5.32,6.9,17.63,6.87,20.49h29.7Z" transform="translate(-824.16 -548.05)"/><path class="cls-2" d="M980.35,682.14l-.4-.45c-.13-.15-13.49-14.62-32.72-5.32l-1.14.55.35-1.21c.32-1.09,7.48-26.51-14.61-34.82v35.56a41.45,41.45,0,0,1,4.55-7.64c4.09-4.56,6.28-9.05,5.71-11.73a3.46,3.46,0,0,0-2.18-2.51c-1.76-.79-2.3,0-2.48.22-1,1.32-.5,4.24-.12,4.66a.55.55,0,0,1,.07.78.57.57,0,0,1-.79.07c-.87-.73-1.28-4.22-.18-6,.46-.74,1.59-1.82,4-.76a4.57,4.57,0,0,1,2.82,3.3c.65,3.06-1.58,7.82-6,12.71-2.13,2.38-5.4,9.53-5.43,9.6l-1.07,2.35V639.3l.74.26c21.19,7.39,17.55,29.93,16.35,35.31,17.51-7.79,30.14,3.28,32.55,5.65l19.19-19.83H958a.56.56,0,1,1,0-1.12h44.15Z" transform="translate(-824.16 -548.05)"/><path class="cls-2" d="M931.28,630.18a.56.56,0,0,1-.56-.56V599.8l.95.91c.64.61,15.59,15.06,15.59,20.47a5.67,5.67,0,0,1-5,5.47,5.22,5.22,0,0,1-6-3.85.56.56,0,1,1,1.07-.32,4.1,4.1,0,0,0,4.73,3.07,4.56,4.56,0,0,0,4.06-4.36c0-3.82-9.57-14.07-14.3-18.74v27.18A.56.56,0,0,1,931.28,630.18Z" transform="translate(-824.16 -548.05)"/><path class="cls-2" d="M878.21,671.84l-15.38-17h29.7c0-2.86.25-15.17,6.88-20.49,3.61-2.89,6.46-2.19,7.83-1.52a6.05,6.05,0,0,1,3.41,5.29,3.4,3.4,0,0,1-2.05,3.17,2.8,2.8,0,0,1-2.48,0c-1.63-.81-2.2-3.15-2.22-3.25a.56.56,0,0,1,1.09-.26,4.18,4.18,0,0,0,1.63,2.51,1.72,1.72,0,0,0,1.52-.05,2.28,2.28,0,0,0,1.39-2.17,5,5,0,0,0-2.79-4.26c-2-1-4.32-.47-6.64,1.38-6.93,5.56-6.45,20-6.45,20.16l0,.58H865.35l13,14.38c9.6-7.41,19.62-4.42,23.57-2.74-2.44-4.35-3.2-8.58-2.25-12.6,1.69-7.18,8.17-11,8.44-11.21a.56.56,0,0,1,.57,1c-.06,0-6.34,3.79-7.92,10.51-1,4.21.05,8.7,3.09,13.35l1.31,2-2.07-1.22c-.13-.08-12.69-7.31-24.45,2.14Z" transform="translate(-824.16 -548.05)"/><path class="cls-2" d="M877.63,682.14l-21.84-22.58h44.15a.56.56,0,1,1,0,1.12h-41.5l19.19,19.83c2.42-2.37,15-13.43,32.55-5.65-1.2-5.37-4.84-27.92,16.35-35.31l.75-.26v42.2l-1.07-2.35c0-.07-3.3-7.23-5.43-9.6-4.39-4.89-6.63-9.65-6-12.71a4.57,4.57,0,0,1,2.82-3.3c2.37-1.06,3.5,0,4,.76,1.1,1.77.7,5.27-.17,6a.56.56,0,0,1-.72-.86c.37-.41.82-3.33-.13-4.65-.18-.25-.72-1-2.48-.22a3.47,3.47,0,0,0-2.18,2.51c-.57,2.67,1.62,7.17,5.71,11.73a41.6,41.6,0,0,1,4.55,7.64V640.89c-22.09,8.31-14.93,33.73-14.61,34.82l.35,1.21-1.13-.55c-19.25-9.31-32.59,5.18-32.72,5.32Z" transform="translate(-824.16 -548.05)"/><path class="cls-2" d="M926.7,630.18a.56.56,0,0,1-.56-.56V602.44c-4.73,4.68-14.3,14.92-14.3,18.74a4.55,4.55,0,0,0,4.06,4.36,4.09,4.09,0,0,0,4.73-3.07.56.56,0,0,1,1.07.32,5.22,5.22,0,0,1-6,3.85,5.66,5.66,0,0,1-5-5.47c0-5.41,15-19.86,15.59-20.47l.95-.91v29.82A.56.56,0,0,1,926.7,630.18Z" transform="translate(-824.16 -548.05)"/><path class="cls-2" d="M904.63,730.45a8.34,8.34,0,0,1-5.22-2.12c-6.63-5.32-6.9-17.63-6.88-20.49h-29.7l15.38-17,.41.33c11.78,9.47,24.33,2.21,24.45,2.14l2.07-1.23-1.32,2c-3,4.66-4.08,9.15-3.09,13.36,1.58,6.72,7.85,10.46,7.92,10.5a.56.56,0,0,1,.2.77.57.57,0,0,1-.77.2c-.27-.16-6.75-4-8.44-11.21-.95-4-.19-8.25,2.25-12.6-3.95,1.67-14,4.67-23.57-2.74l-13,14.38h28.34l0,.58c0,.15-.48,14.6,6.45,20.16,2.32,1.86,4.67,2.35,6.64,1.38a5,5,0,0,0,2.79-4.26,2.28,2.28,0,0,0-1.39-2.17,1.72,1.72,0,0,0-1.52-.05,4.18,4.18,0,0,0-1.63,2.51.56.56,0,0,1-1.09-.26c0-.1.6-2.45,2.22-3.25a2.82,2.82,0,0,1,2.48,0,3.4,3.4,0,0,1,2.05,3.17,6,6,0,0,1-3.41,5.29A5.9,5.9,0,0,1,904.63,730.45Z" transform="translate(-824.16 -548.05)"/><path class="cls-2" d="M927.26,723.34l-.75-.26c-21.19-7.39-17.55-29.93-16.35-35.31-17.51,7.79-30.14-3.28-32.55-5.65L858.43,702h41.5a.56.56,0,0,1,0,1.12H855.79l21.84-22.58.4.45c.13.15,13.49,14.62,32.72,5.32l1.13-.55-.35,1.21c-.32,1.09-7.48,26.51,14.61,34.82V686.2a41.53,41.53,0,0,1-4.55,7.64c-4.09,4.56-6.28,9.05-5.71,11.73a3.47,3.47,0,0,0,2.18,2.51c1.76.79,2.31,0,2.48-.22,1-1.32.5-4.24.12-4.66a.55.55,0,0,1-.07-.78.57.57,0,0,1,.79-.07c.87.73,1.28,4.22.17,6-.46.74-1.59,1.82-4,.76a4.57,4.57,0,0,1-2.82-3.3c-.65-3.06,1.58-7.81,6-12.71,2.13-2.38,5.4-9.53,5.43-9.6l1.07-2.35Z" transform="translate(-824.16 -548.05)"/><path class="cls-2" d="M927.26,762.84l-.95-.91c-.64-.61-15.59-15.06-15.59-20.47a5.66,5.66,0,0,1,5-5.47,5.22,5.22,0,0,1,6,3.85.56.56,0,0,1-1.07.32,4.09,4.09,0,0,0-4.73-3.07,4.56,4.56,0,0,0-4.06,4.36c0,3.82,9.57,14.07,14.3,18.74V733a.56.56,0,0,1,1.12,0Z" transform="translate(-824.16 -548.05)"/><path class="cls-2" d="M1008.55,668.16h-1.12V565.68H993l10.08,10.5h-1.31s-1.43.17-5.82,3.53c-2,1.52-2.65,3.82-3.36,6.25-.91,3.12-1.93,6.66-5.92,9.22a6.71,6.71,0,0,1-7-.39,6.3,6.3,0,0,1-2.94-6.44c.58-3.88,3.19-5.2,5.45-5.2s4.11,1.4,4.34,3.18c.38,3-1.57,4.39-2.65,4.67l-.28-1.08.14.54-.15-.54c.09,0,2.18-.64,1.83-3.45-.15-1.21-1.57-2.18-3.24-2.2s-3.85,1.08-4.33,4.25a5.22,5.22,0,0,0,2.45,5.33,5.56,5.56,0,0,0,5.8.39c3.64-2.33,4.56-5.51,5.45-8.59.76-2.62,1.47-5.09,3.75-6.83a26.2,26.2,0,0,1,5.46-3.47l-10.36-10.78h18.13Z" transform="translate(-824.16 -548.05)"/><path class="cls-2" d="M974.52,586.56c0-.17-.66-4.22,2.4-6.36a6.85,6.85,0,0,1,5.52-.87,6.27,6.27,0,0,1,3,1.55c1-1.71,3.46-5.58,7-6.32l-16.86-15.87h-23v-1.12H976l19.13,18-1.44,0c-4.52,0-7.64,6.54-7.67,6.61l-.47,1-.53-1a4.43,4.43,0,0,0-2.83-1.76,5.82,5.82,0,0,0-4.62.69c-2.48,1.74-1.94,5.22-1.93,5.26Z" transform="translate(-824.16 -548.05)"/><polygon class="cls-2" points="192.06 133.27 190.94 133.27 190.94 13.16 154.28 13.16 154.28 12.04 192.06 12.04 192.06 133.27"/><path class="cls-2" d="M976.78,577.33c-.25,0-.52,0-.8,0a4.88,4.88,0,0,1-4.12-2.36c-1.84-3.37,1-9,1.11-9.22l1,.47a3.56,3.56,0,0,0,.55,3c.15.14.6.58,1.77,0s1.72-2.31,1.28-4.22a4.51,4.51,0,0,0-4.26-3.81,3.91,3.91,0,0,0-3,1.13,5.28,5.28,0,0,0-1.09,3.58l.05.61H952.59c-7.13,0-12.55-6.5-13.59-7.84h-8.49v-1.12h9.06l.17.23c.05.08,5.65,7.61,12.86,7.61h15.5a6,6,0,0,1,1.39-3.83,5,5,0,0,1,3.84-1.5,5.6,5.6,0,0,1,5.35,4.68c.55,2.43-.23,4.68-1.89,5.48a2.49,2.49,0,0,1-3-.22,3.16,3.16,0,0,1-.78-1.33c-.56,1.77-1,4.11-.13,5.69a3.79,3.79,0,0,0,3.25,1.78c1.79.18,3.12-.33,3.75-1.41a2.47,2.47,0,0,0,.06-2.51.65.65,0,0,0-.69-.33l-.19-1.1a1.76,1.76,0,0,1,1.81.79,3.61,3.61,0,0,1,0,3.71A4.33,4.33,0,0,1,976.78,577.33Z" transform="translate(-824.16 -548.05)"/><path class="cls-2" d="M1015.24,630.17l-11.45-13.74V605.87c-.58-3.1-2.54-5.9-4.43-8.61-2-2.93-4-5.71-3.83-8.64.18-3.42,3.46-5.78,6.42-5.85,2.06,0,3.48,1.06,3.66,2.88.46,4.71-4,6.44-4,6.46l-.4-1a5.22,5.22,0,0,0,3.28-5.3,2.21,2.21,0,0,0-2.52-1.87c-2.13,0-5.17,1.74-5.33,4.79-.14,2.55,1.7,5.17,3.63,7.94s4,5.71,4.62,9.15V616l11.19,13.42Z" transform="translate(-824.16 -548.05)"/><path class="cls-2" d="M842.48,668.16h-1.12V564.56h18.13l-10.35,10.78a26.26,26.26,0,0,1,5.46,3.47c2.28,1.74,3,4.21,3.75,6.83.89,3.08,1.81,6.26,5.45,8.59a5.56,5.56,0,0,0,5.8-.39,5.22,5.22,0,0,0,2.44-5.33c-.47-3.13-2.51-4.25-4.28-4.25h-.05c-1.67,0-3.09,1-3.24,2.2-.35,2.84,1.74,3.42,1.83,3.45L866,591c-1.08-.29-3-1.63-2.65-4.67.22-1.79,2.09-3.16,4.34-3.18h.07c2.24,0,4.8,1.36,5.38,5.2a6.3,6.3,0,0,1-2.94,6.44,6.72,6.72,0,0,1-7,.39c-4-2.56-5-6.1-5.92-9.22-.71-2.43-1.37-4.73-3.36-6.25-4.39-3.36-5.79-3.52-5.85-3.53l-1.16-.1.78-.84,9.17-9.55H842.48Z" transform="translate(-824.16 -548.05)"/><path class="cls-2" d="M875.39,586.56l-1.11-.18s.54-3.53-1.93-5.26a5.82,5.82,0,0,0-4.62-.69,4.44,4.44,0,0,0-2.83,1.76l-.53,1-.47-1c0-.07-3.17-6.61-7.61-6.61h-.07l-1.44,0,19.13-18h23.4v1.12h-23L857.5,574.56c3.54.75,6.05,4.62,7,6.32a6.27,6.27,0,0,1,3-1.55,6.86,6.86,0,0,1,5.52.87C876,582.34,875.42,586.39,875.39,586.56Z" transform="translate(-824.16 -548.05)"/><polygon class="cls-2" points="10.64 133.27 9.52 133.27 9.52 12.04 47.3 12.04 47.3 13.16 10.64 13.16 10.64 133.27"/><path class="cls-2" d="M873.13,577.33a4.33,4.33,0,0,1-4-2,3.62,3.62,0,0,1,0-3.71,1.77,1.77,0,0,1,1.81-.79l-.19,1.1a.65.65,0,0,0-.69.33,2.47,2.47,0,0,0,.06,2.51c.63,1.08,2,1.59,3.75,1.41a3.79,3.79,0,0,0,3.25-1.78c.87-1.59.43-3.92-.14-5.69a3.17,3.17,0,0,1-.78,1.33,2.49,2.49,0,0,1-3,.22c-1.66-.8-2.44-3.05-1.89-5.48a5.6,5.6,0,0,1,5.35-4.68,5,5,0,0,1,3.84,1.5,6,6,0,0,1,1.39,3.83h15.5c7.22,0,12.81-7.53,12.86-7.61l.17-.23h9.06v1.12h-8.49c-1,1.34-6.46,7.84-13.59,7.84H880.64l0-.61a5.32,5.32,0,0,0-1.1-3.59,3.91,3.91,0,0,0-3-1.13,4.51,4.51,0,0,0-4.26,3.81c-.44,1.92.09,3.65,1.28,4.22s1.63.13,1.77,0a3.55,3.55,0,0,0,.55-3l1-.47c.12.24,3,5.86,1.11,9.22a4.88,4.88,0,0,1-4.12,2.36C873.65,577.32,873.38,577.33,873.13,577.33Z" transform="translate(-824.16 -548.05)"/><path class="cls-2" d="M834.67,630.17l-.86-.72L845,616V605.87c.64-3.54,2.67-6.44,4.63-9.25s3.77-5.39,3.63-7.94c-.16-3.05-3.2-4.74-5.33-4.79a2.21,2.21,0,0,0-2.52,1.87,5.28,5.28,0,0,0,3.28,5.3l-.4,1s-4.46-1.75-4-6.46c.17-1.79,1.52-2.89,3.53-2.89H848c3,.07,6.24,2.43,6.42,5.85.15,2.93-1.78,5.71-3.83,8.64-1.89,2.71-3.85,5.51-4.44,8.71v10.46Z" transform="translate(-824.16 -548.05)"/><path class="cls-2" d="M859.49,813.74H841.36V710.14h1.12V812.62h14.38l-10.08-10.5h1.31s1.43-.17,5.82-3.52c2-1.52,2.65-3.82,3.36-6.25.9-3.12,1.93-6.66,5.92-9.22a6.71,6.71,0,0,1,7,.39,6.3,6.3,0,0,1,2.94,6.44c-.58,3.84-3.15,5.2-5.38,5.2h-.07c-2.25,0-4.12-1.4-4.34-3.18-.38-3,1.57-4.39,2.65-4.67l.29,1.08-.14-.54.15.54c-.09,0-2.18.64-1.83,3.45.15,1.22,1.58,2.18,3.24,2.2h.05c1.77,0,3.8-1.11,4.28-4.25a5.22,5.22,0,0,0-2.44-5.33,5.57,5.57,0,0,0-5.8-.39c-3.64,2.33-4.56,5.51-5.45,8.59-.76,2.62-1.47,5.09-3.75,6.83a26.26,26.26,0,0,1-5.46,3.47Z" transform="translate(-824.16 -548.05)"/><path class="cls-2" d="M897.31,820.74h-23.4l-19.13-18,1.44,0h.07c4.44,0,7.58-6.54,7.61-6.61l.47-1,.53,1a4.43,4.43,0,0,0,2.83,1.76,5.82,5.82,0,0,0,4.62-.69c2.48-1.74,1.94-5.22,1.94-5.26l1.1-.18c0,.17.66,4.22-2.4,6.36a6.85,6.85,0,0,1-5.52.86,6.27,6.27,0,0,1-3-1.54c-1,1.71-3.46,5.57-7,6.32l16.86,15.88h23Z" transform="translate(-824.16 -548.05)"/><polygon class="cls-2" points="47.3 270.18 9.52 270.18 9.52 148.94 10.64 148.94 10.64 269.06 47.3 269.06 47.3 270.18"/><path class="cls-2" d="M919.4,820.74h-9.06l-.17-.23c-.05-.08-5.65-7.61-12.86-7.61h-15.5a6,6,0,0,1-1.39,3.82,5,5,0,0,1-3.84,1.5,5.6,5.6,0,0,1-5.35-4.68c-.55-2.43.23-4.68,1.89-5.48a2.49,2.49,0,0,1,3,.22,3.17,3.17,0,0,1,.78,1.33c.56-1.77,1-4.11.14-5.69a3.79,3.79,0,0,0-3.25-1.78c-1.79-.18-3.12.33-3.75,1.41A2.47,2.47,0,0,0,870,806a.65.65,0,0,0,.69.33l.19,1.1a1.76,1.76,0,0,1-1.81-.79,3.62,3.62,0,0,1,0-3.71c.5-.86,1.8-2.25,4.83-2a4.88,4.88,0,0,1,4.12,2.36c1.84,3.37-1,9-1.11,9.22l-1-.47a3.55,3.55,0,0,0-.55-3c-.15-.14-.6-.58-1.77,0s-1.72,2.31-1.28,4.22a4.51,4.51,0,0,0,4.26,3.81,3.9,3.9,0,0,0,3-1.13,5.28,5.28,0,0,0,1.09-3.58l-.05-.61h16.67c7.13,0,12.55,6.5,13.59,7.84h8.49Z" transform="translate(-824.16 -548.05)"/><path class="cls-2" d="M847.84,795.53c-2,0-3.36-1.1-3.53-2.89-.46-4.71,4-6.44,4-6.46l.4,1a5.23,5.23,0,0,0-3.28,5.3,2.2,2.2,0,0,0,2.52,1.87c2.13,0,5.16-1.74,5.33-4.79.13-2.55-1.7-5.17-3.63-7.94s-4-5.7-4.62-9.15V762.28l-11.19-13.42.86-.72,11.45,13.74v10.56c.58,3.1,2.54,5.9,4.43,8.61,2,2.93,4,5.71,3.83,8.64-.18,3.42-3.46,5.78-6.42,5.85Z" transform="translate(-824.16 -548.05)"/><path class="cls-2" d="M1008.55,813.74H990.41L1000.77,803a26.2,26.2,0,0,1-5.46-3.47c-2.28-1.74-3-4.21-3.75-6.83-.89-3.08-1.81-6.26-5.45-8.59a5.57,5.57,0,0,0-5.8.39,5.22,5.22,0,0,0-2.45,5.33c.47,3.13,2.51,4.25,4.28,4.25h.05c1.67,0,3.09-1,3.24-2.2.35-2.84-1.74-3.42-1.83-3.45l.28-1.08c1.09.29,3,1.63,2.65,4.67-.22,1.79-2.09,3.16-4.34,3.18h-.07c-2.24,0-4.8-1.36-5.38-5.2a6.3,6.3,0,0,1,2.94-6.44,6.7,6.7,0,0,1,7-.39c4,2.56,5,6.1,5.92,9.22.71,2.43,1.37,4.73,3.36,6.25,4.39,3.36,5.79,3.52,5.85,3.53l1.16.11-.78.84L993,812.62h14.38V710.14h1.12Z" transform="translate(-824.16 -548.05)"/><path class="cls-2" d="M976,820.74h-23.4v-1.12h23l16.86-15.88c-3.54-.75-6-4.62-7-6.32a6.27,6.27,0,0,1-3,1.54,6.85,6.85,0,0,1-5.52-.86c-3.06-2.14-2.43-6.19-2.4-6.36l1.11.18s-.54,3.53,1.93,5.26a5.82,5.82,0,0,0,4.62.69,4.43,4.43,0,0,0,2.83-1.76l.53-1,.47,1c0,.07,3.16,6.61,7.61,6.61h.06l1.44,0Z" transform="translate(-824.16 -548.05)"/><polygon class="cls-2" points="192.06 270.18 154.28 270.18 154.28 269.06 190.94 269.06 190.94 148.94 192.06 148.94 192.06 270.18"/><path class="cls-2" d="M939.56,820.74h-9.06v-1.12H939c1-1.34,6.46-7.84,13.59-7.84h16.67l0,.61a5.32,5.32,0,0,0,1.1,3.58,3.91,3.91,0,0,0,3,1.13,4.51,4.51,0,0,0,4.26-3.81c.44-1.92-.09-3.65-1.28-4.22s-1.63-.13-1.77,0a3.56,3.56,0,0,0-.55,3l-1,.47c-.12-.24-3-5.86-1.11-9.22A4.88,4.88,0,0,1,976,801c3-.28,4.32,1.1,4.83,2a3.61,3.61,0,0,1,0,3.71,1.76,1.76,0,0,1-1.81.79l.19-1.1a.65.65,0,0,0,.69-.33,2.48,2.48,0,0,0-.06-2.51c-.63-1.08-2-1.59-3.75-1.41a3.78,3.78,0,0,0-3.25,1.78c-.87,1.59-.43,3.92.13,5.69a3.16,3.16,0,0,1,.78-1.33,2.49,2.49,0,0,1,3-.22c1.66.8,2.44,3,1.89,5.48a5.6,5.6,0,0,1-5.35,4.68,5,5,0,0,1-3.84-1.5,6,6,0,0,1-1.39-3.82h-15.5c-7.22,0-12.81,7.53-12.86,7.61Z" transform="translate(-824.16 -548.05)"/><path class="cls-2" d="M1002.07,795.53h-.12c-3-.07-6.24-2.43-6.42-5.85-.15-2.93,1.78-5.71,3.83-8.64,1.89-2.71,3.85-5.5,4.44-8.71V761.87l11.45-13.74.86.72-11.19,13.42v10.16c-.64,3.54-2.67,6.44-4.63,9.25s-3.77,5.39-3.63,7.94c.16,3.05,3.2,4.74,5.33,4.79a2.2,2.2,0,0,0,2.52-1.87,5.28,5.28,0,0,0-3.28-5.3l.4-1s4.45,1.75,4,6.46C1005.43,794.43,1004.08,795.53,1002.07,795.53Z" transform="translate(-824.16 -548.05)"/></svg>