<svg id="Layer_1" data-name="Layer 1" xmlns="http://www.w3.org/2000/svg" viewBox="0 0 201.58 282.21"><defs><style>.cls-1{fill:#14110d;}.cls-2{fill:#fff;}</style></defs><title>cards_back_5</title><path class="cls-1" d="M1258,558.12A10.08,10.08,0,0,0,1247.92,548H1066.49a10.08,10.08,0,0,0-10.08,10.08h0V820.18a10.08,10.08,0,0,0,10.08,10.08h181.42A10.08,10.08,0,0,0,1258,820.18V558.12Z" transform="translate(-1056.41 -548.05)"/><path class="cls-2" d="M1072,682.83h-1.12V624.9a40.08,40.08,0,0,1-3.83,1.43v56.5h-1.12V625.49l.41-.12a38.59,38.59,0,0,0,4.54-1.71V606c0-3.13-.79-4.42-1.45-4.94a1.83,1.83,0,0,0-1.41-.4l-.69.16v-8.54h.55a32.13,32.13,0,0,0,11.77-2.89v-5.14a49.51,49.51,0,0,0-13.08,0l-.93.13.32-.88c.13-.36,1.2-3.15,3-4.11a13.31,13.31,0,0,1-3-5.37l-.16-.69h13.43v-7h4.42a14,14,0,0,0-10.38-3.76l-.61.05v-5.12h85.61l-.59.87c-2,3-10.61,4.66-14,5.22a7,7,0,0,1,1.62,3.19l.13.67h-59.16a17.2,17.2,0,0,1,1.1,1.5,13.75,13.75,0,0,1,2,11.26c5.86.38,13.19.18,17.7-2.44l1.07-.62-.24,1.22c0,.23-1.12,5.41-4.62,6.47a15,15,0,0,1-.14,6.14l-.16.74-.66-.37a68.81,68.81,0,0,0-15.75-5.85,18.68,18.68,0,0,1-5.81,4.6V615c0,4.35-4.77,7.52-8.77,9.4Zm-3.55-83.26a3,3,0,0,1,1.67.65c1.25,1,1.88,2.94,1.88,5.82v17.11c3.62-1.78,7.65-4.56,7.65-8.15V590.7a32.74,32.74,0,0,1-11.2,2.71Zm18.87-15a72.07,72.07,0,0,1,14.88,5.48,12.46,12.46,0,0,0-.12-5.42l-.21-.63.65-.1c2.23-.34,3.43-2.95,4-4.52-4.87,2.25-11.88,2.37-17.46,2a13.2,13.2,0,0,1-.76,1.67A15.67,15.67,0,0,1,1087.3,584.59Zm-6.55-.15v4.41a17.59,17.59,0,0,0,4.57-3.57C1083.85,584.95,1082.33,584.66,1080.75,584.43Zm0-1.13c1.86.26,3.65.61,5.36,1a14.32,14.32,0,0,0,1.14-1.77,12.07,12.07,0,0,0,.58-1.23c-3.26-.28-5.89-.7-7.09-.91Zm-7.76-.56a54.52,54.52,0,0,1,6.64.42V579l.67.13a79.46,79.46,0,0,0,7.93,1,12.64,12.64,0,0,0-1.84-10.56,16.51,16.51,0,0,0-1.64-2.11h-4.43v7h-13.1a14,14,0,0,0,3.13,4.78l.84.8-1.15.15c-1.11.15-2.09,1.68-2.65,2.82A47.39,47.39,0,0,1,1073,582.74Zm12.24-16.35H1144a4.25,4.25,0,0,0-2-2.56l-1.86-.8,2-.27c3.06-.41,10.76-1.87,13.73-4.08h-82.09v2.8A15.53,15.53,0,0,1,1085.23,566.39Z" transform="translate(-1056.41 -548.05)"/><path class="cls-2" d="M1248.5,682.83h-1.12v-56.5a40,40,0,0,1-3.83-1.43v57.92h-1.12V624.4c-4-1.89-8.77-5-8.77-9.4V590.15a18.67,18.67,0,0,1-5.81-4.6,68.76,68.76,0,0,0-15.75,5.85l-.66.37-.16-.74a14.94,14.94,0,0,1-.13-6.14c-3.5-1.06-4.58-6.24-4.62-6.47l-.24-1.22,1.07.62c4.51,2.62,11.85,2.82,17.7,2.44a13.75,13.75,0,0,1,2-11.26,17.21,17.21,0,0,1,1.1-1.5H1169l.13-.67a7.07,7.07,0,0,1,1.62-3.19c-3.4-.56-12-2.25-14-5.22l-.59-.87h85.61v5.12l-.61-.05a14,14,0,0,0-10.38,3.76h4.42v7h13.43l-.16.69a13.29,13.29,0,0,1-3,5.37c1.81,1,2.87,3.75,3,4.11l.32.88-.93-.13a49.42,49.42,0,0,0-13.08,0v5.14a32.08,32.08,0,0,0,11.77,2.89h.55v8.54l-.69-.16a1.82,1.82,0,0,0-1.43.41c-.65.53-1.43,1.81-1.43,4.92v17.63a38.7,38.7,0,0,0,4.54,1.71l.41.12Zm-13.72-92.12V615c0,3.59,4,6.38,7.65,8.15V606c0-2.87.63-4.83,1.88-5.82a3,3,0,0,1,1.67-.65v-6.16A32.73,32.73,0,0,1,1234.78,590.7Zm-26.83-11.29c.53,1.57,1.73,4.17,4,4.52l.65.1-.21.63a12.44,12.44,0,0,0-.12,5.42,72.08,72.08,0,0,1,14.88-5.48,15.68,15.68,0,0,1-.94-1.52,13.23,13.23,0,0,1-.76-1.67C1219.83,581.78,1212.82,581.65,1207.95,579.41Zm21.14,5.86a17.61,17.61,0,0,0,4.57,3.57v-4.41C1232.08,584.66,1230.55,584.95,1229.09,585.27Zm-2.52-4a12.08,12.08,0,0,0,.58,1.23,14.41,14.41,0,0,0,1.14,1.78c1.71-.39,3.5-.74,5.37-1v-2.92C1232.46,580.6,1229.83,581,1226.57,581.3Zm8.21-2.27v4.12a51,51,0,0,1,12.25-.09c-.56-1.14-1.54-2.67-2.65-2.82l-1.15-.15.84-.8a14.09,14.09,0,0,0,3.13-4.78h-13.1v-7h-4.43a16.41,16.41,0,0,0-1.64,2.11,12.63,12.63,0,0,0-1.84,10.56,79.41,79.41,0,0,0,7.93-1Zm-64.34-12.64h58.74a15.51,15.51,0,0,1,11.48-4.91v-2.8h-82.09c3,2.2,10.67,3.66,13.72,4.08l2,.27-1.86.8A4.25,4.25,0,0,0,1170.44,566.39Z" transform="translate(-1056.41 -548.05)"/><path class="cls-2" d="M1241.78,820.74h-85.61l.59-.87c2-3,10.61-4.66,14-5.22a7.06,7.06,0,0,1-1.62-3.18l-.13-.67h59.16a17.33,17.33,0,0,1-1.1-1.5,13.75,13.75,0,0,1-2-11.26c-5.86-.38-13.19-.18-17.7,2.44l-1.07.62.24-1.22c0-.23,1.12-5.41,4.63-6.47a14.94,14.94,0,0,1,.13-6.14l.16-.74.66.37a68.86,68.86,0,0,0,15.75,5.85,18.67,18.67,0,0,1,5.81-4.6V763.31c0-4.35,4.77-7.52,8.77-9.4V685.77h1.12V753.4a39.69,39.69,0,0,1,3.83-1.43V685.77h1.12v67l-.41.12a39,39,0,0,0-4.54,1.71v17.63c0,3.13.79,4.42,1.45,4.94a1.82,1.82,0,0,0,1.41.4l.69-.16V786h-.55a32.13,32.13,0,0,0-11.77,2.89V794a49.41,49.41,0,0,0,13.08,0l.93-.13-.32.88c-.13.36-1.2,3.15-3,4.11a13.28,13.28,0,0,1,3,5.37l.16.69h-13.43v7h-4.42a14,14,0,0,0,10.38,3.76l.61,0Zm-83.21-1.12h82.09v-2.8a15.48,15.48,0,0,1-11.48-4.91h-58.74a4.25,4.25,0,0,0,2,2.57l1.86.8-2,.27C1169.24,816,1161.54,817.42,1158.57,819.62Zm71.09-8.83h4.43v-7h13.1a14,14,0,0,0-3.13-4.78l-.84-.8,1.15-.15c1.11-.15,2.09-1.68,2.65-2.82a50.9,50.9,0,0,1-12.25-.09v4.12l-.67-.13a78.93,78.93,0,0,0-7.93-1,12.63,12.63,0,0,0,1.84,10.56A16.48,16.48,0,0,0,1229.66,810.79Zm-17.43-22.55a12.44,12.44,0,0,0,.12,5.41l.21.63-.65.1c-2.24.34-3.43,2.95-4,4.52,4.87-2.25,11.88-2.37,17.46-2a13.28,13.28,0,0,1,.76-1.67,15.55,15.55,0,0,1,.94-1.52A72.05,72.05,0,0,1,1212.23,788.24Zm14.34,8.76c3.26.28,5.89.7,7.09.91V795c-1.86-.27-3.65-.61-5.36-1a14,14,0,0,0-1.14,1.77A12.07,12.07,0,0,0,1226.57,797Zm2.52-4c1.47.32,3,.61,4.57.83v-4.41A17.61,17.61,0,0,0,1229.09,793Zm13.34-37.87c-3.62,1.78-7.65,4.56-7.65,8.15V787.6a32.77,32.77,0,0,1,11.2-2.71v-6.16a3,3,0,0,1-1.67-.65c-1.25-1-1.88-2.94-1.88-5.82Z" transform="translate(-1056.41 -548.05)"/><path class="cls-2" d="M1158.24,820.74h-85.61v-5.12l.61,0a14,14,0,0,0,10.38-3.76h-4.42v-7h-13.43l.16-.69a13.31,13.31,0,0,1,3-5.37c-1.81-1-2.87-3.75-3-4.11l-.32-.88.93.13a49.42,49.42,0,0,0,13.08,0v-5.14a32.08,32.08,0,0,0-11.77-2.89h-.55v-8.54l.69.16a1.82,1.82,0,0,0,1.42-.41c.65-.53,1.43-1.81,1.43-4.92V754.64a39,39,0,0,0-4.54-1.71l-.41-.12v-67H1067V752a39.8,39.8,0,0,1,3.83,1.43V685.77H1072v68.14c4,1.89,8.77,5.05,8.77,9.4v24.84a18.68,18.68,0,0,1,5.81,4.6,68.74,68.74,0,0,0,15.75-5.85l.66-.37.16.74a15,15,0,0,1,.14,6.14c3.5,1.06,4.58,6.24,4.63,6.47l.24,1.22-1.07-.62c-4.51-2.62-11.84-2.82-17.7-2.44a13.75,13.75,0,0,1-2,11.26,17.32,17.32,0,0,1-1.1,1.5h59.16l-.13.67a7,7,0,0,1-1.62,3.18c3.4.56,12,2.25,14,5.22Zm-84.49-1.12h82.09c-3-2.21-10.67-3.66-13.73-4.08l-2-.27,1.86-.8a4.23,4.23,0,0,0,2-2.57h-58.74a15.58,15.58,0,0,1-11.48,4.91Zm6.56-8.83h4.43a16.57,16.57,0,0,0,1.64-2.11,12.64,12.64,0,0,0,1.84-10.56,78.73,78.73,0,0,0-7.93,1l-.67.13v-4.12a51,51,0,0,1-12.25.09c.56,1.14,1.54,2.67,2.65,2.82l1.15.15-.84.8a14.08,14.08,0,0,0-3.13,4.78h13.1Zm13.37-14c4.47,0,9.2.51,12.77,2.16-.53-1.57-1.73-4.17-4-4.52l-.65-.1.21-.63a12.46,12.46,0,0,0,.12-5.41,72.09,72.09,0,0,1-14.88,5.48,15.73,15.73,0,0,1,.95,1.52,13.26,13.26,0,0,1,.76,1.67C1090.49,796.81,1092.07,796.74,1093.69,796.74ZM1080.75,795v2.92c1.19-.21,3.83-.64,7.09-.91a12.06,12.06,0,0,0-.58-1.23,14.34,14.34,0,0,0-1.14-1.78C1084.41,794.39,1082.61,794.73,1080.75,795Zm0-5.54v4.41c1.57-.23,3.1-.51,4.57-.84A17.66,17.66,0,0,0,1080.75,789.46Zm-12.32-4.57a32.77,32.77,0,0,1,11.2,2.71V763.31c0-3.59-4-6.37-7.65-8.15v17.11c0,2.87-.63,4.83-1.88,5.82a3,3,0,0,1-1.67.65Z" transform="translate(-1056.41 -548.05)"/><path class="cls-2" d="M1185,672.73h-.06a2.38,2.38,0,0,1-2.22-1.43,2,2,0,0,1,0-1.76,3.55,3.55,0,0,1,2.22-1.53.56.56,0,1,1,.26,1.09,2.5,2.5,0,0,0-1.48.94.91.91,0,0,0,0,.81,1.27,1.27,0,0,0,1.21.77,3,3,0,0,0,2.55-1.68c.58-1.19.28-2.62-.86-4-3.51-4.37-12.68-4.07-12.77-4.06l-.58,0V643.91l-8.76,7.91a15,15,0,0,1,1.88,14.66,11,11,0,0,1,7.74-1.2,12.67,12.67,0,0,1,7.32,5.51.56.56,0,0,1-1,.57s-2.4-4-6.62-5c-2.64-.62-5.47,0-8.41,2l-2,1.31,1.22-2.06a13.91,13.91,0,0,0-1.35-15.46l-.33-.41,11.41-10.3V660.7h0c2.18,0,9.75.31,13.1,4.49,1.93,2.4,1.45,4.31,1,5.24A4.1,4.1,0,0,1,1185,672.73Z" transform="translate(-1056.41 -548.05)"/><path class="cls-2" d="M1184.43,683.39h-28.29l2.35-1.07s4.61-2.11,6.11-3.45,5.42-4.5,8.33-3.88a3.16,3.16,0,0,1,2.26,1.92c.77,1.73-.14,2.53-.57,2.79-1.23.77-3.59.47-4.11-.16a.56.56,0,1,1,.86-.71,3.59,3.59,0,0,0,2.76-.15c.11-.09.46-.37,0-1.32a2,2,0,0,0-1.47-1.29c-1.65-.35-4.47,1-7.35,3.62a23.12,23.12,0,0,1-4.19,2.57h21.68c-5.37-13.67-21.31-9.18-22-9l-1.21.35.55-1.14a17.54,17.54,0,0,0-3.37-20.76l-.45-.4,15-14.49v28.8a.56.56,0,1,1-1.12,0V639.49L1158,651.34a18.86,18.86,0,0,1,3.68,20.61c4.07-.83,17.87-2.59,22.51,10.7Z" transform="translate(-1056.41 -548.05)"/><path class="cls-2" d="M1210,683.39h-19.61a.56.56,0,0,1,0-1.12h17c-3.11-3.11-9.24-8.77-11.54-8.77a2.72,2.72,0,0,0-2.6,2.44,2.44,2.44,0,0,0,1.83,2.81.56.56,0,1,1-.32,1.07,3.54,3.54,0,0,1-2.61-4,3.84,3.84,0,0,1,3.71-3.39c3.5,0,12.29,9,13.28,10.06Z" transform="translate(-1056.41 -548.05)"/><path class="cls-2" d="M1129.38,672.73a4.1,4.1,0,0,1-3.52-2.3c-.45-.93-.93-2.84,1-5.24,3.35-4.17,10.91-4.49,13.1-4.49h0V641.39l11.41,10.3-.33.41a13.91,13.91,0,0,0-1.35,15.46l1.22,2.06-2-1.31c-2.94-1.92-5.77-2.57-8.41-2-4.22,1-6.6,5-6.62,5a.56.56,0,0,1-1-.57,12.68,12.68,0,0,1,7.32-5.51,11,11,0,0,1,7.74,1.2,15,15,0,0,1,1.88-14.66l-8.76-7.91v17.94l-.58,0c-.1,0-9.27-.3-12.77,4.06-1.14,1.42-1.45,2.86-.86,4a3,3,0,0,0,2.55,1.68,1.27,1.27,0,0,0,1.21-.77.92.92,0,0,0,0-.81,2.5,2.5,0,0,0-1.48-.94.56.56,0,0,1,.26-1.09,3.56,3.56,0,0,1,2.22,1.53,2,2,0,0,1,0,1.76,2.37,2.37,0,0,1-2.21,1.43Z" transform="translate(-1056.41 -548.05)"/><path class="cls-2" d="M1155.65,683.39h-25.71l.26-.75c4.63-13.29,18.44-11.53,22.51-10.7a18.86,18.86,0,0,1,3.68-20.61l-12.24-11.84v26.16a.56.56,0,0,1-1.12,0v-28.8l15,14.49-.45.4a17.54,17.54,0,0,0-3.37,20.76l.55,1.14-1.21-.35c-.69-.2-16.62-4.69-22,9h21.68a23.13,23.13,0,0,1-4.19-2.57c-2.88-2.59-5.7-4-7.35-3.62a2,2,0,0,0-1.47,1.29c-.42.94-.08,1.22,0,1.32a3.49,3.49,0,0,0,2.79.12.54.54,0,0,1,.77-.05.58.58,0,0,1,.05.8c-.52.62-2.87.92-4.11.16-.43-.27-1.34-1.07-.57-2.79a3.16,3.16,0,0,1,2.26-1.92c2.93-.63,6.8,2.51,8.33,3.88s6.06,3.43,6.11,3.45l2.35,1.07Z" transform="translate(-1056.41 -548.05)"/><path class="cls-2" d="M1124,683.39H1104.4l.91-.95c1-1,9.79-10.06,13.28-10.06a3.83,3.83,0,0,1,3.71,3.39,3.54,3.54,0,0,1-2.61,4,.56.56,0,0,1-.32-1.07,2.44,2.44,0,0,0,1.83-2.81,2.72,2.72,0,0,0-2.6-2.44c-2.3,0-8.43,5.66-11.54,8.77h17a.56.56,0,0,1,0,1.12Z" transform="translate(-1056.41 -548.05)"/><path class="cls-2" d="M1140,727.2V707.89h0c-2.18,0-9.75-.31-13.1-4.49-1.93-2.4-1.45-4.31-1-5.24a4.1,4.1,0,0,1,3.52-2.3h.06a2.37,2.37,0,0,1,2.21,1.43,2,2,0,0,1,0,1.76,3.56,3.56,0,0,1-2.22,1.53.55.55,0,0,1-.67-.41.56.56,0,0,1,.41-.67,2.5,2.5,0,0,0,1.48-.94.92.92,0,0,0,0-.81,1.27,1.27,0,0,0-1.21-.77,3,3,0,0,0-2.55,1.68c-.58,1.19-.28,2.62.87,4,3.51,4.37,12.68,4.07,12.77,4.06l.58,0v17.94l8.76-7.91a15,15,0,0,1-1.88-14.66,11,11,0,0,1-7.74,1.2,12.68,12.68,0,0,1-7.32-5.51.56.56,0,0,1,1-.57s2.4,4,6.62,5c2.64.62,5.47,0,8.41-2l2-1.31-1.22,2.06a13.91,13.91,0,0,0,1.35,15.46l.33.41Z" transform="translate(-1056.41 -548.05)"/><path class="cls-2" d="M1143,731.74v-28.8a.56.56,0,0,1,1.12,0V729.1l12.24-11.84a18.86,18.86,0,0,1-3.68-20.61c-4.07.83-17.87,2.59-22.51-10.7l-.26-.74h28.29l-2.35,1.07s-4.61,2.11-6.11,3.45-5.41,4.51-8.33,3.88a3.16,3.16,0,0,1-2.26-1.92c-.77-1.73.14-2.53.57-2.79,1.23-.77,3.59-.47,4.11.16a.56.56,0,1,1-.86.71,3.58,3.58,0,0,0-2.76.15c-.11.09-.45.37,0,1.32a2,2,0,0,0,1.47,1.29c1.66.35,4.47-1,7.35-3.62a23.18,23.18,0,0,1,4.19-2.57h-21.68c5.37,13.67,21.31,9.18,22,9l1.21-.35-.55,1.14a17.54,17.54,0,0,0,3.37,20.76l.45.4Z" transform="translate(-1056.41 -548.05)"/><path class="cls-2" d="M1118.6,696.22c-3.5,0-12.29-9-13.28-10.06l-.91-.95H1124a.56.56,0,0,1,0,1.12h-17c3.11,3.11,9.24,8.77,11.54,8.77a2.72,2.72,0,0,0,2.6-2.44,2.44,2.44,0,0,0-1.83-2.81.56.56,0,0,1,.32-1.07,3.54,3.54,0,0,1,2.61,4A3.83,3.83,0,0,1,1118.6,696.22Z" transform="translate(-1056.41 -548.05)"/><path class="cls-2" d="M1174.4,727.2,1163,716.9l.33-.41a13.91,13.91,0,0,0,1.35-15.46l-1.22-2.06,2,1.31c2.94,1.92,5.77,2.57,8.41,2,4.22-1,6.6-5,6.62-5a.56.56,0,0,1,1,.57,12.67,12.67,0,0,1-7.32,5.51,11,11,0,0,1-7.74-1.2,15,15,0,0,1-1.88,14.66l8.76,7.91V706.74l.58,0c.09,0,9.27.3,12.77-4.06,1.14-1.42,1.45-2.86.86-4a3,3,0,0,0-2.55-1.68,1.27,1.27,0,0,0-1.21.77.91.91,0,0,0,0,.81,2.5,2.5,0,0,0,1.48.94.56.56,0,0,1,.41.67.56.56,0,0,1-.67.41,3.55,3.55,0,0,1-2.22-1.53,2,2,0,0,1,0-1.76,2.38,2.38,0,0,1,2.22-1.43h.06a4.1,4.1,0,0,1,3.52,2.3c.46.93.93,2.84-1,5.24-3.35,4.17-10.92,4.49-13.1,4.49h0Z" transform="translate(-1056.41 -548.05)"/><path class="cls-2" d="M1171.35,731.74l-15-14.49.45-.4a17.54,17.54,0,0,0,3.37-20.76l-.55-1.14,1.21.35c.69.2,16.62,4.69,22-9h-21.68a23.17,23.17,0,0,1,4.19,2.57c2.88,2.58,5.7,4,7.35,3.62a2,2,0,0,0,1.47-1.29c.42-.94.08-1.22,0-1.32a3.49,3.49,0,0,0-2.79-.12.53.53,0,0,1-.77.05.58.58,0,0,1-.05-.8c.52-.62,2.88-.92,4.11-.16.43.27,1.34,1.07.57,2.79a3.16,3.16,0,0,1-2.26,1.92c-2.92.63-6.8-2.51-8.33-3.88s-6.06-3.43-6.11-3.45l-2.35-1.07h28.29l-.26.74c-4.63,13.29-18.44,11.54-22.51,10.7a18.86,18.86,0,0,1-3.68,20.61l12.24,11.84V702.94a.56.56,0,1,1,1.12,0Z" transform="translate(-1056.41 -548.05)"/><path class="cls-2" d="M1195.77,696.22a3.84,3.84,0,0,1-3.71-3.39,3.54,3.54,0,0,1,2.61-4,.56.56,0,1,1,.32,1.07,2.44,2.44,0,0,0-1.83,2.81,2.72,2.72,0,0,0,2.6,2.44c2.3,0,8.43-5.66,11.54-8.77h-17a.56.56,0,0,1,0-1.12H1210l-.91.95C1208.07,687.18,1199.27,696.22,1195.77,696.22Z" transform="translate(-1056.41 -548.05)"/><path class="cls-2" d="M1180.69,651.41a.56.56,0,0,1-.56-.56v-48l-22.94,8.67-22.94-8.67v48a.56.56,0,0,1-1.12,0V601.22l24.06,9.1,24.06-9.1v49.63A.56.56,0,0,1,1180.69,651.41Z" transform="translate(-1056.41 -548.05)"/><path class="cls-2" d="M1202.58,658a.56.56,0,0,1-.56-.56V618.07L1157.19,635l-.2-.07-44.63-16.87v39.34a.56.56,0,1,1-1.12,0v-41l46,17.37,46-17.37v41A.56.56,0,0,1,1202.58,658Z" transform="translate(-1056.41 -548.05)"/><path class="cls-2" d="M1181.25,767.38l-24.06-9.1-24.06,9.1V717.75a.56.56,0,0,1,1.12,0v48l22.94-8.67,22.94,8.67v-48a.56.56,0,0,1,1.12,0Z" transform="translate(-1056.41 -548.05)"/><path class="cls-2" d="M1203.14,752.14l-46-17.37-46,17.37v-41a.56.56,0,0,1,1.12,0v39.34l44.83-16.95.2.07L1202,750.52V711.18a.56.56,0,0,1,1.12,0Z" transform="translate(-1056.41 -548.05)"/></svg>