<svg id="Layer_1" data-name="Layer 1" xmlns="http://www.w3.org/2000/svg" viewBox="0 0 201.58 282.21"><defs><style>.cls-1{fill:#14110d;}.cls-2{fill:#fff;}</style></defs><title>cards_back_6</title><path class="cls-1" d="M572.11,558.12A10.08,10.08,0,0,0,562,548H380.61a10.08,10.08,0,0,0-10.08,10.08h0V820.18a10.08,10.08,0,0,0,10.08,10.08H562a10.08,10.08,0,0,0,10.08-10.08V558.12Z" transform="translate(-370.53 -548.05)"/><path class="cls-2" d="M431.36,720.83a17.28,17.28,0,0,1-10.84-3.7c-7.14-5.68-7.53-13.88-5.51-19.67,2.24-6.41,7.48-10.71,13-10.71,5,0,9.06,2.23,11.19,6.11a10.24,10.24,0,0,1,.06,10.26c-2.19,3.44-7,4.17-10.3,2.89-2.67-1-4-3.1-3.62-5.56a5.62,5.62,0,0,1,2.41-4,7.31,7.31,0,0,1,5.31-.66.56.56,0,0,1,.39.69.57.57,0,0,1-.68.4,6.28,6.28,0,0,0-4.42.53,4.55,4.55,0,0,0-1.9,3.27c-.45,2.73,1.89,3.94,2.91,4.33,2.93,1.12,7.08.51,9-2.44a9.11,9.11,0,0,0-.09-9.12c-1.93-3.51-5.65-5.53-10.21-5.53-5.08,0-9.9,4-12,10-1.89,5.42-1.54,13.11,5.14,18.42,5.5,4.37,13.38,4.62,20.08.64,5.62-3.34,11-10.27,9.37-19.69a.56.56,0,0,1,1.1-.19c1.76,10-4,17.31-9.9,20.85A20.59,20.59,0,0,1,431.36,720.83Z" transform="translate(-370.53 -548.05)"/><path class="cls-2" d="M432.76,715.51a4.69,4.69,0,0,1-2.56-.64c-4.17-2.72-2-6.18-2-6.22a.56.56,0,0,1,.95.6c-.16.27-1.48,2.62,1.69,4.68,1.38.9,4.44.43,7.45-1.12,2.16-1.12,9.23-5.46,9.58-14.49a.58.58,0,0,1,.58-.54.56.56,0,0,1,.54.58c-.38,9.64-7.89,14.26-10.18,15.44A13.69,13.69,0,0,1,432.76,715.51Z" transform="translate(-370.53 -548.05)"/><path class="cls-2" d="M442.39,728.24a11.11,11.11,0,0,1-6.36-2.13.56.56,0,0,1,.15-1c17.91-6.75,19.67-21.9,17.72-27.77A.56.56,0,1,1,455,697c2,6.08.34,21.54-17.36,28.76a9.53,9.53,0,0,0,6.47,1.16c3.21-.66,6.06-3.21,8.46-7.59a.56.56,0,1,1,1,.54c-2.57,4.69-5.68,7.43-9.24,8.15A9.53,9.53,0,0,1,442.39,728.24Z" transform="translate(-370.53 -548.05)"/><path class="cls-2" d="M442.35,695.8h-.05a.56.56,0,0,1-.51-.61,16.16,16.16,0,0,0-2.57-9.57c-2.32-3.37-7.27-5.85-12.6-6.3-6.71-.57-13.28,2-18.5,7.36a.56.56,0,0,1-.8-.78c5.46-5.57,12.35-8.3,19.39-7.69,5.65.49,10.92,3.15,13.42,6.78a17,17,0,0,1,2.77,10.31A.56.56,0,0,1,442.35,695.8Z" transform="translate(-370.53 -548.05)"/><path class="cls-2" d="M402.06,741.67a.56.56,0,0,1,.56.56V774.9c0,8.84.22,13.1,5.18,13.44a4.52,4.52,0,0,0,4.72-4.26c.13-1.21-.23-2.69-1.67-2.9a2.63,2.63,0,0,0-2.23.42,2,2,0,0,0-.31,1.57.56.56,0,0,1-1.09.25,3.09,3.09,0,0,1,.58-2.58,3.47,3.47,0,0,1,3.21-.77c1.8.26,2.86,1.92,2.63,4.13a5.6,5.6,0,0,1-5.91,5.26c-6.22-.42-6.22-6.35-6.22-14.56V742.23A.56.56,0,0,1,402.06,741.67Z" transform="translate(-370.53 -548.05)"/><path class="cls-2" d="M396.59,741.67a.56.56,0,0,0-.56.56V774.9c0,8.84-.22,13.1-5.18,13.44a4.53,4.53,0,0,1-4.72-4.26c-.13-1.21.23-2.69,1.67-2.9a2.64,2.64,0,0,1,2.23.42,2,2,0,0,1,.31,1.57.56.56,0,0,0,1.09.25,3.09,3.09,0,0,0-.58-2.58,3.47,3.47,0,0,0-3.21-.77c-1.8.26-2.86,1.92-2.62,4.13a5.6,5.6,0,0,0,5.91,5.26c6.22-.42,6.22-6.35,6.22-14.56V742.23A.56.56,0,0,0,396.59,741.67Z" transform="translate(-370.53 -548.05)"/><path class="cls-2" d="M392.89,793.74a3.51,3.51,0,0,0,2.86-.95c2.14-1.82,3.58-5.71,3.58-9.68,0,4,1.44,7.87,3.58,9.68a3.51,3.51,0,0,0,2.86.95c3.23-.54,3.27-2.7,3.27-2.79h-1.12c-2.17.27-.08,1.32-2.33,1.7a2.5,2.5,0,0,1-1.95-.7c-1.88-1.59-3.63-5.56-4.31-10.79-.68,5.23-2.43,9.2-4.31,10.79a2.5,2.5,0,0,1-1.95.7c-2.25-.37-.16-1.43-2.33-1.7h-1.12C389.62,791,389.66,793.2,392.89,793.74Z" transform="translate(-370.53 -548.05)"/><path class="cls-2" d="M398.21,794.95l-.85,3.89,2,3.59,2-3.59-.85-3.89c1,3,3.73,1.34,3.73,1.34-1.56-.22-4.67-5.95-4.85-7.24-.18,1.3-3.29,7-4.85,7.24C394.47,796.28,397.18,798,398.21,794.95Z" transform="translate(-370.53 -548.05)"/><path class="cls-2" d="M414.62,634.64a.56.56,0,0,1-.56-.56V616.23a.56.56,0,0,1,.61-.56,11.3,11.3,0,0,0,3.74-.43c-6-6.39-18-10.05-25.49-8.9-4.35.67-7.63,2.64-9.25,5.52a8.58,8.58,0,0,0-.3,7.63,7.1,7.1,0,0,0,7.31,4.29c1.92-.19,3.33-1.12,3.58-2.37a4.79,4.79,0,0,0-2.29-5,.56.56,0,1,1,.54-1,5.94,5.94,0,0,1,2.85,6.2c-.35,1.75-2.14,3-4.57,3.26a8.21,8.21,0,0,1-8.45-5,9.68,9.68,0,0,1,.36-8.61c1.79-3.19,5.37-5.35,10.06-6.08,8.06-1.25,20.62,2.64,26.82,9.6a10.17,10.17,0,0,0,6-7,17,17,0,0,0-3.08-15.25,10.52,10.52,0,0,0-9.6-3.71c-1.8.24-3,1-3.52,2.26a3.84,3.84,0,0,0,.61,3.7,2.52,2.52,0,0,0,2.36,1.05.56.56,0,0,1,.17,1.11,3.61,3.61,0,0,1-3.41-1.46,4.93,4.93,0,0,1-.77-4.82,5.15,5.15,0,0,1,4.41-2.95,11.57,11.57,0,0,1,10.59,4.09,18.15,18.15,0,0,1,3.31,16.29,11.23,11.23,0,0,1-6.34,7.59,16.28,16.28,0,0,1,1,1.44A11.58,11.58,0,0,1,422.45,628a11.37,11.37,0,0,1-7.72,6.64Zm.56-17.84v16.56a10.37,10.37,0,0,0,6.24-5.8c.93-2.2,1.5-5.69-1.08-9.82a15,15,0,0,0-1.16-1.61A13.48,13.48,0,0,1,415.18,616.8Z" transform="translate(-370.53 -548.05)"/><path class="cls-2" d="M396.61,744.77a.56.56,0,0,1-.56-.56v-159a48.6,48.6,0,0,1-10,2c2.47,1.66,6.93,5.19,7.2,9.19.18,2.65-1,3.26-1.67,3.38a3.38,3.38,0,0,1-3.37-2.12.56.56,0,0,1,1.07-.32,2.37,2.37,0,0,0,2.09,1.34c.77-.14.8-1.44.75-2.2-.33-4.83-8.16-9.24-8.24-9.28a.56.56,0,0,1-.27-.63.59.59,0,0,1,.55-.41c5.31.09,12.2-2.17,12.27-2.19a.57.57,0,0,1,.5.08.56.56,0,0,1,.23.45V744.21A.56.56,0,0,1,396.61,744.77Z" transform="translate(-370.53 -548.05)"/><path class="cls-2" d="M402.05,744.77a.56.56,0,0,1-.56-.56V581.88a.56.56,0,0,1,.46-.55,46.49,46.49,0,0,0,29.57-23.47.56.56,0,0,1,1.05.26V607.3h0v0h0a.56.56,0,0,1-1.12,0h0c0-.19-.17-18.84-14-22.71-3.91-1.1-7.44-.45-9.71,1.76s-3,5.55-2,9.26c.9,3.5,3,4.53,4.61,4.78a7.24,7.24,0,0,0,6.68-2.81.56.56,0,1,1,1,.59,8.35,8.35,0,0,1-7.8,3.33c-2.75-.42-4.71-2.41-5.53-5.6-1.05-4.11-.21-7.88,2.31-10.34s6.49-3.24,10.79-2c8.53,2.39,12.14,10,13.66,16V560.26a47.82,47.82,0,0,1-28.84,22.08V744.21A.56.56,0,0,1,402.05,744.77Z" transform="translate(-370.53 -548.05)"/><path class="cls-2" d="M407.73,686.84a.56.56,0,0,1-.56-.56V611.13a.56.56,0,0,1,.42-.54c11.56-2.89,11.68-6.29,11.68-6.32a.57.57,0,0,1,.54-.57.54.54,0,0,1,.58.5c0,.43,0,4.26-12.1,7.37v74.72A.56.56,0,0,1,407.73,686.84Z" transform="translate(-370.53 -548.05)"/><path class="cls-2" d="M448.13,732.51a.56.56,0,0,1-.29-.08c-2.42-1.47-2.29-4.5-1.88-5.9a.56.56,0,0,1,1.08.31c0,.13-.81,2.93,1.05,4.4a42.9,42.9,0,0,0,3.86-3.92c8.09-9.55,9.28-25,9.29-25.15a.55.55,0,0,1,.6-.52.56.56,0,0,1,.52.6c0,.65-1.23,16-9.55,25.79a43.53,43.53,0,0,1-4.31,4.33A.56.56,0,0,1,448.13,732.51Z" transform="translate(-370.53 -548.05)"/><path class="cls-2" d="M471.33,740.65l-.17,0c-.27-.08-6.61-2.11-7.31-6.23A20.53,20.53,0,0,1,464,728,20.3,20.3,0,0,1,453,735a.56.56,0,0,1-.64-.77c0-.07,3-6.79,3.3-12.33a.55.55,0,0,1,.59-.53.56.56,0,0,1,.53.59,41.14,41.14,0,0,1-2.94,11.65,19.18,19.18,0,0,0,10.86-8.56.56.56,0,0,1,1,.4c0,.05-1.36,5.06-.73,8.72.46,2.71,4.21,4.45,5.81,5.08v-75a.56.56,0,1,1,1.12,0v75.76a.56.56,0,0,1-.56.56Z" transform="translate(-370.53 -548.05)"/><path class="cls-2" d="M460.25,726.42a.55.55,0,0,1-.23-.05.56.56,0,0,1-.28-.74c.11-.23,10.39-22.95.9-29.38a10.78,10.78,0,0,0-14.48,1.33.56.56,0,0,1-.84-.74c.07-.08,6.91-7.64,16-1.51,10.27,7-.07,29.8-.51,30.77A.56.56,0,0,1,460.25,726.42Z" transform="translate(-370.53 -548.05)"/><path class="cls-2" d="M514.57,691.56c-5,0-9.06-2.23-11.19-6.11a10.24,10.24,0,0,1-.06-10.26c2.19-3.44,7-4.17,10.3-2.89,2.67,1,4,3.1,3.62,5.56a5.62,5.62,0,0,1-2.41,4,7.31,7.31,0,0,1-5.31.66.56.56,0,0,1,.29-1.08,6.25,6.25,0,0,0,4.42-.53,4.56,4.56,0,0,0,1.9-3.27c.45-2.73-1.89-3.94-2.91-4.33-2.92-1.12-7.08-.51-9,2.44a9.11,9.11,0,0,0,.09,9.12c1.93,3.51,5.65,5.53,10.21,5.53,5.08,0,9.9-4,12-10,1.89-5.42,1.54-13.11-5.14-18.42-5.5-4.37-13.38-4.62-20.07-.64-5.62,3.34-11,10.27-9.37,19.69a.56.56,0,1,1-1.1.19c-1.76-10,4-17.31,9.9-20.85,7.1-4.23,15.48-3.94,21.34.72,7.14,5.68,7.52,13.88,5.5,19.67C525.37,687.25,520.13,691.56,514.57,691.56Z" transform="translate(-370.53 -548.05)"/><path class="cls-2" d="M494.23,680.52h0a.56.56,0,0,1-.54-.58c.38-9.64,7.89-14.26,10.18-15.44,3.46-1.79,6.82-2.2,8.57-1.06,4.17,2.72,2,6.18,2,6.22a.56.56,0,0,1-.95-.6c.16-.27,1.48-2.62-1.69-4.68-1.37-.9-4.44-.43-7.45,1.12-2.16,1.12-9.23,5.46-9.58,14.49A.56.56,0,0,1,494.23,680.52Z" transform="translate(-370.53 -548.05)"/><path class="cls-2" d="M488.19,681.67a.56.56,0,0,1-.53-.38c-2-6.08-.34-21.54,17.36-28.76a9.54,9.54,0,0,0-6.47-1.16c-3.21.66-6.06,3.21-8.46,7.59a.56.56,0,1,1-1-.54c2.57-4.69,5.68-7.43,9.24-8.15a10.82,10.82,0,0,1,8.25,1.94.56.56,0,0,1-.15,1c-17.91,6.75-19.67,21.89-17.72,27.77a.56.56,0,0,1-.36.71A.53.53,0,0,1,488.19,681.67Z" transform="translate(-370.53 -548.05)"/><path class="cls-2" d="M517.83,700.19q-1,0-1.93-.08c-5.65-.49-10.92-3.15-13.42-6.78A17,17,0,0,1,499.71,683a.56.56,0,0,1,1.12.1,16.16,16.16,0,0,0,2.57,9.57c2.32,3.37,7.27,5.85,12.6,6.3,6.71.58,13.28-2,18.5-7.36a.56.56,0,1,1,.8.78A24.4,24.4,0,0,1,517.83,700.19Z" transform="translate(-370.53 -548.05)"/><path class="cls-2" d="M540.56,636.63a.56.56,0,0,1-.56-.56V603.41c0-8.84-.22-13.1-5.18-13.44a4.53,4.53,0,0,0-4.72,4.26c-.13,1.21.23,2.69,1.67,2.9a2.63,2.63,0,0,0,2.23-.42,2,2,0,0,0,.31-1.57.56.56,0,0,1,1.09-.25,3.09,3.09,0,0,1-.58,2.58,3.47,3.47,0,0,1-3.21.77c-1.8-.26-2.86-1.91-2.62-4.12a5.6,5.6,0,0,1,5.91-5.26c6.22.42,6.22,6.35,6.22,14.56v32.66A.56.56,0,0,1,540.56,636.63Z" transform="translate(-370.53 -548.05)"/><path class="cls-2" d="M546,636.63a.56.56,0,0,0,.56-.56V603.41c0-8.84.22-13.1,5.18-13.44a4.53,4.53,0,0,1,4.72,4.26c.13,1.21-.23,2.69-1.67,2.9a2.63,2.63,0,0,1-2.23-.42,2,2,0,0,1-.31-1.57.56.56,0,0,0-1.09-.25,3.09,3.09,0,0,0,.58,2.58,3.47,3.47,0,0,0,3.21.77c1.8-.26,2.86-1.91,2.62-4.12a5.6,5.6,0,0,0-5.91-5.26c-6.22.42-6.22,6.35-6.22,14.56v32.66A.56.56,0,0,0,546,636.63Z" transform="translate(-370.53 -548.05)"/><path class="cls-2" d="M549.73,584.56a3.5,3.5,0,0,0-2.86.95c-2.14,1.82-3.58,5.71-3.58,9.68,0-4-1.44-7.87-3.58-9.68a3.5,3.5,0,0,0-2.86-.95c-3.23.54-3.27,2.7-3.27,2.79h1.12c2.17-.27.08-1.32,2.33-1.7a2.51,2.51,0,0,1,1.95.7c1.87,1.59,3.63,5.56,4.31,10.79.68-5.22,2.43-9.2,4.31-10.79a2.5,2.5,0,0,1,1.95-.7c2.25.38.16,1.43,2.33,1.7H553C553,587.26,553,585.1,549.73,584.56Z" transform="translate(-370.53 -548.05)"/><path class="cls-2" d="M544.41,583.36l.85-3.89-2-3.59-2,3.59.85,3.89c-1-3-3.73-1.34-3.73-1.34,1.56.22,4.67,5.95,4.85,7.24.18-1.3,3.29-7,4.85-7.24C548.14,582,545.44,580.31,544.41,583.36Z" transform="translate(-370.53 -548.05)"/><path class="cls-2" d="M528.22,790.69a11.6,11.6,0,0,1-8.92-4.2A18.15,18.15,0,0,1,516,770.19a11.22,11.22,0,0,1,6.34-7.59,16,16,0,0,1-1-1.44,11.58,11.58,0,0,1-1.16-10.85,11.37,11.37,0,0,1,7.72-6.64.55.55,0,0,1,.47.11.56.56,0,0,1,.21.44v17.85a.56.56,0,0,1-.18.41.58.58,0,0,1-.43.15,11.23,11.23,0,0,0-3.74.43c6,6.39,18,10.05,25.49,8.9,4.35-.67,7.63-2.64,9.25-5.52a8.58,8.58,0,0,0,.3-7.63,7.1,7.1,0,0,0-7.31-4.29c-1.92.19-3.33,1.12-3.58,2.37a4.79,4.79,0,0,0,2.29,5,.56.56,0,1,1-.54,1,5.94,5.94,0,0,1-2.85-6.2c.35-1.74,2.14-3,4.57-3.26a8.22,8.22,0,0,1,8.45,5,9.67,9.67,0,0,1-.36,8.61c-1.79,3.19-5.37,5.35-10.06,6.08-8.06,1.25-20.62-2.64-26.82-9.6a10.17,10.17,0,0,0-6,7,17,17,0,0,0,3.08,15.25,10.51,10.51,0,0,0,9.6,3.71c1.8-.24,3-1,3.52-2.26a3.85,3.85,0,0,0-.61-3.7,2.51,2.51,0,0,0-2.36-1.05.56.56,0,1,1-.17-1.11,3.63,3.63,0,0,1,3.41,1.46,4.93,4.93,0,0,1,.77,4.82,5.15,5.15,0,0,1-4.41,2.95A12.3,12.3,0,0,1,528.22,790.69Zm-.78-45.74a10.37,10.37,0,0,0-6.24,5.8c-.93,2.2-1.5,5.69,1.08,9.82a15,15,0,0,0,1.16,1.61,13.52,13.52,0,0,1,4-.67Z" transform="translate(-370.53 -548.05)"/><path class="cls-2" d="M546,794.41a.56.56,0,0,1-.56-.56V634.1a.56.56,0,0,1,1.12,0v159a48.61,48.61,0,0,1,10-2c-2.47-1.66-6.93-5.19-7.2-9.19-.18-2.65,1-3.25,1.66-3.38a3.39,3.39,0,0,1,3.37,2.12.56.56,0,1,1-1.07.32,2.37,2.37,0,0,0-2.09-1.34c-.77.14-.8,1.44-.75,2.21.33,4.83,8.16,9.24,8.24,9.28a.56.56,0,0,1,.27.63.54.54,0,0,1-.55.42c-5.32-.11-12.2,2.17-12.27,2.19Z" transform="translate(-370.53 -548.05)"/><path class="cls-2" d="M510.61,820.74l-.14,0a.56.56,0,0,1-.42-.54V771h0v0h0a.56.56,0,0,1,1.12,0h0c0,.19.17,18.84,14,22.71,3.91,1.1,7.44.46,9.71-1.76s3-5.55,2-9.26c-.9-3.5-3-4.53-4.61-4.78a7.24,7.24,0,0,0-6.68,2.81.56.56,0,1,1-1-.59,8.32,8.32,0,0,1,7.8-3.33c2.75.42,4.71,2.41,5.53,5.61,1.05,4.11.21,7.88-2.31,10.34s-6.49,3.24-10.8,2c-8.53-2.39-12.14-10-13.66-16V818A47.82,47.82,0,0,1,540,796V634.1a.56.56,0,0,1,1.12,0V796.42a.56.56,0,0,1-.46.55,46.49,46.49,0,0,0-29.57,23.47A.56.56,0,0,1,510.61,820.74Z" transform="translate(-370.53 -548.05)"/><path class="cls-2" d="M522.78,774.61a.55.55,0,0,1-.56-.5c0-.43,0-4.26,12.1-7.37V692a.56.56,0,0,1,1.12,0v75.15a.56.56,0,0,1-.42.54c-11.56,2.89-11.68,6.29-11.68,6.32a.57.57,0,0,1-.54.57Z" transform="translate(-370.53 -548.05)"/><path class="cls-2" d="M480.82,676.66h0a.56.56,0,0,1-.52-.6c0-.65,1.23-16,9.55-25.79a43.67,43.67,0,0,1,4.31-4.34.56.56,0,0,1,.66-.05c2.42,1.47,2.29,4.5,1.88,5.9a.56.56,0,0,1-1.08-.31c0-.12.81-2.93-1.05-4.4a43.09,43.09,0,0,0-3.86,3.93c-8.09,9.55-9.28,25-9.29,25.15A.56.56,0,0,1,480.82,676.66Z" transform="translate(-370.53 -548.05)"/><path class="cls-2" d="M471.29,714.54a.56.56,0,0,1-.56-.56V638.22a.56.56,0,0,1,.73-.53c.27.08,6.61,2.11,7.31,6.23a20.6,20.6,0,0,1-.17,6.38,20.3,20.3,0,0,1,11.06-7,.56.56,0,0,1,.64.77c0,.07-3,6.79-3.29,12.33a.55.55,0,0,1-.59.53.56.56,0,0,1-.53-.59,41.12,41.12,0,0,1,2.94-11.65A19.18,19.18,0,0,0,478,653.22a.56.56,0,0,1-1-.4c0-.05,1.36-5.06.73-8.72-.46-2.71-4.21-4.45-5.81-5.08v75A.56.56,0,0,1,471.29,714.54Z" transform="translate(-370.53 -548.05)"/><path class="cls-2" d="M488.5,685.38a12.63,12.63,0,0,1-7.15-2.39c-10.27-7,.07-29.8.51-30.77a.56.56,0,0,1,1,.47c-.1.23-10.39,22.95-.9,29.38a10.79,10.79,0,0,0,14.48-1.33.56.56,0,0,1,.84.74A12.83,12.83,0,0,1,488.5,685.38Z" transform="translate(-370.53 -548.05)"/><path class="cls-2" d="M446,697.67a.56.56,0,0,1-.53-.39,27.08,27.08,0,0,1,25.82-35.19.56.56,0,0,1,0,1.12,26,26,0,0,0-24.75,33.73.56.56,0,0,1-.37.7Z" transform="translate(-370.53 -548.05)"/><path class="cls-2" d="M471.31,716.21a.56.56,0,1,1,0-1.12,26,26,0,0,0,24.75-33.73.56.56,0,0,1,1.07-.34,27.08,27.08,0,0,1-25.82,35.19Z" transform="translate(-370.53 -548.05)"/><path class="cls-2" d="M415.83,678.3h-.11a.56.56,0,0,1-.44-.66,57.36,57.36,0,0,1,56-45.67.56.56,0,0,1,0,1.12,56.24,56.24,0,0,0-54.94,44.77A.56.56,0,0,1,415.83,678.3Z" transform="translate(-370.53 -548.05)"/><path class="cls-2" d="M471.31,746.35a.56.56,0,1,1,0-1.12,56.24,56.24,0,0,0,54.93-44.77.56.56,0,1,1,1.1.23A57.36,57.36,0,0,1,471.31,746.35Z" transform="translate(-370.53 -548.05)"/><path class="cls-2" d="M528,762.64a.56.56,0,0,1-.44-.22L414.17,616.57a.56.56,0,0,1,.88-.69L528.44,761.73a.56.56,0,0,1-.1.79A.55.55,0,0,1,528,762.64Z" transform="translate(-370.53 -548.05)"/><path class="cls-2" d="M562,820.74H380.61a.56.56,0,0,1-.56-.56v-26.4a.56.56,0,0,1,.55-.56.54.54,0,0,1,.57.53c0,.15.78,15,6.26,18.55,2.11,1.36,3.83,1.34,4.85-.06s.85-3.27.09-3.89a.56.56,0,0,1,.35-1H502.29a.56.56,0,1,1,0,1.12H393.8a4.79,4.79,0,0,1-.61,4.42c-.52.71-2.5,2.83-6.36.34-3-2-4.72-6.77-5.65-11.12v17.5h180.3V798.25c-20.75,1.47-30.94,9.05-33.92,11.72H548v-4.48a.56.56,0,1,1,1.12,0v5a.56.56,0,0,1-.56.56h-22.4a.56.56,0,0,1-.42-.93c.4-.46,10.19-11.39,36.24-13.07a.56.56,0,0,1,.6.56v22.53A.56.56,0,0,1,562,820.74Z" transform="translate(-370.53 -548.05)"/><path class="cls-2" d="M562,585.08a.56.56,0,0,1-.56-.53c0-.15-.78-15-6.26-18.55-2.11-1.36-3.83-1.34-4.85.06s-.85,3.27-.09,3.89a.56.56,0,0,1-.35,1H440.35a.56.56,0,1,1,0-1.12H548.84a4.79,4.79,0,0,1,.61-4.42c.52-.71,2.5-2.83,6.36-.34,3,2,4.72,6.77,5.65,11.12v-17.5H381.17v21.37c20.75-1.47,30.94-9.05,33.92-11.72H394.62v4.48a.56.56,0,1,1-1.12,0v-5a.56.56,0,0,1,.56-.56h22.4a.56.56,0,0,1,.42.93c-.4.46-10.19,11.39-36.24,13.07a.53.53,0,0,1-.42-.15.56.56,0,0,1-.18-.41V558.13a.56.56,0,0,1,.56-.56H562a.56.56,0,0,1,.56.56v26.4a.56.56,0,0,1-.55.56Z" transform="translate(-370.53 -548.05)"/></svg>