<svg id="Layer_1" data-name="Layer 1" xmlns="http://www.w3.org/2000/svg" viewBox="0 0 201.58 282.21"><defs><style>.cls-1{fill:#14110d;}.cls-2,.cls-3{fill:#fff;}.cls-3{stroke:#a3192f;stroke-linecap:round;stroke-miterlimit:10;stroke-width:1.12px;}</style></defs><title>cards_back_4</title><path class="cls-1" d="M343.59,160A10.08,10.08,0,0,0,333.51,150H152.08A10.08,10.08,0,0,0,142,160h0V422.1a10.08,10.08,0,0,0,10.08,10.08H333.51a10.08,10.08,0,0,0,10.08-10.08V160Z" transform="translate(-142 -149.96)"/><path class="cls-2" d="M332.95,226.92c-2.17-31.93-13.53-46.5-16.5-49.81-3.31-3-17.89-14.34-49.81-16.5l0-1.12h51.8l-1.07,1a13.33,13.33,0,0,0-1.62,1.91h7.94v-2.88h10.34v10.34h-2.88v7.94a13.33,13.33,0,0,0,1.91-1.62l1-1.07v51.8Zm-14.67-49.37c3.55,4.4,11.39,16.3,14.67,38.72V177.82a16.66,16.66,0,0,1-1.76,1.31v14.56l-1.11.1c-1-5.47-5.69-12.51-5.73-12.58l-.51-.77.92-.1a13.32,13.32,0,0,0,5.32-1.85v-8.67h-4.69l5.81-6.8v5.68h1.76v-8.1h-8.1v1.76h5.68l-6.8,5.81v-4.69h-8.67a13.33,13.33,0,0,0-1.85,5.32l-.1.92-.77-.51c-.07,0-7.12-4.73-12.58-5.73l.1-1.11h14.56a16.74,16.74,0,0,1,1.31-1.76H277.29c22.42,3.27,34.32,11.12,38.72,14.67l.33.17c-.75-3.53,0-7.83,1.59-9.35a1.94,1.94,0,0,1,2.4-.4,3.07,3.07,0,0,1,1.71,2,4.71,4.71,0,0,1-.9,3.39l-.9-.67a3.64,3.64,0,0,0,.71-2.48,2,2,0,0,0-1.13-1.3.84.84,0,0,0-1.09.21c-1.4,1.37-2,5.84-1.09,9,3.2.93,7.67.31,9-1.09a.84.84,0,0,0,.21-1.09,2,2,0,0,0-1.3-1.14,3.69,3.69,0,0,0-2.47.71l-.67-.9a4.72,4.72,0,0,1,3.39-.9,3.08,3.08,0,0,1,2,1.71,1.94,1.94,0,0,1-.4,2.4c-1.51,1.55-5.82,2.33-9.34,1.59Zm7.47,3.79a51.09,51.09,0,0,1,4.32,8.45v-10A14.49,14.49,0,0,1,325.75,181.33Zm2.06-12.63h2.26v-2.65Zm-24-5.22a51.2,51.2,0,0,1,8.45,4.32,14.49,14.49,0,0,1,1.53-4.32Zm21.07,0v2.26l2.65-2.26Z" transform="translate(-142 -149.96)"/><path class="cls-2" d="M218.92,422.66h-51.8l1.07-1a13.33,13.33,0,0,0,1.62-1.91h-7.94v2.88H151.52V412.32h2.88v-7.94A13.3,13.3,0,0,0,152.5,406l-1,1.07v-51.8l1.12,0c2.17,31.93,13.52,46.5,16.5,49.81,3.31,3,17.88,14.34,49.81,16.5Zm-49.06-1.12H208.3c-22.42-3.27-34.32-11.12-38.72-14.67l-.33-.17c.75,3.53,0,7.83-1.59,9.34a1.94,1.94,0,0,1-2.4.4,3.07,3.07,0,0,1-1.71-2,4.72,4.72,0,0,1,.9-3.39l.9.67a3.64,3.64,0,0,0-.71,2.48,2,2,0,0,0,1.13,1.3.84.84,0,0,0,1.09-.21c1.4-1.37,2-5.84,1.09-9-3.2-.93-7.67-.31-9,1.09a.84.84,0,0,0-.21,1.09,2,2,0,0,0,1.3,1.13,3.65,3.65,0,0,0,2.48-.71l.67.9a4.68,4.68,0,0,1-3.39.9,3.07,3.07,0,0,1-2-1.71,1.94,1.94,0,0,1,.4-2.4c1.51-1.55,5.82-2.33,9.34-1.59l-.17-.33c-3.55-4.4-11.39-16.3-14.67-38.72v38.44A16.73,16.73,0,0,1,154.4,403V388.45l1.11-.1c1,5.47,5.69,12.51,5.74,12.58l.51.77-.92.1a13.32,13.32,0,0,0-5.32,1.85v8.67h4.69l-5.81,6.8v-5.68h-1.76v8.1h8.1v-1.76h-5.68l6.8-5.81v4.69h8.67a13.32,13.32,0,0,0,1.85-5.32l.1-.92.77.51c.07,0,7.12,4.73,12.58,5.73l-.1,1.11H171.17A16.55,16.55,0,0,1,169.86,421.54Zm2-2.88h10a51,51,0,0,1-8.45-4.32A14.47,14.47,0,0,1,171.84,418.66Zm-13.74,0h2.65V416.4Zm-2.57-5.22v2.65l2.26-2.65Zm0-21.07v10a14.5,14.5,0,0,1,4.32-1.54A51.21,51.21,0,0,1,155.52,392.37Z" transform="translate(-142 -149.96)"/><path class="cls-2" d="M152.64,226.92l-1.12,0v-51.8l1,1.07a13.39,13.39,0,0,0,1.91,1.62v-7.94h-2.88V159.48h10.34v2.88h7.95a13.3,13.3,0,0,0-1.62-1.91l-1.07-1h51.81l0,1.12c-31.92,2.17-46.5,13.52-49.81,16.5C166.17,180.41,154.81,195,152.64,226.92Zm0-49.1v38.45c3.27-22.42,11.12-34.33,14.67-38.72l.17-.33c-3.53.75-7.83,0-9.35-1.59a1.94,1.94,0,0,1-.4-2.4,3.08,3.08,0,0,1,2-1.71,4.72,4.72,0,0,1,3.39.9l-.67.9a3.59,3.59,0,0,0-2.48-.71,2,2,0,0,0-1.3,1.13.83.83,0,0,0,.21,1.09c1.37,1.4,5.84,2,9,1.09.93-3.2.31-7.67-1.09-9a.84.84,0,0,0-1.09-.21,2,2,0,0,0-1.13,1.3,3.63,3.63,0,0,0,.71,2.48l-.9.67a4.7,4.7,0,0,1-.9-3.39,3.07,3.07,0,0,1,1.71-2,1.94,1.94,0,0,1,2.4.4c1.55,1.51,2.33,5.82,1.59,9.35l.33-.17c4.4-3.55,16.3-11.39,38.72-14.67H169.86a16.75,16.75,0,0,1,1.31,1.76h14.56l.1,1.11c-5.47,1-12.51,5.69-12.58,5.73l-.77.51-.1-.92a13.33,13.33,0,0,0-1.84-5.32h-8.68v4.69l-6.8-5.81h5.68V160.6h-8.1v8.1h1.76V163l5.81,6.8h-4.69v8.67a13.33,13.33,0,0,0,5.32,1.85l.92.1-.51.77c0,.07-4.73,7.12-5.73,12.58l-1.11-.1V179.13A16.74,16.74,0,0,1,152.64,177.82Zm2.88,2v10a51.09,51.09,0,0,1,4.32-8.45A14.49,14.49,0,0,1,155.52,179.79Zm0-11.09h2.26l-2.26-2.65Zm16.31-5.22a14.5,14.5,0,0,1,1.54,4.32,51.16,51.16,0,0,1,8.45-4.32Zm-13.74,0,2.65,2.26v-2.26Z" transform="translate(-142 -149.96)"/><path class="cls-2" d="M334.07,422.66H323.73v-2.88h-7.95a13.36,13.36,0,0,0,1.62,1.91l1.07,1H266.67l0-1.12c31.93-2.17,46.5-13.53,49.81-16.5,3-3.31,14.34-17.89,16.5-49.81l1.12,0v51.8l-1-1.07a13.35,13.35,0,0,0-1.91-1.62v7.94h2.88Zm-9.22-1.12h8.1v-8.1h-1.76v5.68l-5.81-6.8h4.69v-8.67a13.32,13.32,0,0,0-5.32-1.85l-.92-.1.51-.77c0-.07,4.73-7.12,5.73-12.58l1.11.1V403a16.62,16.62,0,0,1,1.76,1.31V365.88c-3.27,22.42-11.12,34.32-14.67,38.72l-.17.33c3.53-.75,7.83,0,9.35,1.59a1.94,1.94,0,0,1,.4,2.4,3.07,3.07,0,0,1-2,1.71,4.68,4.68,0,0,1-3.39-.9l.67-.9a3.64,3.64,0,0,0,2.48.71,2,2,0,0,0,1.3-1.13.84.84,0,0,0-.21-1.09c-1.37-1.4-5.84-2-9-1.09-.93,3.2-.31,7.67,1.09,9a.84.84,0,0,0,1.09.21,2,2,0,0,0,1.13-1.3,3.64,3.64,0,0,0-.71-2.48l.9-.67a4.71,4.71,0,0,1,.9,3.39,3.07,3.07,0,0,1-1.71,2,1.94,1.94,0,0,1-2.4-.4c-1.55-1.51-2.33-5.82-1.58-9.34l-.33.17c-4.4,3.55-16.3,11.39-38.72,14.67h38.44a16.55,16.55,0,0,1-1.31-1.76H299.86l-.1-1.11c5.47-1,12.51-5.68,12.58-5.73l.77-.51.1.92a13.32,13.32,0,0,0,1.84,5.32h8.68V414l6.8,5.81h-5.68Zm0-2.88h2.65l-2.65-2.26Zm-21.07,0h10a14.47,14.47,0,0,1-1.53-4.32A51,51,0,0,1,303.78,418.66Zm24-5.22,2.26,2.65v-2.65Zm-2.06-12.63a14.5,14.5,0,0,1,4.32,1.54v-10A51.12,51.12,0,0,1,325.75,400.81Z" transform="translate(-142 -149.96)"/><path class="cls-2" d="M274.88,332.69c-4.24,0-9.29-2.34-14.25-6.85-7.41-6.72-9.47-16-9.87-18.25h-8a.56.56,0,1,1,0-1.12h8.92l.07.48c0,.11,1.61,10.82,9.6,18.06,7.51,6.82,15.11,8.48,19.35,4.24a2.93,2.93,0,0,0,.62-3,3.71,3.71,0,0,0-2.6-2.61c-1.13-.22-2.28.32-3.33,1.58a.56.56,0,1,1-.86-.71c1.3-1.58,2.87-2.28,4.41-2a4.77,4.77,0,0,1,3.45,3.38,4,4,0,0,1-.9,4.13A9.12,9.12,0,0,1,274.88,332.69Z" transform="translate(-142 -149.96)"/><path class="cls-2" d="M242.82,350.52h0a.56.56,0,0,1-.55-.56.52.52,0,0,1,.57-.56c.23,0,24.1,0,34.66-18.08a.56.56,0,0,1,1,.56C267.71,350.3,243.76,350.52,242.82,350.52Z" transform="translate(-142 -149.96)"/><path class="cls-2" d="M242.79,343.24a.56.56,0,0,1,0-1.12c.19,0,19.52-1.46,26.3-11.45a.56.56,0,0,1,.93.63c-7.08,10.45-26.33,11.89-27.15,11.94Z" transform="translate(-142 -149.96)"/><path class="cls-2" d="M292.52,319.6a6,6,0,0,1-5.52-3.37,4.24,4.24,0,0,1,1.69-5.59,3.63,3.63,0,0,1,4.14,0,3.55,3.55,0,0,1,1.69,3.11.56.56,0,0,1-1.1-.22,2.59,2.59,0,0,0-1.23-2,2.48,2.48,0,0,0-2.91,0,3.14,3.14,0,0,0-1.26,4.18c.84,1.85,3.19,3.39,6.36,2.42s4.52-4.8,4.06-7.88-2.85-6.55-8.11-6.55H242.8a.56.56,0,1,1,0-1.12h47.53c6,0,8.68,3.88,9.22,7.5.62,4.16-1.46,8.08-4.84,9.12A7.54,7.54,0,0,1,292.52,319.6Z" transform="translate(-142 -149.96)"/><path class="cls-2" d="M210.71,332.69a9.1,9.1,0,0,1-6.64-2.65,4,4,0,0,1-.9-4.13,4.77,4.77,0,0,1,3.45-3.38c1.54-.31,3.11.39,4.41,2a.56.56,0,1,1-.86.71c-1-1.26-2.19-1.81-3.33-1.58a3.71,3.71,0,0,0-2.6,2.61,2.93,2.93,0,0,0,.63,3c4.24,4.24,11.84,2.58,19.35-4.24,8-7.25,9.58-18,9.6-18.06l.07-.48h8.92a.56.56,0,0,1,0,1.12h-8c-.4,2.23-2.46,11.53-9.87,18.25C220,330.35,214.95,332.69,210.71,332.69Z" transform="translate(-142 -149.96)"/><path class="cls-2" d="M242.78,350.52c-.94,0-24.89-.22-35.62-18.64a.56.56,0,0,1,1-.56c9.65,16.58,30.45,18,34.11,18.08V297.64a.56.56,0,0,1,1.12,0v52.88h-.58Z" transform="translate(-142 -149.96)"/><path class="cls-2" d="M242.8,343.24h0c-.82-.05-20.07-1.49-27.15-11.94a.56.56,0,0,1,.93-.63c6.78,10,26.1,11.44,26.3,11.45a.56.56,0,0,1,0,1.12Z" transform="translate(-142 -149.96)"/><path class="cls-2" d="M193.07,319.6a7.53,7.53,0,0,1-2.19-.34c-3.38-1-5.46-5-4.84-9.12.54-3.63,3.25-7.5,9.22-7.5H242.8a.56.56,0,0,1,0,1.12H195.26c-5.26,0-7.64,3.38-8.11,6.55s.81,6.89,4.06,7.88,5.52-.58,6.36-2.42a3.14,3.14,0,0,0-1.26-4.18,2.49,2.49,0,0,0-2.9,0,2.6,2.6,0,0,0-1.23,2,.56.56,0,1,1-1.1.22,3.55,3.55,0,0,1,1.69-3.11,3.63,3.63,0,0,1,4.13,0,4.24,4.24,0,0,1,1.69,5.59A6,6,0,0,1,193.07,319.6Z" transform="translate(-142 -149.96)"/><path class="cls-2" d="M298.76,298.2H186.83a.56.56,0,0,1,0-1.12H298.76a.56.56,0,0,1,0,1.12Z" transform="translate(-142 -149.96)"/><path class="cls-2" d="M251.23,321.83H234.36a.56.56,0,1,1,0-1.12h16.87a.56.56,0,1,1,0,1.12Z" transform="translate(-142 -149.96)"/><path class="cls-2" d="M242.8,275.67h-8.92l-.07-.48c0-.11-1.61-10.82-9.6-18.06-7.51-6.81-15.11-8.48-19.35-4.23a2.93,2.93,0,0,0-.62,3,3.7,3.7,0,0,0,2.6,2.61c1.14.23,2.28-.32,3.33-1.58a.56.56,0,0,1,.86.71c-1.3,1.58-2.87,2.28-4.41,2a4.78,4.78,0,0,1-3.45-3.38,4,4,0,0,1,.9-4.13c4.7-4.7,12.9-3.05,20.9,4.2,7.41,6.72,9.47,16,9.87,18.25h8a.56.56,0,0,1,0,1.12Z" transform="translate(-142 -149.96)"/><path class="cls-2" d="M207.64,251.1a.55.55,0,0,1-.28-.08.56.56,0,0,1-.2-.76c10.89-18.69,35.4-18.64,35.64-18.64a.56.56,0,0,1,.55.57.6.6,0,0,1-.57.55c-.22,0-24.1,0-34.66,18.08A.56.56,0,0,1,207.64,251.1Z" transform="translate(-142 -149.96)"/><path class="cls-2" d="M216.07,251.72a.56.56,0,0,1-.46-.87c7.08-10.45,26.33-11.89,27.15-11.94a.57.57,0,0,1,.6.52.56.56,0,0,1-.52.6c-.19,0-19.52,1.46-26.3,11.45A.56.56,0,0,1,216.07,251.72Z" transform="translate(-142 -149.96)"/><path class="cls-2" d="M242.8,279.5H195.26c-6,0-8.68-3.88-9.22-7.5-.62-4.17,1.46-8.09,4.84-9.12a6.22,6.22,0,0,1,7.71,3,4.24,4.24,0,0,1-1.69,5.59,3.62,3.62,0,0,1-4.13,0,3.55,3.55,0,0,1-1.69-3.11.56.56,0,1,1,1.1.22,2.59,2.59,0,0,0,1.23,2,2.48,2.48,0,0,0,2.9,0,3.14,3.14,0,0,0,1.27-4.17c-.84-1.84-3.19-3.39-6.36-2.42s-4.52,4.8-4.06,7.88,2.85,6.55,8.11,6.55H242.8a.56.56,0,1,1,0,1.12Z" transform="translate(-142 -149.96)"/><path class="cls-2" d="M251.23,275.67H242.8a.56.56,0,1,1,0-1.12h8c.4-2.23,2.46-11.53,9.87-18.25,8-7.25,16.2-8.9,20.9-4.2a4,4,0,0,1,.9,4.13,4.78,4.78,0,0,1-3.45,3.38c-1.54.31-3.11-.39-4.41-2a.56.56,0,0,1,.86-.71c1,1.26,2.19,1.81,3.33,1.58a3.7,3.7,0,0,0,2.6-2.61,2.92,2.92,0,0,0-.62-3c-4.24-4.24-11.84-2.58-19.35,4.23-8,7.25-9.58,18-9.6,18.06l-.07.48Z" transform="translate(-142 -149.96)"/><path class="cls-2" d="M242.8,285.06a.56.56,0,0,1-.56-.56V231.62h.55c.2,0,24.75-.05,35.64,18.64a.56.56,0,0,1-1,.56c-9.65-16.58-30.45-18-34.11-18.07V284.5A.56.56,0,0,1,242.8,285.06Z" transform="translate(-142 -149.96)"/><path class="cls-2" d="M269.52,251.72a.56.56,0,0,1-.46-.25c-6.78-10-26.1-11.44-26.3-11.45a.56.56,0,0,1-.52-.6.57.57,0,0,1,.6-.52c.82.06,20.07,1.49,27.15,11.94a.56.56,0,0,1-.15.78A.55.55,0,0,1,269.52,251.72Z" transform="translate(-142 -149.96)"/><path class="cls-2" d="M290.33,279.5H242.8a.56.56,0,1,1,0-1.12h47.53c5.26,0,7.64-3.38,8.11-6.55s-.81-6.89-4.06-7.88-5.52.58-6.36,2.42a3.14,3.14,0,0,0,1.26,4.17,2.48,2.48,0,0,0,2.91,0,2.59,2.59,0,0,0,1.23-2,.56.56,0,0,1,1.1-.22,3.55,3.55,0,0,1-1.69,3.11,3.62,3.62,0,0,1-4.14,0,4.24,4.24,0,0,1-1.69-5.59,6.22,6.22,0,0,1,7.71-3c3.38,1,5.46,5,4.84,9.12C299,275.63,296.3,279.5,290.33,279.5Z" transform="translate(-142 -149.96)"/><path class="cls-2" d="M298.76,285.06H186.83a.56.56,0,0,1,0-1.12H298.76a.56.56,0,0,1,0,1.12Z" transform="translate(-142 -149.96)"/><path class="cls-2" d="M251.23,261.43H234.36a.56.56,0,0,1,0-1.12h16.87a.56.56,0,1,1,0,1.12Z" transform="translate(-142 -149.96)"/><path class="cls-2" d="M242.8,360.32A69.25,69.25,0,1,1,312,291.07,69.33,69.33,0,0,1,242.8,360.32Zm0-137.37a68.13,68.13,0,1,0,68.13,68.13A68.2,68.2,0,0,0,242.8,222.94Z" transform="translate(-142 -149.96)"/><path class="cls-2" d="M260.71,389.09a.56.56,0,0,1-.56-.56V357.4a.56.56,0,0,1,1.12,0v31.13A.56.56,0,0,1,260.71,389.09Z" transform="translate(-142 -149.96)"/><path class="cls-2" d="M260.71,225.31a.56.56,0,0,1-.56-.56V193.61a.56.56,0,1,1,1.12,0v31.13A.56.56,0,0,1,260.71,225.31Z" transform="translate(-142 -149.96)"/><path class="cls-2" d="M242.8,409.43a.56.56,0,0,1-.56-.56V359.76a.56.56,0,0,1,1.12,0v49.11A.56.56,0,0,1,242.8,409.43Z" transform="translate(-142 -149.96)"/><path class="cls-2" d="M242.8,222.94a.56.56,0,0,1-.56-.56V173.27a.56.56,0,0,1,1.12,0v49.12A.56.56,0,0,1,242.8,222.94Z" transform="translate(-142 -149.96)"/><path class="cls-2" d="M224.88,389.09a.56.56,0,0,1-.56-.56V357.4a.56.56,0,0,1,1.12,0v31.13A.56.56,0,0,1,224.88,389.09Z" transform="translate(-142 -149.96)"/><path class="cls-2" d="M224.88,225.31a.56.56,0,0,1-.56-.56V193.61a.56.56,0,1,1,1.12,0v31.13A.56.56,0,0,1,224.88,225.31Z" transform="translate(-142 -149.96)"/><path class="cls-2" d="M176.47,309.55H164.59a.56.56,0,0,1,0-1.12h11.88a.56.56,0,0,1,0,1.12Z" transform="translate(-142 -149.96)"/><path class="cls-2" d="M321,309.55H309.12a.56.56,0,0,1,0-1.12H321a.56.56,0,1,1,0,1.12Z" transform="translate(-142 -149.96)"/><path class="cls-2" d="M174.11,291.63H158.26a.56.56,0,0,1,0-1.12h15.85a.56.56,0,1,1,0,1.12Z" transform="translate(-142 -149.96)"/><path class="cls-3" d="M174.11,291.07" transform="translate(-142 -149.96)"/><path class="cls-2" d="M327.33,291.63H311.48a.56.56,0,0,1,0-1.12h15.85a.56.56,0,1,1,0,1.12Z" transform="translate(-142 -149.96)"/><path class="cls-2" d="M176.47,273.71H164.59a.56.56,0,0,1,0-1.12h11.88a.56.56,0,0,1,0,1.12Z" transform="translate(-142 -149.96)"/><path class="cls-2" d="M321,273.71H309.12a.56.56,0,0,1,0-1.12H321a.56.56,0,1,1,0,1.12Z" transform="translate(-142 -149.96)"/></svg>