<svg id="Layer_1" data-name="Layer 1" xmlns="http://www.w3.org/2000/svg" viewBox="0 0 201.58 282.21"><defs><style>.cls-1{fill:#14110d;}.cls-2{fill:#fff;}</style></defs><title>cards_back_1</title><path class="cls-1" d="M1025.18,159.44a10.08,10.08,0,0,0-10.08-10.08H833.68a10.08,10.08,0,0,0-10.08,10.08h0V421.5a10.08,10.08,0,0,0,10.08,10.08H1015.1a10.08,10.08,0,0,0,10.08-10.08V159.44Z" transform="translate(-823.6 -149.36)"/><path class="cls-2" d="M1015.1,291a.56.56,0,0,1-.56-.56v-12.6l-5.68-9.52a.56.56,0,0,1-.08-.29v-8.68a.56.56,0,0,1,.56-.56h2.19V233.3a37.08,37.08,0,0,1-2.64-3.16v2.93a.56.56,0,0,1-.88.46c-6-4.23-8.6-13.28-7.51-19.23.6-3.31,2.29-5.48,4.75-6.11a5.51,5.51,0,0,1,4.71.7c2.11,1.47,3,4.31,3.36,5.95.94-1.42,2.15-4.45-.68-8.54-2-2.88-4.85-4-7.87-5.08-3.9-1.46-7.94-3-9.89-8.6-.92-2.66-.16-6.15,1.94-8.89a11.18,11.18,0,0,1,9.85-4.36,9.54,9.54,0,0,1,8.73,7.4c.81,3.41-.38,6.63-3,8.22a5.2,5.2,0,0,1-6.36-.32,5.42,5.42,0,0,1-1.72-5.92,3.85,3.85,0,0,1,3.94-2.68,2.15,2.15,0,0,1,2,1.71c.26,1.68-1.3,2.58-2.16,2.82a.56.56,0,0,1-.31-1.08c.06,0,1.53-.46,1.36-1.57a1.09,1.09,0,0,0-1-.77,2.75,2.75,0,0,0-2.77,2,4.34,4.34,0,0,0,1.41,4.65,4.13,4.13,0,0,0,5.06.21c2.26-1.35,3.22-4,2.51-7a8.43,8.43,0,0,0-7.72-6.54,10,10,0,0,0-8.89,3.92c-1.85,2.41-2.56,5.57-1.77,7.84,1.78,5.13,5.39,6.49,9.22,7.92,3,1.14,6.2,2.32,8.4,5.49,4.48,6.48-.16,10.85-.21,10.89a.56.56,0,0,1-.93-.36s-.51-4.59-3.09-6.39a4.44,4.44,0,0,0-3.79-.53c-2,.52-3.41,2.37-3.93,5.23-1,5.32,1.29,13.31,6.17,17.43v-3.38a20,20,0,0,1-3.24-7.31,6.41,6.41,0,0,1,.86-5.14,4.42,4.42,0,0,1,2.89-1.66.56.56,0,0,1,.61.56V228.2a37,37,0,0,0,3.6,4.48.56.56,0,0,1,.16.39v25.76h2.45a.56.56,0,0,1,.41.94l-3,3.22a.56.56,0,0,1-1-.38V260h-1.63v8l5.68,9.52a.56.56,0,0,1,.08.29v12.75A.56.56,0,0,1,1015.1,291ZM1012.65,260v1.24l1.16-1.24Zm-4.88-44.23a3.28,3.28,0,0,0-1.5,1.08,5.39,5.39,0,0,0-.63,4.26,16.69,16.69,0,0,0,2.14,5.37Z" transform="translate(-823.6 -149.36)"/><path class="cls-2" d="M1012.22,201.14a.56.56,0,0,1-.42-.19,6.36,6.36,0,0,0-3.1-1.65,17.36,17.36,0,0,1-7.28-4.21,5.87,5.87,0,0,1-2.08-4.52c.08-3.71,3.7-6.85,3.86-7a.56.56,0,1,1,.73.85s-3.4,3-3.47,6.16a4.8,4.8,0,0,0,1.72,3.67,16.39,16.39,0,0,0,6.87,4,10.32,10.32,0,0,1,2.6,1.12V194.5a.56.56,0,0,1,1.12,0v6.08a.56.56,0,0,1-.36.52A.57.57,0,0,1,1012.22,201.14Z" transform="translate(-823.6 -149.36)"/><path class="cls-2" d="M1008.33,188.6a.56.56,0,0,1-.56-.56V166.77H986.5a.56.56,0,1,1,0-1.12h21.83a.56.56,0,0,1,.56.56V188A.56.56,0,0,1,1008.33,188.6Z" transform="translate(-823.6 -149.36)"/><path class="cls-2" d="M984.34,180a7.37,7.37,0,0,1-2.41-.39c-5.63-2-7.14-6-8.6-9.89-1.13-3-2.2-5.87-5.08-7.87-4.12-2.85-7.14-1.63-8.55-.68,1.64.35,4.49,1.25,6,3.36a5.52,5.52,0,0,1,.7,4.71c-.63,2.46-2.8,4.15-6.11,4.75-6,1.09-15-1.48-19.23-7.51a.56.56,0,0,1,.46-.88h2.93a37.24,37.24,0,0,1-3.16-2.64H919.51a.56.56,0,1,1,0-1.12h22a.56.56,0,0,1,.39.16,36.78,36.78,0,0,0,4.48,3.6h13.19a.56.56,0,0,1,.56.61,4.42,4.42,0,0,1-1.66,2.89,6.41,6.41,0,0,1-5.14.86,20,20,0,0,1-7.31-3.24h-3.37c4.11,4.88,12.11,7.14,17.43,6.17,2.85-.52,4.71-1.92,5.23-3.93a4.44,4.44,0,0,0-.53-3.79c-1.8-2.59-6.34-3.09-6.39-3.09a.56.56,0,0,1-.35-.93s4.41-4.69,10.89-.21c3.17,2.19,4.35,5.35,5.49,8.4,1.43,3.83,2.78,7.44,7.92,9.22,2.28.79,5.43.08,7.84-1.77a10,10,0,0,0,3.92-8.89,8.43,8.43,0,0,0-6.54-7.72c-3-.71-5.65.26-7,2.51a4.13,4.13,0,0,0,.21,5.06,4.34,4.34,0,0,0,4.65,1.41,2.76,2.76,0,0,0,2-2.77,1.1,1.1,0,0,0-.77-1c-1.12-.18-1.57,1.34-1.57,1.35a.56.56,0,0,1-1.08-.3c.24-.86,1.15-2.42,2.82-2.16a2.16,2.16,0,0,1,1.71,2,3.85,3.85,0,0,1-2.68,3.94,5.43,5.43,0,0,1-5.92-1.72,5.19,5.19,0,0,1-.32-6.36c1.58-2.65,4.81-3.84,8.22-3a9.54,9.54,0,0,1,7.4,8.73,11.19,11.19,0,0,1-4.36,9.85A10.91,10.91,0,0,1,984.34,180Zm-36.23-13.28a16.68,16.68,0,0,0,5.37,2.14,5.39,5.39,0,0,0,4.26-.63,3.27,3.27,0,0,0,1.08-1.5Z" transform="translate(-823.6 -149.36)"/><path class="cls-2" d="M983.84,175.2a5.89,5.89,0,0,1-4.4-2.08,17.36,17.36,0,0,1-4.21-7.28,6.34,6.34,0,0,0-1.65-3.1.56.56,0,0,1,.37-1H980a.56.56,0,1,1,0,1.12h-4.86a10.22,10.22,0,0,1,1.12,2.61,16.39,16.39,0,0,0,4,6.86,4.78,4.78,0,0,0,3.67,1.72c3.21-.07,6.12-3.43,6.15-3.46a.56.56,0,1,1,.85.73c-.13.16-3.27,3.78-7,3.86Z" transform="translate(-823.6 -149.36)"/><path class="cls-2" d="M1012.22,182.88a.56.56,0,0,1-.56-.56V162.88H992.22a.56.56,0,1,1,0-1.12h20a.56.56,0,0,1,.56.56v20A.56.56,0,0,1,1012.22,182.88Z" transform="translate(-823.6 -149.36)"/><path class="cls-2" d="M833.68,291a.56.56,0,0,1-.56-.56V277.72a.56.56,0,0,1,.08-.29l5.68-9.52v-8h-1.63v2.66a.56.56,0,0,1-1,.38l-3-3.22a.56.56,0,0,1,.41-.94h2.45V233.07a.56.56,0,0,1,.16-.39,37,37,0,0,0,3.6-4.48V215a.56.56,0,0,1,.18-.41.55.55,0,0,1,.43-.14,4.42,4.42,0,0,1,2.89,1.66,6.41,6.41,0,0,1,.86,5.14,20,20,0,0,1-3.24,7.31v3.38c4.88-4.12,7.14-12.11,6.17-17.43-.52-2.86-1.92-4.71-3.93-5.23a4.44,4.44,0,0,0-3.79.53c-2.58,1.8-3.09,6.34-3.09,6.39a.56.56,0,0,1-.93.36s-4.69-4.41-.21-10.89c2.19-3.17,5.35-4.35,8.4-5.49,3.83-1.43,7.44-2.79,9.22-7.92.79-2.28.08-5.43-1.77-7.84a10,10,0,0,0-8.89-3.92,8.43,8.43,0,0,0-7.72,6.54c-.71,3,.26,5.65,2.51,7a4.13,4.13,0,0,0,5.06-.21,4.34,4.34,0,0,0,1.41-4.65,2.76,2.76,0,0,0-2.77-2,1.09,1.09,0,0,0-1,.77c-.17,1.13,1.34,1.57,1.35,1.57a.56.56,0,0,1-.3,1.08c-.86-.24-2.42-1.14-2.16-2.82a2.15,2.15,0,0,1,2-1.71,3.85,3.85,0,0,1,3.94,2.68,5.42,5.42,0,0,1-1.72,5.92,5.2,5.2,0,0,1-6.36.32c-2.65-1.58-3.84-4.81-3-8.22a9.54,9.54,0,0,1,8.73-7.4,11.19,11.19,0,0,1,9.85,4.36c2.1,2.74,2.86,6.23,1.94,8.89-2,5.63-6,7.14-9.89,8.6-3,1.13-5.87,2.2-7.87,5.08-2.83,4.1-1.62,7.13-.68,8.54.35-1.64,1.25-4.48,3.36-5.95a5.52,5.52,0,0,1,4.71-.7c2.46.63,4.15,2.8,4.75,6.11,1.09,6-1.48,15-7.51,19.23a.56.56,0,0,1-.88-.46v-2.93a37.1,37.1,0,0,1-2.64,3.16v25.53h2.19a.56.56,0,0,1,.56.56v8.68a.56.56,0,0,1-.08.29l-5.68,9.52v12.6A.56.56,0,0,1,833.68,291ZM835,260l1.16,1.24V260Zm6-44.23v10.71a16.69,16.69,0,0,0,2.14-5.37,5.39,5.39,0,0,0-.63-4.26A3.27,3.27,0,0,0,841,215.72Z" transform="translate(-823.6 -149.36)"/><path class="cls-2" d="M836.56,201.14a.57.57,0,0,1-.2,0,.56.56,0,0,1-.36-.52V194.5a.56.56,0,0,1,1.12,0v4.86a10.32,10.32,0,0,1,2.6-1.12,16.39,16.39,0,0,0,6.87-4,4.79,4.79,0,0,0,1.72-3.67c-.06-3.21-3.43-6.12-3.46-6.15a.56.56,0,1,1,.73-.85c.16.13,3.78,3.27,3.86,7a5.87,5.87,0,0,1-2.08,4.52,17.36,17.36,0,0,1-7.28,4.21A6.36,6.36,0,0,0,837,201,.56.56,0,0,1,836.56,201.14Z" transform="translate(-823.6 -149.36)"/><path class="cls-2" d="M840.45,188.6a.56.56,0,0,1-.56-.56V166.21a.56.56,0,0,1,.56-.56h21.83a.56.56,0,1,1,0,1.12H841V188A.56.56,0,0,1,840.45,188.6Z" transform="translate(-823.6 -149.36)"/><path class="cls-2" d="M864.44,180a10.91,10.91,0,0,1-6.48-2.33,11.19,11.19,0,0,1-4.36-9.85,9.54,9.54,0,0,1,7.4-8.73c3.41-.81,6.63.38,8.22,3a5.19,5.19,0,0,1-.32,6.36,5.43,5.43,0,0,1-5.92,1.72,3.85,3.85,0,0,1-2.68-3.94,2.15,2.15,0,0,1,1.71-2c1.68-.26,2.58,1.3,2.82,2.16a.56.56,0,0,1-1.08.3c0-.06-.45-1.52-1.57-1.36a1.1,1.1,0,0,0-.77,1,2.76,2.76,0,0,0,2,2.77,4.35,4.35,0,0,0,4.65-1.41,4.13,4.13,0,0,0,.21-5.06c-1.35-2.26-4-3.22-7-2.51a8.44,8.44,0,0,0-6.54,7.72,10,10,0,0,0,3.92,8.89c2.41,1.85,5.56,2.56,7.84,1.77,5.13-1.78,6.49-5.39,7.92-9.22,1.14-3.05,2.32-6.2,5.49-8.4,6.48-4.48,10.85.16,10.89.21a.56.56,0,0,1-.35.93s-4.59.51-6.39,3.09a4.44,4.44,0,0,0-.53,3.79c.52,2,2.37,3.41,5.23,3.93,5.32,1,13.31-1.29,17.43-6.17h-3.37a20,20,0,0,1-7.31,3.24,6.41,6.41,0,0,1-5.14-.86,4.42,4.42,0,0,1-1.66-2.89.56.56,0,0,1,.56-.61h13.19a36.81,36.81,0,0,0,4.48-3.6.56.56,0,0,1,.39-.16h22a.56.56,0,1,1,0,1.12H907.53a37.07,37.07,0,0,1-3.16,2.64h2.93a.56.56,0,0,1,.46.88c-4.23,6-13.27,8.6-19.23,7.51-3.31-.6-5.48-2.29-6.11-4.75a5.52,5.52,0,0,1,.7-4.71c1.47-2.11,4.31-3,5.95-3.36-1.42-.94-4.44-2.15-8.54.68-2.88,2-4,4.85-5.08,7.87-1.46,3.9-3,7.94-8.6,9.89A7.37,7.37,0,0,1,864.44,180ZM890,166.77a3.28,3.28,0,0,0,1.08,1.5,5.39,5.39,0,0,0,4.26.63,16.66,16.66,0,0,0,5.37-2.14Z" transform="translate(-823.6 -149.36)"/><path class="cls-2" d="M864.93,175.2h-.12c-3.71-.08-6.85-3.7-7-3.86a.56.56,0,1,1,.85-.73s3,3.4,6.16,3.46a4.84,4.84,0,0,0,3.67-1.72,16.39,16.39,0,0,0,4-6.86,10.22,10.22,0,0,1,1.12-2.61h-4.86a.56.56,0,1,1,0-1.12h6.08a.56.56,0,0,1,.37,1,6.34,6.34,0,0,0-1.65,3.1,17.36,17.36,0,0,1-4.21,7.28A5.89,5.89,0,0,1,864.93,175.2Z" transform="translate(-823.6 -149.36)"/><path class="cls-2" d="M836.56,182.88a.56.56,0,0,1-.56-.56v-20a.56.56,0,0,1,.56-.56h20a.56.56,0,1,1,0,1.12H837.12v19.44A.56.56,0,0,1,836.56,182.88Z" transform="translate(-823.6 -149.36)"/><path class="cls-2" d="M843,401.61q-.44,0-.88,0a9.54,9.54,0,0,1-8.73-7.4c-.81-3.41.38-6.63,3-8.22a5.2,5.2,0,0,1,6.36.33,5.42,5.42,0,0,1,1.72,5.92,3.83,3.83,0,0,1-3.94,2.68,2.15,2.15,0,0,1-2-1.71c-.26-1.68,1.3-2.58,2.16-2.82a.56.56,0,0,1,.31,1.08c-.06,0-1.53.46-1.36,1.57a1.1,1.1,0,0,0,1,.77,2.77,2.77,0,0,0,2.77-2,4.34,4.34,0,0,0-1.41-4.65,4.13,4.13,0,0,0-5.06-.21c-2.26,1.35-3.22,4-2.51,7a8.43,8.43,0,0,0,7.72,6.54,10,10,0,0,0,8.89-3.92c1.85-2.41,2.56-5.56,1.77-7.84-1.78-5.13-5.39-6.49-9.22-7.92-3.05-1.14-6.2-2.32-8.4-5.49-4.48-6.48.16-10.85.21-10.89a.56.56,0,0,1,.93.36s.51,4.59,3.09,6.39a4.44,4.44,0,0,0,3.79.53c2-.52,3.41-2.37,3.93-5.23,1-5.32-1.29-13.31-6.17-17.43v3.38a20,20,0,0,1,3.24,7.31,6.41,6.41,0,0,1-.86,5.14,4.42,4.42,0,0,1-2.89,1.66.57.57,0,0,1-.43-.14.56.56,0,0,1-.18-.41V352.74a37.1,37.1,0,0,0-3.6-4.48.56.56,0,0,1-.16-.39V322.11h-2.45a.56.56,0,0,1-.41-.94l3-3.22a.56.56,0,0,1,1,.38V321h1.63v-8l-5.68-9.52a.56.56,0,0,1-.08-.29V290.47a.56.56,0,1,1,1.12,0v12.6l5.68,9.52a.56.56,0,0,1,.08.29v8.68a.56.56,0,0,1-.56.56h-2.19v25.53a37,37,0,0,1,2.64,3.16v-2.93a.56.56,0,0,1,.88-.46c6,4.23,8.59,13.27,7.51,19.23-.6,3.31-2.29,5.48-4.75,6.11a5.52,5.52,0,0,1-4.71-.7c-2.11-1.47-3-4.31-3.36-5.95-.94,1.42-2.15,4.45.68,8.54,2,2.88,4.85,4,7.87,5.08,3.9,1.46,7.94,3,9.89,8.6.92,2.66.16,6.15-1.94,8.89A11.14,11.14,0,0,1,843,401.61Zm-2-47.1v10.71a3.29,3.29,0,0,0,1.5-1.08,5.39,5.39,0,0,0,.63-4.25A16.69,16.69,0,0,0,841,354.5ZM835,321h1.16v-1.24Z" transform="translate(-823.6 -149.36)"/><path class="cls-2" d="M845.21,397.47a.56.56,0,0,1-.37-1s3.4-3,3.47-6.16a4.8,4.8,0,0,0-1.72-3.67,16.38,16.38,0,0,0-6.87-4,10.31,10.31,0,0,1-2.61-1.12v4.86a.56.56,0,1,1-1.12,0v-6.08a.56.56,0,0,1,1-.37,6.35,6.35,0,0,0,3.1,1.65,17.38,17.38,0,0,1,7.28,4.21,5.87,5.87,0,0,1,2.08,4.52c-.08,3.71-3.7,6.85-3.86,7A.55.55,0,0,1,845.21,397.47Z" transform="translate(-823.6 -149.36)"/><path class="cls-2" d="M862.27,415.29H840.45a.56.56,0,0,1-.56-.56V392.9a.56.56,0,0,1,1.12,0v21.27h21.27a.56.56,0,1,1,0,1.12Z" transform="translate(-823.6 -149.36)"/><path class="cls-2" d="M863.09,422.06a9,9,0,0,1-2.1-.25,9.54,9.54,0,0,1-7.4-8.73,11.19,11.19,0,0,1,4.36-9.85c2.74-2.1,6.23-2.86,8.89-1.94,5.63,2,7.14,6,8.6,9.89,1.13,3,2.2,5.87,5.08,7.87,4.1,2.83,7.13,1.62,8.54.68-1.64-.35-4.48-1.25-5.95-3.36a5.52,5.52,0,0,1-.7-4.71c.63-2.46,2.8-4.15,6.11-4.75,6-1.08,15,1.48,19.23,7.51a.56.56,0,0,1-.46.88h-2.93a37.09,37.09,0,0,1,3.16,2.64h21.73a.56.56,0,1,1,0,1.12h-22a.56.56,0,0,1-.39-.16,36.7,36.7,0,0,0-4.48-3.6H889.24a.56.56,0,0,1-.56-.61,4.42,4.42,0,0,1,1.66-2.89,6.43,6.43,0,0,1,5.14-.86,20.07,20.07,0,0,1,7.31,3.24h3.38c-4.11-4.88-12.11-7.14-17.43-6.17-2.85.52-4.71,1.92-5.23,3.93a4.44,4.44,0,0,0,.53,3.79c1.8,2.59,6.34,3.09,6.39,3.09a.56.56,0,0,1,.35.94s-4.41,4.69-10.89.21c-3.17-2.19-4.35-5.35-5.49-8.4-1.43-3.83-2.78-7.44-7.92-9.22-2.28-.79-5.43-.08-7.84,1.77a10,10,0,0,0-3.92,8.89,8.44,8.44,0,0,0,6.54,7.72c3,.71,5.65-.26,7-2.51a4.13,4.13,0,0,0-.21-5.06,4.35,4.35,0,0,0-4.65-1.41,2.76,2.76,0,0,0-2,2.77,1.1,1.1,0,0,0,.77,1c1.12.18,1.57-1.34,1.57-1.36a.56.56,0,0,1,1.08.3c-.24.86-1.15,2.42-2.82,2.16a2.16,2.16,0,0,1-1.71-2,3.85,3.85,0,0,1,2.68-3.94,5.43,5.43,0,0,1,5.92,1.72,5.19,5.19,0,0,1,.32,6.36A7,7,0,0,1,863.09,422.06ZM890,414.17h10.71A16.68,16.68,0,0,0,895.3,412a5.36,5.36,0,0,0-4.27.64A3.24,3.24,0,0,0,890,414.17Z" transform="translate(-823.6 -149.36)"/><path class="cls-2" d="M874.82,419.17h-6.08a.56.56,0,1,1,0-1.12h4.86a10.27,10.27,0,0,1-1.12-2.61,16.38,16.38,0,0,0-4-6.86,5,5,0,0,0-3.67-1.72c-3.2.06-6.13,3.43-6.16,3.46a.56.56,0,1,1-.85-.73c.13-.15,3.27-3.78,7-3.86a6,6,0,0,1,4.52,2.08,17.37,17.37,0,0,1,4.21,7.28,6.34,6.34,0,0,0,1.65,3.1.56.56,0,0,1-.37,1Z" transform="translate(-823.6 -149.36)"/><path class="cls-2" d="M856.56,419.17h-20a.56.56,0,0,1-.56-.56v-20a.56.56,0,0,1,1.12,0v19.44h19.44a.56.56,0,0,1,0,1.12Z" transform="translate(-823.6 -149.36)"/><path class="cls-2" d="M1005.8,401.61a11.14,11.14,0,0,1-9-4.39c-2.1-2.74-2.86-6.23-1.94-8.89,2-5.63,6-7.14,9.89-8.6,3-1.13,5.88-2.2,7.87-5.08,2.85-4.12,1.63-7.14.68-8.55-.35,1.64-1.25,4.49-3.36,6a5.52,5.52,0,0,1-4.71.7c-2.46-.63-4.15-2.8-4.75-6.11-1.09-6,1.48-15,7.51-19.23a.56.56,0,0,1,.88.46v2.93a36.93,36.93,0,0,1,2.64-3.16V322.11h-2.19a.56.56,0,0,1-.56-.56v-8.68a.56.56,0,0,1,.08-.29l5.68-9.52v-12.6a.56.56,0,1,1,1.12,0v12.75a.56.56,0,0,1-.08.29L1009.9,313v8h1.63v-2.66a.56.56,0,0,1,1-.38l3,3.22a.56.56,0,0,1-.41.94h-2.45v25.76a.56.56,0,0,1-.16.39,37.13,37.13,0,0,0-3.6,4.48v13.19a.56.56,0,0,1-.18.41.58.58,0,0,1-.43.14,4.42,4.42,0,0,1-2.89-1.66,6.41,6.41,0,0,1-.86-5.14,20,20,0,0,1,3.24-7.31V349c-4.88,4.11-7.14,12.1-6.17,17.43.52,2.86,1.92,4.71,3.93,5.23a4.45,4.45,0,0,0,3.79-.53c2.59-1.8,3.09-6.34,3.09-6.39a.56.56,0,0,1,.94-.36s4.69,4.41.21,10.89c-2.19,3.17-5.35,4.35-8.4,5.49-3.83,1.43-7.44,2.78-9.22,7.92-.79,2.28-.08,5.43,1.77,7.84a9.94,9.94,0,0,0,8.89,3.92,8.43,8.43,0,0,0,7.72-6.54c.71-3-.26-5.65-2.51-7a4.13,4.13,0,0,0-5.06.21,4.34,4.34,0,0,0-1.41,4.65,2.77,2.77,0,0,0,2.77,2,1.1,1.1,0,0,0,1-.77c.17-1.13-1.34-1.57-1.35-1.57a.56.56,0,0,1,.3-1.08c.86.24,2.42,1.14,2.16,2.82a2.15,2.15,0,0,1-2,1.71,3.84,3.84,0,0,1-3.94-2.68,5.42,5.42,0,0,1,1.72-5.92,5.2,5.2,0,0,1,6.36-.33c2.65,1.58,3.84,4.81,3,8.22a9.54,9.54,0,0,1-8.73,7.4C1006.38,401.6,1006.09,401.61,1005.8,401.61Zm2-47.1a16.7,16.7,0,0,0-2.14,5.37,5.37,5.37,0,0,0,.64,4.27,3.25,3.25,0,0,0,1.49,1.07Zm4.88-33.52h1.16l-1.16-1.24Z" transform="translate(-823.6 -149.36)"/><path class="cls-2" d="M1003.56,397.47a.55.55,0,0,1-.36-.13c-.16-.13-3.78-3.27-3.86-7a5.87,5.87,0,0,1,2.08-4.52,17.38,17.38,0,0,1,7.28-4.21,6.35,6.35,0,0,0,3.1-1.65.56.56,0,0,1,1,.37v6.08a.56.56,0,1,1-1.12,0v-4.86a10.31,10.31,0,0,1-2.61,1.12,16.38,16.38,0,0,0-6.87,4,4.79,4.79,0,0,0-1.72,3.67c.06,3.21,3.43,6.12,3.46,6.15a.56.56,0,0,1-.36,1Z" transform="translate(-823.6 -149.36)"/><path class="cls-2" d="M1008.33,415.29H986.5a.56.56,0,1,1,0-1.12h21.27V392.9a.56.56,0,0,1,1.12,0v21.83A.56.56,0,0,1,1008.33,415.29Z" transform="translate(-823.6 -149.36)"/><path class="cls-2" d="M985.68,422.06a7,7,0,0,1-6.12-3.28,5.19,5.19,0,0,1,.32-6.36,5.43,5.43,0,0,1,5.92-1.72,3.85,3.85,0,0,1,2.68,3.94,2.16,2.16,0,0,1-1.71,2c-1.68.26-2.58-1.3-2.82-2.16a.56.56,0,0,1,1.08-.31c0,.06.45,1.53,1.57,1.36a1.1,1.1,0,0,0,.77-1,2.76,2.76,0,0,0-2-2.77,4.35,4.35,0,0,0-4.65,1.41,4.13,4.13,0,0,0-.21,5.06c1.35,2.26,4,3.22,7,2.51a8.43,8.43,0,0,0,6.54-7.72,10,10,0,0,0-3.92-8.89c-2.41-1.85-5.56-2.56-7.84-1.77-5.13,1.78-6.49,5.39-7.92,9.22-1.14,3-2.32,6.2-5.49,8.4-6.48,4.48-10.85-.16-10.89-.21a.56.56,0,0,1,.35-.94s4.59-.51,6.39-3.09a4.44,4.44,0,0,0,.53-3.79c-.52-2-2.37-3.41-5.23-3.93-5.32-1-13.31,1.29-17.43,6.17H946a20.07,20.07,0,0,1,7.31-3.24,6.42,6.42,0,0,1,5.14.86,4.42,4.42,0,0,1,1.66,2.89.56.56,0,0,1-.56.61H946.34a36.7,36.7,0,0,0-4.48,3.6.56.56,0,0,1-.39.16h-22a.56.56,0,1,1,0-1.12h21.73a37.09,37.09,0,0,1,3.16-2.64h-2.93a.56.56,0,0,1-.46-.88c4.23-6,13.27-8.6,19.23-7.51,3.31.6,5.48,2.29,6.11,4.75a5.52,5.52,0,0,1-.7,4.71c-1.47,2.11-4.31,3-5.95,3.36,1.42.94,4.45,2.15,8.54-.68,2.88-2,4-4.85,5.08-7.87,1.46-3.9,3-7.94,8.6-9.89,2.66-.92,6.15-.16,8.89,1.94a11.19,11.19,0,0,1,4.36,9.85,9.54,9.54,0,0,1-7.4,8.73A9,9,0,0,1,985.68,422.06Zm-37.57-7.89h10.71a3.27,3.27,0,0,0-1.08-1.5,5.38,5.38,0,0,0-4.26-.63A16.68,16.68,0,0,0,948.11,414.17Z" transform="translate(-823.6 -149.36)"/><path class="cls-2" d="M980,419.17H974a.56.56,0,0,1-.37-1,6.34,6.34,0,0,0,1.65-3.1,17.37,17.37,0,0,1,4.21-7.28,6,6,0,0,1,4.52-2.08c3.71.08,6.85,3.7,7,3.86a.56.56,0,1,1-.85.73s-3-3.4-6.16-3.46a4.82,4.82,0,0,0-3.67,1.72,16.38,16.38,0,0,0-4,6.86,10.27,10.27,0,0,1-1.12,2.61H980a.56.56,0,1,1,0,1.12Z" transform="translate(-823.6 -149.36)"/><path class="cls-2" d="M1012.22,419.17h-20a.56.56,0,0,1,0-1.12h19.44V398.62a.56.56,0,0,1,1.12,0v20A.56.56,0,0,1,1012.22,419.17Z" transform="translate(-823.6 -149.36)"/><path class="cls-2" d="M940.42,275.94l-.75,0a8.18,8.18,0,0,1-7.49-6.35,6.29,6.29,0,0,1,2.61-7.07,4.55,4.55,0,0,1,5.5.28,4.7,4.7,0,0,1,1.48,5.12,3.35,3.35,0,0,1-3.43,2.33,1.91,1.91,0,0,1-1.79-1.52,2.37,2.37,0,0,1,1.89-2.49.56.56,0,0,1,.3,1.08c-.06,0-1.23.37-1.09,1.24,0,.29.37.53.82.58a2.26,2.26,0,0,0,2.26-1.64,3.6,3.6,0,0,0-1.18-3.85,3.36,3.36,0,0,0-4.2-.17,5.17,5.17,0,0,0-2.1,5.85,7.08,7.08,0,0,0,6.48,5.49,8.38,8.38,0,0,0,7.47-3.3,7.48,7.48,0,0,0,1.49-6.58c-1.5-4.32-4.55-5.46-7.78-6.67-2.6-1-5.29-2-7.17-4.7-3.84-5.57.15-9.32.19-9.36a.56.56,0,0,1,.93.35s.43,3.86,2.59,5.37a3.64,3.64,0,0,0,3.15.44c2.26-.58,3-3,3.28-4.37.81-4.45-1-11.1-5.07-14.6V234a17.07,17.07,0,0,1,2.75,6.22,5.53,5.53,0,0,1-.75,4.43,3.86,3.86,0,0,1-2.52,1.44.54.54,0,0,1-.43-.15.56.56,0,0,1-.18-.41V234.38a31.47,31.47,0,0,0-3-3.77.55.55,0,0,1-.16-.39V211.57a.56.56,0,1,1,1.12,0V230a31.88,31.88,0,0,1,2.08,2.46v-2.24a.56.56,0,0,1,.88-.46c5.15,3.61,7.34,11.33,6.41,16.41-.52,2.84-2,4.71-4.1,5.25a4.77,4.77,0,0,1-4.07-.6c-1.73-1.2-2.51-3.48-2.84-4.9-.76,1.25-1.58,3.71.69,7,1.68,2.43,4.09,3.33,6.64,4.28,3.33,1.25,6.78,2.54,8.45,7.36a8.52,8.52,0,0,1-1.66,7.63A9.54,9.54,0,0,1,940.42,275.94Zm-1.59-39.77v8.66A2.67,2.67,0,0,0,940,244a4.51,4.51,0,0,0,.52-3.55A13.67,13.67,0,0,0,938.83,236.17Z" transform="translate(-823.6 -149.36)"/><path class="cls-2" d="M942.32,272.43a.56.56,0,0,1-.37-1s2.86-2.48,2.91-5.17a4,4,0,0,0-1.44-3.05,13.83,13.83,0,0,0-5.8-3.35,9.42,9.42,0,0,1-2.1-.87v4a.56.56,0,0,1-1.12,0v-5.17a.56.56,0,0,1,1-.37,5.33,5.33,0,0,0,2.59,1.38,14.82,14.82,0,0,1,6.21,3.59,5.06,5.06,0,0,1,1.8,3.9c-.06,3.19-3.17,5.88-3.3,6A.56.56,0,0,1,942.32,272.43Z" transform="translate(-823.6 -149.36)"/><path class="cls-2" d="M938.27,287.56a.57.57,0,0,1-.29-.08.56.56,0,0,1-.27-.48V268.46a.56.56,0,0,1,1.12,0V286a72,72,0,0,0,10.44-7.33,9.76,9.76,0,0,1-.58-1.79,6.9,6.9,0,0,1,2.32-7,.56.56,0,0,1,.72.86,5.78,5.78,0,0,0-1.94,6,8.65,8.65,0,0,0,.38,1.25,49.66,49.66,0,0,0,7.34-7.9A148.93,148.93,0,0,0,948,251.64a.56.56,0,0,1,.86-.7l13.25,12.36a.56.56,0,0,1,.14.62,31.83,31.83,0,0,1-3.48,6.25c2.31,5.78,3.56,11.15,1.52,13.31a4.6,4.6,0,0,1-4.78,1.25,10.37,10.37,0,0,1-5.75-5,70.45,70.45,0,0,1-11.25,7.74A.55.55,0,0,1,938.27,287.56ZM950.64,279a9.23,9.23,0,0,0,5.18,4.64,3.5,3.5,0,0,0,3.67-.94c1.58-1.67.55-6.22-1.5-11.45A52.1,52.1,0,0,1,950.64,279Zm.29-24.62a140.33,140.33,0,0,1,7.34,14.54,30.69,30.69,0,0,0,2.8-5.09Z" transform="translate(-823.6 -149.36)"/><path class="cls-2" d="M935,290.86a.56.56,0,0,1-.56-.56v-17a.56.56,0,0,1,1.12,0v17A.56.56,0,0,1,935,290.86Z" transform="translate(-823.6 -149.36)"/><path class="cls-2" d="M935,291.33a.56.56,0,0,1-.12-1.11c.22,0,21.81-5,30-18.64a.56.56,0,0,1,.45-.27.57.57,0,0,1,.48.23l5.17,7c1.63-2.14,2.74-4.43,2.62-6.64-.15-2.81-1.28-4.62-3.29-5.23a6.49,6.49,0,0,0-6.36,1.85.56.56,0,1,1-.89-.67,7.62,7.62,0,0,1,7.58-2.25c1.42.43,3.85,1.82,4.08,6.24.14,2.59-1.17,5.23-3,7.63l7.85,10.62a.56.56,0,0,1,0,.61.55.55,0,0,1-.54.28l-19-1.79a.56.56,0,0,1-.24-1,49.58,49.58,0,0,0,10.45-8.72l-4.86-6.57c-8.69,13.55-29.36,18.25-30.25,18.45Zm26.74-3.1,16.12,1.52-6.94-9.39A47.35,47.35,0,0,1,961.7,288.23Z" transform="translate(-823.6 -149.36)"/><path class="cls-2" d="M935.07,369.92a.56.56,0,0,1-.56-.56V350.72a.55.55,0,0,1,.16-.39,31.49,31.49,0,0,0,3-3.77V335.38a.56.56,0,0,1,.18-.41.59.59,0,0,1,.43-.14,3.86,3.86,0,0,1,2.52,1.44,5.53,5.53,0,0,1,.75,4.43,17.07,17.07,0,0,1-2.75,6.22v2.66c4-3.51,5.88-10.15,5.07-14.6-.25-1.38-1-3.79-3.28-4.37a3.64,3.64,0,0,0-3.15.44c-2.16,1.5-2.59,5.33-2.59,5.36a.56.56,0,0,1-.93.36s-4-3.8-.19-9.36c1.88-2.72,4.57-3.73,7.17-4.7,3.23-1.21,6.28-2.35,7.78-6.67a7.48,7.48,0,0,0-1.49-6.58,8.36,8.36,0,0,0-7.47-3.3,7.08,7.08,0,0,0-6.48,5.49,5.17,5.17,0,0,0,2.1,5.85,3.36,3.36,0,0,0,4.2-.17,3.6,3.6,0,0,0,1.18-3.85,2.27,2.27,0,0,0-2.26-1.64c-.44.05-.77.29-.82.58-.14.88,1.08,1.24,1.09,1.24a.56.56,0,1,1-.3,1.08,2.37,2.37,0,0,1-1.89-2.49,1.91,1.91,0,0,1,1.79-1.52,3.36,3.36,0,0,1,3.43,2.33,4.7,4.7,0,0,1-1.48,5.12,4.54,4.54,0,0,1-5.5.28,6.29,6.29,0,0,1-2.61-7.07,8.18,8.18,0,0,1,7.49-6.35,9.62,9.62,0,0,1,8.44,3.74,8.52,8.52,0,0,1,1.66,7.63c-1.67,4.82-5.12,6.11-8.45,7.36-2.55,1-5,1.86-6.64,4.29-2.27,3.28-1.45,5.74-.69,7,.33-1.43,1.11-3.7,2.84-4.9a4.77,4.77,0,0,1,4.07-.6c2.13.54,3.58,2.41,4.1,5.26.93,5.08-1.26,12.8-6.41,16.41a.56.56,0,0,1-.88-.46v-2.24a32,32,0,0,1-2.08,2.46v18.42A.56.56,0,0,1,935.07,369.92Zm3.76-33.82v8.66a13.66,13.66,0,0,0,1.65-4.26A4.51,4.51,0,0,0,940,337,2.69,2.69,0,0,0,938.83,336.11Z" transform="translate(-823.6 -149.36)"/><path class="cls-2" d="M935,323.69a.56.56,0,0,1-.56-.56V318a.56.56,0,0,1,1.12,0v4a9.43,9.43,0,0,1,2.1-.87,13.84,13.84,0,0,0,5.8-3.35,4,4,0,0,0,1.44-3.06c-.05-2.69-2.88-5.14-2.91-5.16a.56.56,0,0,1,.73-.85c.13.11,3.24,2.8,3.3,6a5.06,5.06,0,0,1-1.8,3.9,14.8,14.8,0,0,1-6.21,3.59,5.34,5.34,0,0,0-2.59,1.38A.56.56,0,0,1,935,323.69Z" transform="translate(-823.6 -149.36)"/><path class="cls-2" d="M948.49,330.14a.56.56,0,0,1-.48-.85,149,149,0,0,0,9.49-18.41,49.63,49.63,0,0,0-7.34-7.9,8.79,8.79,0,0,0-.38,1.25,5.78,5.78,0,0,0,1.94,6,.56.56,0,0,1-.72.86,6.9,6.9,0,0,1-2.32-7,9.81,9.81,0,0,1,.58-1.79,71.82,71.82,0,0,0-10.44-7.33v17.59a.56.56,0,1,1-1.12,0V293.94a.56.56,0,0,1,.82-.5,70.46,70.46,0,0,1,11.25,7.74,10.37,10.37,0,0,1,5.75-5,4.6,4.6,0,0,1,4.78,1.25c2,2.16.79,7.53-1.52,13.31a31.89,31.89,0,0,1,3.48,6.25.56.56,0,0,1-.14.62L948.87,330A.56.56,0,0,1,948.49,330.14ZM958.28,312a140.09,140.09,0,0,1-7.34,14.54l10.14-9.46A30.66,30.66,0,0,0,958.28,312Zm-7.64-10.07a52.18,52.18,0,0,1,7.35,7.75c2-5.23,3.08-9.77,1.5-11.45a3.49,3.49,0,0,0-3.67-.94A9.22,9.22,0,0,0,950.64,301.92Z" transform="translate(-823.6 -149.36)"/><path class="cls-2" d="M935,308.18a.56.56,0,0,1-.56-.56v-17a.56.56,0,1,1,1.12,0v17A.56.56,0,0,1,935,308.18Z" transform="translate(-823.6 -149.36)"/><path class="cls-2" d="M968.72,315.6a7.57,7.57,0,0,1-5.72-2.52.56.56,0,1,1,.89-.67,6.48,6.48,0,0,0,6.36,1.85c2-.61,3.14-2.42,3.29-5.23.12-2.21-1-4.5-2.63-6.65l-5.16,7a.51.51,0,0,1-.48.23.56.56,0,0,1-.45-.27c-8.16-13.69-29.75-18.59-30-18.64a.56.56,0,0,1,.24-1.09c.89.2,21.56,4.9,30.25,18.45l4.85-6.58a49.56,49.56,0,0,0-10.43-8.71.56.56,0,0,1,.24-1l19-1.87a.56.56,0,0,1,.51.89l-7.87,10.69c1.88,2.41,3.2,5.05,3.06,7.65-.23,4.42-2.66,5.81-4.08,6.24A6.39,6.39,0,0,1,968.72,315.6Zm-7-22.91a47.36,47.36,0,0,1,9.17,7.86l7-9.44Z" transform="translate(-823.6 -149.36)"/><path class="cls-2" d="M908.36,275.94a9.54,9.54,0,0,1-7.69-3.76,8.52,8.52,0,0,1-1.66-7.63c1.67-4.82,5.12-6.11,8.45-7.36,2.55-1,5-1.86,6.64-4.28,2.27-3.28,1.45-5.74.68-7a8.31,8.31,0,0,1-2.84,4.9,4.77,4.77,0,0,1-4.07.6c-2.12-.54-3.58-2.41-4.1-5.25-.93-5.08,1.26-12.8,6.41-16.41a.56.56,0,0,1,.88.46v2.24a31.42,31.42,0,0,1,2.08-2.46V211.57a.56.56,0,1,1,1.12,0v18.64a.56.56,0,0,1-.16.39,31.28,31.28,0,0,0-3,3.77v11.18a.56.56,0,0,1-.18.41.53.53,0,0,1-.43.15,3.86,3.86,0,0,1-2.52-1.44,5.53,5.53,0,0,1-.75-4.43,17.1,17.1,0,0,1,2.75-6.22v-2.66c-4,3.51-5.88,10.16-5.07,14.6.25,1.38,1,3.79,3.28,4.37a3.65,3.65,0,0,0,3.15-.44c2.16-1.5,2.59-5.33,2.59-5.37a.56.56,0,0,1,.93-.35s4,3.79.19,9.36c-1.88,2.72-4.57,3.72-7.17,4.7-3.23,1.21-6.29,2.35-7.78,6.67a7.48,7.48,0,0,0,1.49,6.58,8.39,8.39,0,0,0,7.47,3.3,7.08,7.08,0,0,0,6.48-5.49,5.17,5.17,0,0,0-2.1-5.85,3.37,3.37,0,0,0-4.2.17,3.6,3.6,0,0,0-1.18,3.85,2.27,2.27,0,0,0,2.26,1.64c.44-.05.77-.29.82-.58.14-.88-1.08-1.24-1.09-1.24a.56.56,0,0,1,.3-1.08,2.37,2.37,0,0,1,1.89,2.49,1.91,1.91,0,0,1-1.79,1.52A3.35,3.35,0,0,1,907,267.9a4.69,4.69,0,0,1,1.48-5.12,4.55,4.55,0,0,1,5.5-.28,6.29,6.29,0,0,1,2.61,7.07,8.19,8.19,0,0,1-7.49,6.35Zm1.59-39.77a13.68,13.68,0,0,0-1.65,4.26,4.49,4.49,0,0,0,.53,3.56,2.69,2.69,0,0,0,1.12.84Z" transform="translate(-823.6 -149.36)"/><path class="cls-2" d="M906.46,272.43a.56.56,0,0,1-.36-.13c-.13-.11-3.24-2.8-3.3-6a5.06,5.06,0,0,1,1.8-3.9,14.82,14.82,0,0,1,6.21-3.59,5.34,5.34,0,0,0,2.59-1.38.56.56,0,0,1,1,.37V263a.56.56,0,0,1-1.12,0v-4a9.43,9.43,0,0,1-2.1.88,13.85,13.85,0,0,0-5.8,3.35,4,4,0,0,0-1.44,3.05c.05,2.68,2.88,5.14,2.91,5.17a.56.56,0,0,1-.36,1Z" transform="translate(-823.6 -149.36)"/><path class="cls-2" d="M910.51,287.56a.56.56,0,0,1-.26-.06A70.52,70.52,0,0,1,899,279.75a10.37,10.37,0,0,1-5.75,5,4.6,4.6,0,0,1-4.78-1.25c-2-2.16-.79-7.53,1.52-13.31a31.92,31.92,0,0,1-3.48-6.25.56.56,0,0,1,.14-.62l13.25-12.36a.56.56,0,0,1,.86.7,148.66,148.66,0,0,0-9.49,18.41,49.61,49.61,0,0,0,7.34,7.9,8.42,8.42,0,0,0,.38-1.25,5.78,5.78,0,0,0-1.94-6,.56.56,0,0,1,.72-.86,6.9,6.9,0,0,1,2.32,7,9.85,9.85,0,0,1-.58,1.79A72.05,72.05,0,0,0,909.95,286V268.46a.56.56,0,0,1,1.12,0V287a.56.56,0,0,1-.56.56Zm-19.72-16.29c-2.05,5.23-3.08,9.77-1.5,11.45a3.5,3.5,0,0,0,3.66.94,9.24,9.24,0,0,0,5.18-4.64A51.93,51.93,0,0,1,890.79,271.27Zm-3.09-7.41a30.64,30.64,0,0,0,2.8,5.09,140.13,140.13,0,0,1,7.34-14.54Z" transform="translate(-823.6 -149.36)"/><path class="cls-2" d="M913.81,290.86a.56.56,0,0,1-.56-.56v-17a.56.56,0,0,1,1.12,0v17A.56.56,0,0,1,913.81,290.86Z" transform="translate(-823.6 -149.36)"/><path class="cls-2" d="M913.81,291.33h-.12c-.89-.2-21.56-4.9-30.25-18.45l-4.86,6.57A49.6,49.6,0,0,0,889,288.16a.56.56,0,0,1-.24,1l-19,1.79a.54.54,0,0,1-.54-.28.56.56,0,0,1,0-.61l7.85-10.62c-1.88-2.41-3.18-5-3-7.63.23-4.42,2.66-5.81,4.08-6.24a7.61,7.61,0,0,1,7.58,2.25.56.56,0,1,1-.9.67,6.48,6.48,0,0,0-6.36-1.85c-2,.61-3.14,2.42-3.29,5.23-.12,2.2,1,4.49,2.62,6.64l5.17-7a.57.57,0,0,1,.48-.23.56.56,0,0,1,.45.27c8.16,13.69,29.75,18.59,30,18.64a.56.56,0,0,1-.12,1.11Zm-35.91-11L871,289.75l16.12-1.52A47.35,47.35,0,0,1,877.9,280.37Z" transform="translate(-823.6 -149.36)"/><path class="cls-2" d="M913.7,369.92a.56.56,0,0,1-.56-.56V350.94a31.49,31.49,0,0,1-2.08-2.46v2.24a.56.56,0,0,1-.88.46c-5.15-3.61-7.34-11.33-6.41-16.41.52-2.85,2-4.71,4.1-5.26a4.77,4.77,0,0,1,4.07.6,8.32,8.32,0,0,1,2.84,4.9c.76-1.25,1.58-3.71-.68-7-1.68-2.43-4.09-3.33-6.64-4.29-3.33-1.25-6.78-2.54-8.45-7.36a8.51,8.51,0,0,1,1.66-7.63,9.58,9.58,0,0,1,8.44-3.74,8.19,8.19,0,0,1,7.49,6.35,6.29,6.29,0,0,1-2.61,7.07,4.54,4.54,0,0,1-5.5-.28A4.69,4.69,0,0,1,907,313a3.35,3.35,0,0,1,3.43-2.33,1.91,1.91,0,0,1,1.79,1.52,2.37,2.37,0,0,1-1.89,2.49.56.56,0,0,1-.31-1.08c.06,0,1.23-.37,1.09-1.24,0-.29-.37-.53-.82-.58a2.27,2.27,0,0,0-2.26,1.64,3.6,3.6,0,0,0,1.18,3.85,3.36,3.36,0,0,0,4.2.17,5.17,5.17,0,0,0,2.1-5.85,7.08,7.08,0,0,0-6.48-5.49,8.37,8.37,0,0,0-7.47,3.3,7.48,7.48,0,0,0-1.49,6.58c1.5,4.32,4.55,5.46,7.78,6.67,2.6,1,5.29,2,7.17,4.7,3.84,5.56-.15,9.32-.19,9.36a.56.56,0,0,1-.93-.36s-.43-3.86-2.59-5.36a3.64,3.64,0,0,0-3.15-.44c-2.26.58-3,3-3.28,4.37-.81,4.45,1,11.1,5.07,14.6v-2.66a17.11,17.11,0,0,1-2.75-6.22,5.53,5.53,0,0,1,.75-4.43,3.86,3.86,0,0,1,2.52-1.44.59.59,0,0,1,.43.14.56.56,0,0,1,.18.41v11.17a31.28,31.28,0,0,0,3,3.77.56.56,0,0,1,.16.39v18.64A.56.56,0,0,1,913.7,369.92Zm-3.76-33.82a2.67,2.67,0,0,0-1.13.85,4.5,4.5,0,0,0-.52,3.54,13.65,13.65,0,0,0,1.65,4.26Z" transform="translate(-823.6 -149.36)"/><path class="cls-2" d="M913.81,323.69a.56.56,0,0,1-.42-.19,5.34,5.34,0,0,0-2.59-1.38,14.79,14.79,0,0,1-6.21-3.59,5.06,5.06,0,0,1-1.8-3.9c.06-3.19,3.17-5.88,3.3-6a.56.56,0,1,1,.73.85s-2.86,2.49-2.91,5.17a4,4,0,0,0,1.44,3.05,13.83,13.83,0,0,0,5.8,3.35,9.43,9.43,0,0,1,2.1.87v-4a.56.56,0,0,1,1.12,0v5.17a.56.56,0,0,1-.36.52A.56.56,0,0,1,913.81,323.69Z" transform="translate(-823.6 -149.36)"/><path class="cls-2" d="M900.29,330.14a.56.56,0,0,1-.38-.15l-13.25-12.36a.56.56,0,0,1-.14-.62,32,32,0,0,1,3.48-6.25c-2.31-5.78-3.56-11.15-1.52-13.31a4.6,4.6,0,0,1,4.78-1.25,10.37,10.37,0,0,1,5.75,5,70.53,70.53,0,0,1,11.25-7.74.56.56,0,0,1,.82.5v18.54a.56.56,0,1,1-1.12,0V294.89a72,72,0,0,0-10.44,7.33,9.79,9.79,0,0,1,.58,1.79,6.9,6.9,0,0,1-2.32,7,.56.56,0,1,1-.72-.86,5.78,5.78,0,0,0,1.94-6,8.63,8.63,0,0,0-.37-1.25,49.53,49.53,0,0,0-7.34,7.9,148.69,148.69,0,0,0,9.49,18.41.56.56,0,0,1-.12.73A.55.55,0,0,1,900.29,330.14ZM887.7,317.08l10.14,9.46A140.16,140.16,0,0,1,890.5,312,30.66,30.66,0,0,0,887.7,317.08Zm4.1-20a3.35,3.35,0,0,0-2.51,1.11c-1.58,1.67-.55,6.22,1.5,11.45a52,52,0,0,1,7.35-7.75,9.22,9.22,0,0,0-5.18-4.64A4.28,4.28,0,0,0,891.8,297.11Z" transform="translate(-823.6 -149.36)"/><path class="cls-2" d="M913.81,308.18a.56.56,0,0,1-.56-.56v-17a.56.56,0,1,1,1.12,0v17A.56.56,0,0,1,913.81,308.18Z" transform="translate(-823.6 -149.36)"/><path class="cls-2" d="M880.06,315.6a6.4,6.4,0,0,1-1.86-.27c-1.42-.43-3.85-1.82-4.08-6.24-.14-2.6,1.18-5.24,3.06-7.65l-7.87-10.69a.56.56,0,0,1,.51-.89l19,1.87a.56.56,0,0,1,.24,1,49.61,49.61,0,0,0-10.43,8.71l4.85,6.58c8.69-13.55,29.36-18.25,30.25-18.45a.56.56,0,0,1,.24,1.09c-.22,0-21.81,5-30,18.64a.56.56,0,0,1-.45.27.53.53,0,0,1-.48-.23l-5.16-7c-1.64,2.15-2.75,4.44-2.63,6.65.15,2.81,1.29,4.62,3.29,5.23a6.48,6.48,0,0,0,6.36-1.85.56.56,0,1,1,.9.67A7.58,7.58,0,0,1,880.06,315.6ZM871,291.11l7,9.44a47.36,47.36,0,0,1,9.17-7.86Z" transform="translate(-823.6 -149.36)"/><path class="cls-2" d="M924.25,301.15a.56.56,0,0,1-.4-.16l-10.3-10.29a.56.56,0,0,1,0-.79l10.3-10.29a.56.56,0,0,1,.79,0l10.3,10.29a.56.56,0,0,1,0,.79L924.64,301A.56.56,0,0,1,924.25,301.15Zm-9.5-10.86,9.5,9.5,9.5-9.5-9.5-9.5Z" transform="translate(-823.6 -149.36)"/></svg>