<svg id="Layer_1" data-name="Layer 1" xmlns="http://www.w3.org/2000/svg" viewBox="0 0 201.58 282.21"><defs><style>.cls-1{fill:#14110d;}.cls-2{fill:#fff;}</style></defs><title>cards_back_9</title><path class="cls-1" d="M343.63,558.12A10.08,10.08,0,0,0,333.55,548H152.12A10.08,10.08,0,0,0,142,558.12h0V820.18a10.08,10.08,0,0,0,10.08,10.08H333.55a10.08,10.08,0,0,0,10.08-10.08V558.12Z" transform="translate(-142.04 -548.05)"/><path class="cls-2" d="M157.61,682.83h-1.12V624.9a40.07,40.07,0,0,1-3.83,1.43v56.5h-1.12V625.49l.41-.12a38.59,38.59,0,0,0,4.54-1.71V606c0-3.13-.79-4.42-1.45-4.94a1.83,1.83,0,0,0-1.41-.4l-.69.16v-8.54h.55a32.13,32.13,0,0,0,11.77-2.89v-5.14a49.5,49.5,0,0,0-13.08,0l-.93.13.32-.88c.13-.36,1.2-3.15,3-4.11a13.31,13.31,0,0,1-3-5.37l-.16-.69h13.43v-7h4.42a14,14,0,0,0-10.38-3.76l-.61.05v-5.12h85.61l-.59.87c-2,3-10.61,4.66-14,5.22a7.06,7.06,0,0,1,1.62,3.19l.13.67H171.86A17.23,17.23,0,0,1,173,569a13.75,13.75,0,0,1,2,11.26c5.85.38,13.19.18,17.7-2.44l1.07-.62-.24,1.22c0,.23-1.12,5.41-4.62,6.47a15,15,0,0,1-.14,6.14l-.16.74-.66-.37a68.88,68.88,0,0,0-15.76-5.85,18.68,18.68,0,0,1-5.81,4.6V615c0,4.35-4.77,7.52-8.77,9.4Zm-3.55-83.26a3,3,0,0,1,1.67.65c1.25,1,1.88,2.94,1.88,5.82v17.11c3.62-1.78,7.65-4.56,7.65-8.15V590.7a32.73,32.73,0,0,1-11.2,2.71Zm18.87-15a72.05,72.05,0,0,1,14.88,5.48,12.47,12.47,0,0,0-.12-5.42l-.21-.63.65-.1c2.23-.34,3.43-2.95,4-4.52-4.87,2.25-11.88,2.37-17.46,2a13.07,13.07,0,0,1-.76,1.67A15.66,15.66,0,0,1,172.93,584.59Zm-6.55-.15v4.41a17.6,17.6,0,0,0,4.57-3.57C169.48,584.95,168,584.66,166.38,584.43Zm0-1.13c1.86.26,3.65.61,5.36,1a14.1,14.1,0,0,0,1.14-1.77,12.08,12.08,0,0,0,.58-1.23c-3.26-.28-5.89-.7-7.09-.91Zm-7.76-.56a54.49,54.49,0,0,1,6.64.42V579l.67.13a79.56,79.56,0,0,0,7.93,1A12.63,12.63,0,0,0,172,569.63a16.51,16.51,0,0,0-1.64-2.11h-4.43v7h-13.1a14,14,0,0,0,3.13,4.78l.84.8-1.15.15c-1.11.15-2.09,1.68-2.65,2.82A47.38,47.38,0,0,1,158.62,582.74Zm12.24-16.35H229.6a4.25,4.25,0,0,0-2-2.56l-1.86-.8,2-.27c3.06-.41,10.76-1.87,13.72-4.08H159.38v2.8A15.53,15.53,0,0,1,170.86,566.39Z" transform="translate(-142.04 -548.05)"/><path class="cls-2" d="M334.13,682.83H333v-56.5a40.07,40.07,0,0,1-3.83-1.43v57.92h-1.12V624.4c-4-1.89-8.77-5-8.77-9.4V590.15a18.68,18.68,0,0,1-5.81-4.6,68.78,68.78,0,0,0-15.76,5.85l-.66.37-.16-.74a15,15,0,0,1-.14-6.14c-3.5-1.06-4.58-6.24-4.62-6.47l-.24-1.22,1.07.62c4.51,2.62,11.85,2.82,17.7,2.44a13.75,13.75,0,0,1,2-11.26,17.19,17.19,0,0,1,1.1-1.5H254.65l.13-.67a7.06,7.06,0,0,1,1.62-3.19c-3.4-.56-12-2.25-14-5.22l-.59-.87h85.61v5.12l-.61-.05a14,14,0,0,0-10.38,3.76h4.42v7h13.43l-.16.69a13.31,13.31,0,0,1-3,5.37c1.81,1,2.87,3.75,3,4.11l.32.88-.93-.13a49.42,49.42,0,0,0-13.08,0v5.14a32.08,32.08,0,0,0,11.77,2.89h.55v8.54l-.69-.16a1.82,1.82,0,0,0-1.43.41c-.65.53-1.43,1.81-1.43,4.92v17.63a38.68,38.68,0,0,0,4.54,1.71l.41.12ZM320.41,590.7V615c0,3.59,4,6.38,7.65,8.15V606c0-2.87.63-4.83,1.88-5.82a3,3,0,0,1,1.67-.65v-6.16A32.73,32.73,0,0,1,320.41,590.7Zm-26.83-11.29c.53,1.57,1.73,4.17,4,4.52l.65.1-.21.63a12.47,12.47,0,0,0-.12,5.42,72.08,72.08,0,0,1,14.88-5.48,15.68,15.68,0,0,1-.94-1.52,13.22,13.22,0,0,1-.76-1.67C305.46,581.78,298.45,581.65,293.58,579.41Zm21.14,5.86a17.64,17.64,0,0,0,4.57,3.57v-4.41C317.71,584.66,316.18,584.95,314.72,585.27Zm-2.52-4a12.06,12.06,0,0,0,.58,1.23,14.18,14.18,0,0,0,1.14,1.78c1.71-.39,3.5-.74,5.36-1v-2.92C318.09,580.6,315.46,581,312.2,581.3Zm8.21-2.27v4.12a51,51,0,0,1,12.25-.09c-.56-1.14-1.54-2.67-2.65-2.82l-1.15-.15.84-.8a14.06,14.06,0,0,0,3.13-4.78h-13.1v-7h-4.43a16.42,16.42,0,0,0-1.64,2.11,12.63,12.63,0,0,0-1.84,10.56,79.52,79.52,0,0,0,7.93-1Zm-64.33-12.64h58.74a15.5,15.5,0,0,1,11.48-4.91v-2.8H244.2c3,2.2,10.67,3.66,13.72,4.08l2,.27-1.86.8A4.25,4.25,0,0,0,256.07,566.39Z" transform="translate(-142.04 -548.05)"/><path class="cls-2" d="M327.41,820.74H241.8l.59-.87c2-3,10.61-4.66,14-5.22a7.06,7.06,0,0,1-1.62-3.18l-.13-.67h59.16a17.31,17.31,0,0,1-1.1-1.5,13.75,13.75,0,0,1-2-11.26c-5.86-.38-13.19-.18-17.7,2.44l-1.07.62.24-1.22c0-.23,1.12-5.41,4.62-6.47a15,15,0,0,1,.14-6.14l.16-.74.66.37a68.88,68.88,0,0,0,15.76,5.85,18.68,18.68,0,0,1,5.81-4.6V763.31c0-4.35,4.77-7.52,8.77-9.4V685.77h1.12V753.4A39.79,39.79,0,0,1,333,752V685.77h1.12v67l-.41.12a38.93,38.93,0,0,0-4.54,1.71v17.63c0,3.13.79,4.42,1.45,4.94a1.82,1.82,0,0,0,1.41.4l.69-.16V786h-.55a32.13,32.13,0,0,0-11.77,2.89V794a49.41,49.41,0,0,0,13.08,0l.93-.13-.32.88c-.13.36-1.2,3.15-3,4.11a13.31,13.31,0,0,1,3,5.37l.16.69H320.84v7h-4.42a14,14,0,0,0,10.38,3.76l.61,0Zm-83.21-1.12h82.09v-2.8a15.49,15.49,0,0,1-11.48-4.91H256.07a4.25,4.25,0,0,0,2,2.57l1.86.8-2,.27C254.87,816,247.17,817.42,244.2,819.62Zm71.09-8.83h4.43v-7h13.1a14,14,0,0,0-3.13-4.78l-.84-.8,1.15-.15c1.11-.15,2.09-1.68,2.65-2.82a50.9,50.9,0,0,1-12.25-.09v4.12l-.67-.13a79,79,0,0,0-7.93-1,12.63,12.63,0,0,0,1.84,10.56A16.48,16.48,0,0,0,315.29,810.79Zm-17.43-22.55a12.48,12.48,0,0,0,.12,5.41l.21.63-.65.1c-2.23.34-3.43,2.95-4,4.52,4.87-2.25,11.88-2.37,17.46-2a13.27,13.27,0,0,1,.76-1.67,15.55,15.55,0,0,1,.94-1.52A72.09,72.09,0,0,1,297.86,788.24ZM312.2,797c3.26.28,5.89.7,7.09.91V795c-1.86-.27-3.65-.61-5.36-1a14,14,0,0,0-1.14,1.77A12,12,0,0,0,312.2,797Zm2.52-4c1.47.32,3,.61,4.57.83v-4.41A17.62,17.62,0,0,0,314.72,793Zm13.34-37.87c-3.62,1.78-7.65,4.56-7.65,8.15V787.6a32.77,32.77,0,0,1,11.2-2.71v-6.16a3,3,0,0,1-1.67-.65c-1.25-1-1.88-2.94-1.88-5.82Z" transform="translate(-142.04 -548.05)"/><path class="cls-2" d="M243.87,820.74H158.26v-5.12l.61,0a14,14,0,0,0,10.38-3.76h-4.42v-7H151.4l.16-.69a13.31,13.31,0,0,1,3-5.37c-1.81-1-2.87-3.75-3-4.11l-.32-.88.93.13a49.41,49.41,0,0,0,13.08,0v-5.14A32.08,32.08,0,0,0,153.49,786h-.55v-8.54l.69.16a1.82,1.82,0,0,0,1.43-.41c.65-.53,1.43-1.81,1.43-4.92V754.64a39,39,0,0,0-4.54-1.71l-.41-.12v-67h1.12V752a39.79,39.79,0,0,1,3.83,1.43V685.77h1.12v68.14c4,1.89,8.77,5.05,8.77,9.4v24.84a18.68,18.68,0,0,1,5.81,4.6,68.81,68.81,0,0,0,15.76-5.85l.66-.37.16.74a15,15,0,0,1,.14,6.14c3.5,1.06,4.58,6.24,4.62,6.47l.24,1.22-1.07-.62c-4.51-2.62-11.85-2.82-17.7-2.44a13.75,13.75,0,0,1-2,11.26,17.35,17.35,0,0,1-1.1,1.5H231l-.13.67a7.06,7.06,0,0,1-1.62,3.18c3.4.56,12,2.25,14,5.22Zm-84.49-1.12h82.09c-3-2.21-10.67-3.66-13.72-4.08l-2-.27,1.86-.8a4.23,4.23,0,0,0,2-2.57H170.86a15.58,15.58,0,0,1-11.48,4.91Zm6.56-8.83h4.43a16.57,16.57,0,0,0,1.64-2.11,12.63,12.63,0,0,0,1.84-10.56,78.83,78.83,0,0,0-7.93,1l-.67.13v-4.12a51,51,0,0,1-12.25.09c.56,1.14,1.54,2.67,2.65,2.82l1.15.15-.84.8a14,14,0,0,0-3.13,4.78h13.1Zm13.37-14c4.47,0,9.2.51,12.77,2.16-.53-1.57-1.73-4.17-4-4.52l-.65-.1.21-.63a12.47,12.47,0,0,0,.12-5.41,72.08,72.08,0,0,1-14.88,5.48,15.53,15.53,0,0,1,.94,1.52,13.12,13.12,0,0,1,.76,1.67C176.12,796.81,177.7,796.74,179.32,796.74ZM166.38,795v2.92c1.19-.21,3.83-.64,7.09-.91a12.07,12.07,0,0,0-.58-1.23,14.11,14.11,0,0,0-1.14-1.78C170,794.39,168.24,794.73,166.38,795Zm0-5.54v4.41c1.58-.23,3.1-.51,4.57-.84A17.67,17.67,0,0,0,166.38,789.46Zm-12.32-4.57a32.77,32.77,0,0,1,11.2,2.71V763.31c0-3.59-4-6.37-7.65-8.15v17.11c0,2.87-.63,4.83-1.88,5.82a3,3,0,0,1-1.67.65Z" transform="translate(-142.04 -548.05)"/><path class="cls-2" d="M219,663.52H184.63V662.4h32.84a29.84,29.84,0,0,1-1-5c-1.1,1.52-3,3.67-5.22,3.82-1.8.12-2.16-.78-2.23-1.17a2.22,2.22,0,0,1,1.41-2.24l.32,1.07a1.18,1.18,0,0,0-.63,1c0,.19.45.29,1.05.25,2.72-.18,5.26-4.69,5.28-4.73l1.09-2,0,2.24a26.52,26.52,0,0,0,1.28,7.15Z" transform="translate(-142.04 -548.05)"/><path class="cls-2" d="M236,684H204.77V682.9c.11,0,10.92-.11,13.16-8.06a4.67,4.67,0,0,0-1-4.93,4.15,4.15,0,0,0-4.14-.88c-1.59.59-2,1.62-1.87,2.38a1.23,1.23,0,0,0,1.17,1.08v1.12a2.33,2.33,0,0,1-2.27-2c-.21-1.16.34-2.8,2.58-3.63a5.28,5.28,0,0,1,5.29,1.11,5.8,5.8,0,0,1,1.36,6.05c-1.24,4.42-4.82,6.64-8.08,7.75h20.73a28.45,28.45,0,0,1-12.36-16.52H189.48c5.95,1.57,15.6,4.75,17.71,9.32h6.52v1.12h-7.28l-.13-.37c-2.28-6.21-21.58-10-21.77-10.08l.11-1.11h35.57l.08.46A27.16,27.16,0,0,0,234,683Z" transform="translate(-142.04 -548.05)"/><path class="cls-2" d="M245.11,686.2l-2.59-.86a33.76,33.76,0,0,1-13.14-8.53h-8.66v-1.12h9.16l.17.19a33.93,33.93,0,0,0,10.12,7.32c-3.76-3.66-11.06-11.44-11-16.59a4.15,4.15,0,0,1,1.43-3.25c1.68-1.46,3-1.3,3.69-1.07a3.1,3.1,0,0,1,2,2.4,3.34,3.34,0,0,1-1.12,3.19l-.73-.85a2.23,2.23,0,0,0,.75-2.13,2,2,0,0,0-1.23-1.55,2.72,2.72,0,0,0-2.59.85,3,3,0,0,0-1.05,2.41c0,6.29,12.69,17.66,12.82,17.78Z" transform="translate(-142.04 -548.05)"/><path class="cls-2" d="M228.06,677.42l-2.45-3.34c-.42-.57-10.23-14.14-6.37-24.87,2.76-7.69,7-9.82,9.34-10.41a7.83,7.83,0,0,1,7.24,1.74c1.27,1.13,1.54,3,.74,5.07a10,10,0,0,1-3.31,4.31c0,.15.08.3.1.46.55,3-1.2,6.54-4.68,9.34-5.56,4.48-2.12,13.73-2.08,13.82Zm2.55-37.75a7.05,7.05,0,0,0-1.75.22c-3.55.9-6.67,4.44-8.56,9.7-2.62,7.3,1.67,16.33,4.34,20.89-.58-3.38-.6-8.46,3.33-11.63,3.11-2.5,4.75-5.67,4.28-8.27h0a6.26,6.26,0,0,1-3,.81v-1.12a5.29,5.29,0,0,0,2.64-.77,4.22,4.22,0,0,0-2.58-2.18A3.64,3.64,0,0,0,225,649a5.11,5.11,0,0,0,.36,6.22l-.82.76a6.23,6.23,0,0,1-.48-7.58,4.76,4.76,0,0,1,5.64-2.16,5.38,5.38,0,0,1,3.15,2.6,8.89,8.89,0,0,0,2.68-3.63c.29-.77.84-2.7-.44-3.84A6.68,6.68,0,0,0,230.61,639.67Z" transform="translate(-142.04 -548.05)"/><path class="cls-2" d="M301,663.52H266.67l.24-.74a26.53,26.53,0,0,0,1.28-7.15l0-2.24,1.09,2s2.56,4.55,5.28,4.73c.59,0,1-.06,1.06-.25a1.18,1.18,0,0,0-.63-1l.32-1.07a2.22,2.22,0,0,1,1.41,2.24c-.07.39-.44,1.29-2.23,1.17-2.18-.15-4.12-2.3-5.22-3.82a29.84,29.84,0,0,1-1,5H301Z" transform="translate(-142.04 -548.05)"/><path class="cls-2" d="M280.9,684H249.71l2-1.05a27.1,27.1,0,0,0,13.7-17.25l.08-.46H301l.11,1.11c-.2,0-19.49,3.87-21.77,10.08l-.13.37H272v-1.12h6.52c2.11-4.57,11.76-7.75,17.71-9.32H266.38A28.46,28.46,0,0,1,254,682.9h20.73c-3.26-1.11-6.83-3.33-8.08-7.75a5.8,5.8,0,0,1,1.36-6.05,5.29,5.29,0,0,1,5.29-1.11c2.24.83,2.79,2.47,2.58,3.63a2.33,2.33,0,0,1-2.27,2v-1.12a1.22,1.22,0,0,0,1.17-1.08c.14-.77-.28-1.8-1.87-2.38a4.15,4.15,0,0,0-4.14.88,4.67,4.67,0,0,0-1,4.93c2.24,8,13,8.06,13.15,8.06Z" transform="translate(-142.04 -548.05)"/><path class="cls-2" d="M240.56,686.2l2-1.81c.13-.11,12.85-11.49,12.82-17.78a3,3,0,0,0-1-2.41,2.73,2.73,0,0,0-2.59-.85,2,2,0,0,0-1.23,1.55,2.23,2.23,0,0,0,.75,2.13l-.73.85a3.33,3.33,0,0,1-1.12-3.19,3.1,3.1,0,0,1,2-2.4c.66-.23,2-.4,3.69,1.07a4.15,4.15,0,0,1,1.43,3.25c0,5.15-7.28,12.93-11,16.59a33.92,33.92,0,0,0,10.12-7.32l.17-.19h9.16v1.12h-8.66a33.74,33.74,0,0,1-13.14,8.53Z" transform="translate(-142.04 -548.05)"/><path class="cls-2" d="M257.62,677.41l1.46-3.86c0-.09,3.47-9.35-2.08-13.82-3.48-2.8-5.23-6.29-4.68-9.34,0-.16.06-.31.1-.46a10,10,0,0,1-3.31-4.31c-.8-2.1-.53-3.95.74-5.07a7.82,7.82,0,0,1,7.24-1.74c2.3.59,6.58,2.72,9.34,10.41,3.86,10.73-6,24.3-6.37,24.87Zm-4.2-26.84h0c-.47,2.6,1.17,5.77,4.28,8.27,3.93,3.17,3.91,8.25,3.33,11.63,2.67-4.56,7-13.59,4.35-20.89-1.89-5.26-5-8.79-8.56-9.7a6.73,6.73,0,0,0-6.22,1.49c-1.28,1.14-.73,3.06-.44,3.84a8.9,8.9,0,0,0,2.68,3.63,5.39,5.39,0,0,1,3.15-2.6,4.76,4.76,0,0,1,5.64,2.16,6.23,6.23,0,0,1-.48,7.58l-.82-.76a5.11,5.11,0,0,0,.36-6.22,3.63,3.63,0,0,0-4.34-1.71,4.22,4.22,0,0,0-2.58,2.18,5.27,5.27,0,0,0,2.64.77v1.12A6.27,6.27,0,0,1,253.41,650.57Z" transform="translate(-142.04 -548.05)"/><path class="cls-2" d="M243,681.28l-15.63-35.1.1-.23L243,611.08l15.63,35.1-.1.23Zm-14.4-35.1L243,678.53l14.4-32.35L243,613.83Z" transform="translate(-142.04 -548.05)"/><path class="cls-2" d="M243,661.08l-6.64-14.91L243,631.27l6.64,14.91Zm-5.41-14.91L243,658.33l5.41-12.15L243,634Z" transform="translate(-142.04 -548.05)"/><path class="cls-2" d="M268.15,724.91l0-2.24a26.51,26.51,0,0,0-1.28-7.15l-.24-.74H301v1.12H268.2a29.85,29.85,0,0,1,1,5c1.1-1.52,3-3.67,5.22-3.82,1.8-.13,2.16.78,2.23,1.17a2.21,2.21,0,0,1-1.41,2.24l-.32-1.07a1.18,1.18,0,0,0,.63-1c0-.19-.46-.29-1.06-.25-2.72.18-5.26,4.69-5.28,4.73Z" transform="translate(-142.04 -548.05)"/><path class="cls-2" d="M301,713.05H265.46l-.09-.46a27.16,27.16,0,0,0-13.7-17.25l-2-1.05H280.9v1.12c-.11,0-10.92.11-13.16,8.06a4.67,4.67,0,0,0,1,4.93,4.15,4.15,0,0,0,4.14.88c1.59-.59,2-1.62,1.87-2.39a1.22,1.22,0,0,0-1.17-1.07V704.7a2.33,2.33,0,0,1,2.27,2c.21,1.16-.34,2.8-2.58,3.63a5.28,5.28,0,0,1-5.29-1.11,5.81,5.81,0,0,1-1.36-6.06c1.24-4.42,4.82-6.64,8.08-7.75H254a28.46,28.46,0,0,1,12.36,16.52h29.81c-5.95-1.57-15.6-4.75-17.71-9.32H272v-1.12h7.28l.13.37c2.28,6.21,21.58,10,21.77,10.08Z" transform="translate(-142.04 -548.05)"/><path class="cls-2" d="M252.32,716.17a2.78,2.78,0,0,1-.92-.15,3.1,3.1,0,0,1-2-2.4,3.33,3.33,0,0,1,1.12-3.19l.73.85a2.23,2.23,0,0,0-.75,2.13,2,2,0,0,0,1.23,1.55,2.74,2.74,0,0,0,2.59-.85,3,3,0,0,0,1-2.41c0-6.29-12.69-17.66-12.82-17.78l-2-1.81,2.59.86a33.73,33.73,0,0,1,13.14,8.53h8.66v1.12h-9.16l-.17-.19a33.9,33.9,0,0,0-10.12-7.32c3.76,3.66,11.06,11.44,11,16.6A4.16,4.16,0,0,1,255.1,715,4.25,4.25,0,0,1,252.32,716.17Z" transform="translate(-142.04 -548.05)"/><path class="cls-2" d="M255.05,739.75a7.79,7.79,0,0,1-5.21-2c-1.27-1.13-1.54-3-.74-5.07a10,10,0,0,1,3.31-4.31c0-.15-.07-.3-.1-.46-.55-3,1.2-6.54,4.68-9.34,5.55-4.47,2.12-13.73,2.08-13.82l-1.46-3.86,2.44,3.32c.42.57,10.23,14.14,6.37,24.87-2.76,7.69-7,9.82-9.34,10.4A8.28,8.28,0,0,1,255.05,739.75Zm-2.23-10.31a8.9,8.9,0,0,0-2.68,3.63c-.29.77-.84,2.7.44,3.84a6.73,6.73,0,0,0,6.22,1.49c3.55-.91,6.67-4.44,8.56-9.7,2.62-7.3-1.67-16.33-4.34-20.89.58,3.38.6,8.46-3.33,11.63-3.11,2.5-4.75,5.67-4.28,8.27h0a6.26,6.26,0,0,1,3-.82V728a5.28,5.28,0,0,0-2.64.77,4.22,4.22,0,0,0,2.58,2.18,3.64,3.64,0,0,0,4.34-1.71,5.11,5.11,0,0,0-.36-6.22l.82-.76a6.23,6.23,0,0,1,.48,7.58A4.76,4.76,0,0,1,256,732,5.39,5.39,0,0,1,252.83,729.45Z" transform="translate(-142.04 -548.05)"/><path class="cls-2" d="M217.52,724.91l-1.09-2s-2.56-4.55-5.28-4.73c-.6,0-1,.06-1.06.25a1.18,1.18,0,0,0,.63,1l-.32,1.07a2.22,2.22,0,0,1-1.41-2.24c.07-.39.43-1.29,2.23-1.17,2.18.15,4.12,2.3,5.22,3.82a29.94,29.94,0,0,1,1-5H184.63v-1.12H219l-.24.74a26.56,26.56,0,0,0-1.28,7.15Z" transform="translate(-142.04 -548.05)"/><path class="cls-2" d="M220.21,713.05H184.63l-.11-1.11c.19,0,19.49-3.87,21.77-10.08l.13-.37h7.28v1.12h-6.52c-2.11,4.57-11.76,7.75-17.71,9.32h29.82a28.45,28.45,0,0,1,12.36-16.52H210.93c3.26,1.11,6.83,3.33,8.08,7.75a5.81,5.81,0,0,1-1.36,6.06,5.28,5.28,0,0,1-5.29,1.11c-2.24-.83-2.79-2.47-2.58-3.63a2.33,2.33,0,0,1,2.27-2v1.12a1.22,1.22,0,0,0-1.17,1.07c-.14.77.28,1.8,1.87,2.39a4.14,4.14,0,0,0,4.14-.88,4.67,4.67,0,0,0,1-4.93c-2.24-8-13-8.06-13.15-8.06v-1.12H236l-2,1.05a27.09,27.09,0,0,0-13.7,17.25Z" transform="translate(-142.04 -548.05)"/><path class="cls-2" d="M233.35,716.17a4.24,4.24,0,0,1-2.78-1.21,4.15,4.15,0,0,1-1.43-3.25c0-5.16,7.28-12.94,11-16.6A33.9,33.9,0,0,0,230,702.42l-.17.19h-9.16v-1.12h8.66A33.74,33.74,0,0,1,242.52,693l2.59-.86-2,1.81c-.13.11-12.85,11.49-12.82,17.78a3,3,0,0,0,1,2.41,2.73,2.73,0,0,0,2.59.85,2,2,0,0,0,1.22-1.55,2.23,2.23,0,0,0-.75-2.13l.73-.85a3.33,3.33,0,0,1,1.12,3.19,3.1,3.1,0,0,1-2,2.4A2.78,2.78,0,0,1,233.35,716.17Z" transform="translate(-142.04 -548.05)"/><path class="cls-2" d="M230.61,739.75a8.27,8.27,0,0,1-2-.26c-2.3-.59-6.58-2.72-9.34-10.4-3.86-10.73,6-24.3,6.37-24.87l2.44-3.32-1.46,3.86c0,.09-3.46,9.35,2.08,13.82,3.48,2.8,5.23,6.29,4.68,9.34,0,.16-.06.31-.1.46a10,10,0,0,1,3.31,4.31c.8,2.1.53,3.94-.74,5.07A7.79,7.79,0,0,1,230.61,739.75Zm-6-31.93c-2.67,4.57-7,13.59-4.34,20.89,1.89,5.26,5,8.79,8.56,9.7a6.73,6.73,0,0,0,6.22-1.49c1.28-1.14.73-3.06.44-3.84a8.89,8.89,0,0,0-2.68-3.63,5.39,5.39,0,0,1-3.15,2.6,4.76,4.76,0,0,1-5.64-2.16,6.23,6.23,0,0,1,.48-7.58l.82.76a5.11,5.11,0,0,0-.36,6.22,3.64,3.64,0,0,0,4.34,1.71,4.22,4.22,0,0,0,2.58-2.18,5.29,5.29,0,0,0-2.64-.77v-1.12a6.25,6.25,0,0,1,3,.82h0c.47-2.6-1.17-5.77-4.28-8.27C224,716.28,224.06,711.2,224.64,707.82Z" transform="translate(-142.04 -548.05)"/><path class="cls-2" d="M242.7,767.23l-15.63-35.1.1-.23L242.7,697l15.63,35.1-.1.23Zm-14.4-35.1,14.4,32.35,14.4-32.35-14.4-32.35Z" transform="translate(-142.04 -548.05)"/><path class="cls-2" d="M242.7,747l-6.64-14.91,6.64-14.91,6.64,14.91Zm-5.41-14.91,5.41,12.15,5.41-12.15L242.7,720Z" transform="translate(-142.04 -548.05)"/></svg>