<svg id="black-jack" xmlns="http://www.w3.org/2000/svg" viewBox="0 0 329.65 342.21"><defs><style>.cls-1,.cls-6{fill:#fffc83;}.cls-2,.cls-3{fill:none;}.cls-2,.cls-3,.cls-4,.cls-5,.cls-6{stroke:#000;stroke-miterlimit:10;}.cls-2{stroke-linecap:round;}.cls-5{fill:#fff;}</style></defs><title>black_jack</title><path class="cls-1" d="M347,201.5l-28-11v178s4,35,35,45,46-11,46-11,10.7-14.27,9.37-26c-.17-1.45-.34-2.89-.48-4.34C407.7,360.32,397.5,352.7,391.13,349A32.69,32.69,0,0,0,381,345.32a49.09,49.09,0,0,0-14-.82c-9,1-15,9-15,9l-5,7Z" transform="translate(-90.67 -75.29)"/><path class="cls-2" d="M319,364.5c2,29,22.89,51.5,50.5,51.5a40,40,0,0,0,40-40c0-17.67-20.33-32-38-32a25.6,25.6,0,0,0-25.6,25.6,20.48,20.48,0,0,0,20.48,20.48,16.38,16.38,0,0,0,16.38-16.38,13.11,13.11,0,0,0-13.11-13.11" transform="translate(-90.67 -75.29)"/><line class="cls-3" x1="228.33" y1="124.21" x2="228.33" y2="289.21"/><line class="cls-2" x1="256.33" y1="138.21" x2="256.33" y2="286.21"/><path class="cls-4" d="M157.5,196.5s94-43,196,0l66-70L325.19,79.34a33.66,33.66,0,0,0-27.84-1L255.5,95.5,213.65,78.31a33.66,33.66,0,0,0-27.84,1L91.5,126.5Z" transform="translate(-90.67 -75.29)"/><path class="cls-1" d="M162.5,202.5l28-11v178s-4,35-35,45-46-11-46-11-10.7-14.27-9.37-26c.17-1.45.34-2.89.48-4.34C101.8,361.32,112,353.7,118.37,350a32.69,32.69,0,0,1,10.16-3.73,49.09,49.09,0,0,1,14-.82c9,1,15,9,15,9l5,7Z" transform="translate(-90.67 -75.29)"/><path class="cls-2" d="M190.5,365.5c-2,29-22.89,51.5-50.5,51.5a40,40,0,0,1-40-40c0-17.67,20.33-32,38-32a25.6,25.6,0,0,1,25.6,25.6,20.48,20.48,0,0,1-20.48,20.48,16.38,16.38,0,0,1-16.38-16.38,13.11,13.11,0,0,1,13.11-13.11" transform="translate(-90.67 -75.29)"/><line class="cls-3" x1="99.83" y1="125.21" x2="99.83" y2="290.21"/><line class="cls-2" x1="71.83" y1="139.21" x2="71.83" y2="287.21"/><path class="cls-5" d="M353.5,196.5l-7,18s-85-59-184,0l-5-18S251.5,134.5,353.5,196.5Z" transform="translate(-90.67 -75.29)"/><path class="cls-6" d="M273.76,285.93c-7.44-5.72-14-5.13-18.51-3.27-4.53-1.85-11.06-2.45-18.51,3.27-14.15,10.89-16.33,14.15-33.74,9.8,3.27,4.35,20.68,12,33.74,8.71,7.56-1.89,12.39-4,18.51-10.1,6.12,6.07,10.95,8.21,18.51,10.1,13.06,3.27,30.48-4.35,33.74-8.71C290.08,300.08,287.91,296.82,273.76,285.93Z" transform="translate(-90.67 -75.29)"/><path class="cls-6" d="M261.11,317.06a33.32,33.32,0,0,0-12.92-.07,9.42,9.42,0,0,0-7.58,10.42c1.66,13.07,10.19,22.47,13,25.25a1.08,1.08,0,0,0,1.63-.14c2.44-3.33,10.26-14.48,12.81-24.26A9.08,9.08,0,0,0,261.11,317.06Z" transform="translate(-90.67 -75.29)"/></svg>