<svg id="black-queen" xmlns="http://www.w3.org/2000/svg" viewBox="0 0 220.05 370.81"><defs><style>.cls-1,.cls-2,.cls-3,.cls-4,.cls-5{stroke:#000;stroke-linecap:round;}.cls-1,.cls-2,.cls-4,.cls-5{stroke-linejoin:round;}.cls-2{fill:#ffd217;}.cls-3,.cls-5{fill:none;}.cls-3{stroke-miterlimit:10;}.cls-4{fill:#d62d2d;}</style></defs><title>black_queen</title><path class="cls-1" d="M255.5,165.07s-15.15,49.14-56.82,64.29c0,0,48,248.76-30.31,188.15,0,0,11.41,6.27,20.2-2.53,16.42-16.42-10.1-224.77-10.1-224.77l27.78-22.73,44.2-5.05Z" transform="translate(-145.36 -56.72)"/><path class="cls-1" d="M256.13,165.06s9.47,45.37,60,59.26c0,0,32.83,169.21-20.2,197,0,0,18.94,6.31,34.09-18.94,12.33-20.54,2.53-212.14,2.53-212.14l-25.26-21.47-42.93-6.31Z" transform="translate(-145.36 -56.72)"/><path class="cls-2" d="M356.52,147.29s-31.57,24-44.2,22.73c0,0,13.29-6.3,24.77-12.64,10-5.5,16.21-16.17,15.38-27.51-1-14.19-12.9-27.44-55.31-21.73,0,0,7.58-7.58,10.1-12.63s1.26-20.2-18.94-5.05-27.15,34.09-32.2,42.93c-5.05-8.84-13.26-27.78-33.46-42.93s-21.47,0-18.94,5.05,10.1,12.63,10.1,12.63c-42.41-5.71-54.27,7.54-55.31,21.73-.83,11.34,5.43,22,15.38,27.51,11.48,6.34,24.77,12.64,24.77,12.64-12.63,1.26-44.2-22.73-44.2-22.73,30.31,26.52,24,42.93,24,42.93,18.78-18.78,64.15-24,75.2-25.05a26.39,26.39,0,0,1,4.91,0c10.9,1,55.19,6.29,73.94,25C332.53,190.22,326.21,173.81,356.52,147.29Z" transform="translate(-145.36 -56.72)"/><circle cx="124.67" cy="97.51" r="8.21"/><path d="M278.28,154.23a9.07,9.07,0,0,1-2.23,6,7.79,7.79,0,0,1-6,2.6,8.67,8.67,0,0,1-5.92-2.71,9,9,0,0,1-2.56-5.92,8.31,8.31,0,0,1,2.35-6.14,8.52,8.52,0,0,1,6.14-2.6,8.11,8.11,0,0,1,6,2.7A9.07,9.07,0,0,1,278.28,154.23Zm-.1,0a7.48,7.48,0,0,0-2.59-5.57,8.44,8.44,0,0,0-5.57-2.1,8,8,0,0,0-5.47,2.2,8.17,8.17,0,0,0-2.46,5.47,7.52,7.52,0,0,0,2.24,5.69A7.78,7.78,0,0,0,270,162a8.9,8.9,0,0,0,5.58-2.21A7.48,7.48,0,0,0,278.18,154.23Z" transform="translate(-145.36 -56.72)"/><path d="M275.73,159.88a30.25,30.25,0,0,0,24.47,5,28.33,28.33,0,0,0,11.37-5.63,28.87,28.87,0,0,0,8-9.87A24.15,24.15,0,0,0,317.3,125a22.49,22.49,0,0,0-9.93-7.93,19.43,19.43,0,0,0-12.6-.48,19,19,0,0,0-10.15,7.33,15.3,15.3,0,0,0,4.88,21.89,12.32,12.32,0,0,0,6,1.58,12.06,12.06,0,0,0,6-1.54,11.55,11.55,0,0,0,4.38-4.3,9.63,9.63,0,0,0-1.56-11.43,7.91,7.91,0,0,0-5.48-2.56,7.69,7.69,0,0,0-5.65,2.15,6.61,6.61,0,0,0-1.69,2.58,6.16,6.16,0,0,0-.22,3.07,6.28,6.28,0,0,0,1.28,2.82,5.66,5.66,0,0,0,2.49,1.85,5.07,5.07,0,0,0,5.7-1.69,0,0,0,0,1,.07,0,.05.05,0,0,1,0,.07,5.27,5.27,0,0,1-5.88,1.93,6.46,6.46,0,0,1-4.16-4.88,6.68,6.68,0,0,1,.19-3.34,7.19,7.19,0,0,1,1.78-2.83,8.35,8.35,0,0,1,6.1-2.44,8.7,8.7,0,0,1,6,2.69,10.56,10.56,0,0,1,3,5.93,10.31,10.31,0,0,1-1.18,6.58,12.56,12.56,0,0,1-4.75,4.71,13.14,13.14,0,0,1-12.93,0,16.29,16.29,0,0,1-7.62-10.56A15.87,15.87,0,0,1,284,123.49a19.69,19.69,0,0,1,10.63-7.42,20.2,20.2,0,0,1,12.88.68,23.67,23.67,0,0,1,10.08,8.07,25.5,25.5,0,0,1,4.7,12.07,24.66,24.66,0,0,1-2,12.86,29.52,29.52,0,0,1-19.9,15.91,28.62,28.62,0,0,1-13-.09,31.21,31.21,0,0,1-11.68-5.6,0,0,0,0,1,.06-.08Z" transform="translate(-145.36 -56.72)"/><path d="M236.57,160.16a30.75,30.75,0,0,1-11.8,5.52,31.14,31.14,0,0,1-13.09.14,30.71,30.71,0,0,1-12-5.31c-.85-.71-1.75-1.36-2.55-2.11s-1.6-1.53-2.29-2.39a26,26,0,0,1-3.71-5.47,24.51,24.51,0,0,1-2.48-12.84A25.56,25.56,0,0,1,193,125.44a25.29,25.29,0,0,1,2-2.59c.35-.42.77-.78,1.15-1.17a13.19,13.19,0,0,1,1.2-1.12A21.36,21.36,0,0,1,202.9,117a20.28,20.28,0,0,1,12.92-1.1,19.87,19.87,0,0,1,10.89,7.15,15.69,15.69,0,0,1,3,12.66,16.41,16.41,0,0,1-7.37,10.81,13.14,13.14,0,0,1-13,.35,12.81,12.81,0,0,1-4.89-4.61,10.31,10.31,0,0,1-1.33-6.59,10.4,10.4,0,0,1,2.92-6,8.86,8.86,0,0,1,6-2.81,8.34,8.34,0,0,1,6.17,2.36,7.3,7.3,0,0,1,1.83,2.83,6.75,6.75,0,0,1,.23,3.35,6.49,6.49,0,0,1-4.14,4.94,5.28,5.28,0,0,1-5.92-1.92.05.05,0,0,1,0-.07.05.05,0,0,1,.07,0,5.07,5.07,0,0,0,5.74,1.68,6.23,6.23,0,0,0,3.49-7.81,6.72,6.72,0,0,0-1.73-2.57,7.67,7.67,0,0,0-5.72-2.08,8.07,8.07,0,0,0-5.46,2.67,10.15,10.15,0,0,0-1.75,2.57,10,10,0,0,0-.83,3,9.63,9.63,0,0,0,1.26,6,11.81,11.81,0,0,0,4.51,4.22,12,12,0,0,0,6,1.41,12.51,12.51,0,0,0,5.94-1.74,15.42,15.42,0,0,0,7-10.1,15.13,15.13,0,0,0-2.7-12,19.21,19.21,0,0,0-10.41-7.08,19.44,19.44,0,0,0-12.64.89,21,21,0,0,0-5.45,3.45,11.62,11.62,0,0,0-1.19,1.1c-.37.39-.78.75-1.13,1.16a25,25,0,0,0-2,2.57,23.9,23.9,0,0,0-2.87,5.78,26,26,0,0,0-1.22,6.33,24,24,0,0,0,2.67,12.43,29.11,29.11,0,0,0,8.33,9.65,29.88,29.88,0,0,0,11.64,5.26,31.35,31.35,0,0,0,24.66-5,.05.05,0,0,1,.06.08Z" transform="translate(-145.36 -56.72)"/><path class="cls-3" d="M255.5,120.77" transform="translate(-145.36 -56.72)"/><path d="M256.22,162.44s17.36-28.41,0-28.41H256c-17.36,0,0,28.41,0,28.41" transform="translate(-145.36 -56.72)"/><path d="M256.18,162.41a87.57,87.57,0,0,0,6.63-16,22.37,22.37,0,0,0,.82-4.22,9.26,9.26,0,0,0-.46-4.21,5.2,5.2,0,0,0-2.84-3,10.17,10.17,0,0,0-4.19-.67,10.88,10.88,0,0,0-4.09.87,5.24,5.24,0,0,0-2.66,2.9,9.69,9.69,0,0,0-.5,4.09,22.82,22.82,0,0,0,.69,4.2,77.69,77.69,0,0,0,6.52,16.05.05.05,0,0,1,0,.07.05.05,0,0,1-.07,0,63.86,63.86,0,0,1-4.34-7.61,46.34,46.34,0,0,1-3.12-8.24,21.09,21.09,0,0,1-.7-4.41,10.65,10.65,0,0,1,.67-4.49,6,6,0,0,1,3.2-3.26,10.86,10.86,0,0,1,4.43-.7,11.67,11.67,0,0,1,4.33.9,6,6,0,0,1,3,3.17,11.19,11.19,0,0,1,.7,4.37,21.47,21.47,0,0,1-.57,4.39,42.53,42.53,0,0,1-3,8.26,58.4,58.4,0,0,1-4.34,7.61.05.05,0,0,1-.07,0A.05.05,0,0,1,256.18,162.41Z" transform="translate(-145.36 -56.72)"/><path d="M255.94,118.88S218.13,57,255.94,57h.38c37.81,0,0,61.88,0,61.88" transform="translate(-145.36 -56.72)"/><path d="M255.9,118.9a148.69,148.69,0,0,1-9.09-16.74,100.92,100.92,0,0,1-6.51-17.93,49.14,49.14,0,0,1-1.39-9.46,22.92,22.92,0,0,1,1.37-9.43,12.66,12.66,0,0,1,6.49-6.8,23.07,23.07,0,0,1,9.36-1.81,22.67,22.67,0,0,1,9.44,1.63,12.46,12.46,0,0,1,6.68,6.88,22.43,22.43,0,0,1,1.34,9.56,48.42,48.42,0,0,1-1.54,9.47,101.31,101.31,0,0,1-6.63,17.9,151.59,151.59,0,0,1-9.07,16.75,0,0,0,0,1-.07,0,.05.05,0,0,1,0-.07c6.12-11.08,11.6-22.63,14.78-34.84a51,51,0,0,0,1.5-9.28,21.47,21.47,0,0,0-1.17-9.15A12,12,0,0,0,265.25,59a22,22,0,0,0-9.12-1.78,21.68,21.68,0,0,0-9.21,1.59,12.3,12.3,0,0,0-3.83,2.66,12.09,12.09,0,0,0-2.49,3.94,21,21,0,0,0-1.14,9.27A50.17,50.17,0,0,0,241.1,84a119.67,119.67,0,0,0,6.41,17.81c2.57,5.78,5.38,11.47,8.47,17a.05.05,0,0,1,0,.07A.05.05,0,0,1,255.9,118.9Z" transform="translate(-145.36 -56.72)"/><circle cx="96.88" cy="97.51" r="8.21"/><path d="M250.5,154.23a9.07,9.07,0,0,1-2.23,6,7.79,7.79,0,0,1-6,2.6,8.67,8.67,0,0,1-5.92-2.71,9,9,0,0,1-2.56-5.92,8.31,8.31,0,0,1,2.35-6.14,8.52,8.52,0,0,1,6.14-2.6,8.11,8.11,0,0,1,6,2.7A9.07,9.07,0,0,1,250.5,154.23Zm-.1,0a7.48,7.48,0,0,0-2.59-5.57,8.44,8.44,0,0,0-5.57-2.1,8,8,0,0,0-5.47,2.2,8.17,8.17,0,0,0-2.46,5.47,7.52,7.52,0,0,0,2.24,5.69,7.78,7.78,0,0,0,5.69,2.1,8.9,8.9,0,0,0,5.58-2.21A7.48,7.48,0,0,0,250.4,154.23Z" transform="translate(-145.36 -56.72)"/><circle cx="211.8" cy="89.93" r="8.21"/><path d="M365.41,146.66a9.07,9.07,0,0,1-2.23,6,7.79,7.79,0,0,1-6,2.6,8.67,8.67,0,0,1-5.92-2.71,9,9,0,0,1-2.56-5.92,8.31,8.31,0,0,1,2.35-6.14,8.52,8.52,0,0,1,6.14-2.6,8.11,8.11,0,0,1,6,2.7A9.07,9.07,0,0,1,365.41,146.66Zm-.1,0a7.48,7.48,0,0,0-2.59-5.57,8.44,8.44,0,0,0-5.57-2.1,8,8,0,0,0-5.47,2.2,8.17,8.17,0,0,0-2.46,5.47,7.52,7.52,0,0,0,2.24,5.69,7.78,7.78,0,0,0,5.69,2.1,8.9,8.9,0,0,0,5.58-2.21A7.48,7.48,0,0,0,365.31,146.66Z" transform="translate(-145.36 -56.72)"/><circle cx="8.49" cy="89.93" r="8.21"/><path d="M162.11,146.66a9.07,9.07,0,0,1-2.23,6,7.79,7.79,0,0,1-6,2.6,8.67,8.67,0,0,1-5.92-2.71,9,9,0,0,1-2.56-5.92,8.31,8.31,0,0,1,2.35-6.14,8.52,8.52,0,0,1,6.14-2.6,8.11,8.11,0,0,1,6,2.7A9.07,9.07,0,0,1,162.11,146.66Zm-.1,0a7.48,7.48,0,0,0-2.59-5.57,8.44,8.44,0,0,0-5.57-2.1,8,8,0,0,0-5.47,2.2,8.17,8.17,0,0,0-2.46,5.47,7.52,7.52,0,0,0,2.24,5.69,7.78,7.78,0,0,0,5.69,2.1,8.9,8.9,0,0,0,5.58-2.21A7.48,7.48,0,0,0,162,146.66Z" transform="translate(-145.36 -56.72)"/><path class="cls-4" d="M256.13,292.51A41.59,41.59,0,0,0,279.81,285s-6.13-6.24-11.34-10.62a8.34,8.34,0,0,0-7-2.3c-1.16.11-3.64,3.23-5.38,3.23s-4.22-3.11-5.38-3.23a8.34,8.34,0,0,0-7,2.3c-5.22,4.38-11.34,10.62-11.34,10.62A41.75,41.75,0,0,0,256.13,292.51Z" transform="translate(-145.36 -56.72)"/><path class="cls-5" d="M279.27,285c-14,0-11.84-4.3-23.68-4.3S247,285,233,285" transform="translate(-145.36 -56.72)"/><path class="cls-2" d="M275.7,297.27" transform="translate(-145.36 -56.72)"/></svg>