<svg id="black-king" xmlns="http://www.w3.org/2000/svg" viewBox="0 0 245.77 448.06"><defs><style>.cls-1{fill:#bcbcbc;}.cls-1,.cls-2,.cls-3,.cls-4{stroke:#000;stroke-miterlimit:10;}.cls-1,.cls-3{stroke-linecap:round;}.cls-2{fill:#ffd217;}.cls-3{fill:#fff;}</style></defs><title>black_king</title><path class="cls-1" d="M362.1,306c-11.9-21.44-12.86-51.21-12.86-51.21,5.38,29.06,24.76,23.68,24.76,23.68-21.53,0-14-78.58-14-78.58l-31.76-9.69V316.18s-2.15,9.69-28-7.54-44.67-2.15-44.67-2.15-18.84-15.07-44.67,2.15-28,7.54-28,7.54V190.24l-33.37,9.69s7.54,78.58-14,78.58c0,0,19.38,5.38,24.76-23.68,0,0-1,29.77-12.86,51.21a73.06,73.06,0,0,0-7.9,20.46c-7.9,37.94,6.41,93.45,17.53,102.72,0,0-11.84-39.83,0-48.44,0,0-5.69,14.21,14.7,36.86a104.85,104.85,0,0,0,29.61,22.72c39.66,20.64,52.21,24.25,54.19,35.14,2-10.9,12.91-14.5,52.57-35.14a104.85,104.85,0,0,0,29.61-22.72c20.39-22.65,14.7-36.86,14.7-36.86,11.84,8.61,0,48.44,0,48.44,11.12-9.26,25.43-64.78,17.53-102.72A73.06,73.06,0,0,0,362.1,306Z" transform="translate(-131.9 -30.24)"/><path class="cls-2" d="M333.86,135.78,307.53,53.06l-26.33,67.8L254.87,32l-26.33,88.86-26.33-67.8-26.33,82.72L149.56,92.56V204.77s47.36-19.91,103.34-19.91C307.8,183.78,360,204.77,360,204.77V92.56Z" transform="translate(-131.9 -30.24)"/><polygon class="cls-3" points="123.69 296.71 95.91 315.01 123.69 315.01 151.48 315.01 123.69 296.71"/><ellipse class="cls-4" cx="123.15" cy="116.94" rx="13.99" ry="23.68"/><ellipse class="cls-4" cx="179.13" cy="125.55" rx="13.99" ry="23.68"/><ellipse class="cls-4" cx="71.48" cy="125.55" rx="13.99" ry="23.68"/><path class="cls-4" d="M359.47,196.7c-7.73,0-14-10.6-14-23.68s6.27-23.68,14-23.68" transform="translate(-131.9 -30.24)"/><path class="cls-4" d="M150.1,196.7c7.73,0,14-10.6,14-23.68s-6.27-23.68-14-23.68" transform="translate(-131.9 -30.24)"/></svg>