<svg id="Layer_1" data-name="Layer 1" xmlns="http://www.w3.org/2000/svg" viewBox="0 0 201.58 282.22"><defs><style>.cls-1{fill:#14110d;}.cls-2{fill:#fff;}</style></defs><title>cards_back_3</title><path class="cls-1" d="M796.85,159.43a10.08,10.08,0,0,0-10.08-10.08H605.34a10.08,10.08,0,0,0-10.08,10.08h0V421.49a10.08,10.08,0,0,0,10.08,10.08H786.77a10.08,10.08,0,0,0,10.08-10.08V159.43Z" transform="translate(-595.27 -149.35)"/><path class="cls-2" d="M786.77,291a.56.56,0,0,1-.56-.56v-12.6l-5.68-9.51a.56.56,0,0,1-.08-.29v-8.68a.56.56,0,0,1,.56-.56h2.19V233.29a37.08,37.08,0,0,1-2.64-3.16v2.93a.56.56,0,0,1-.88.46c-6-4.23-8.6-13.28-7.51-19.23.6-3.31,2.29-5.48,4.75-6.11a5.51,5.51,0,0,1,4.71.7c2.11,1.47,3,4.31,3.36,5.95.94-1.42,2.15-4.45-.68-8.54-2-2.88-4.85-4-7.87-5.08-3.9-1.46-7.94-3-9.89-8.6-.92-2.66-.16-6.15,1.94-8.89a11.18,11.18,0,0,1,9.85-4.36,9.54,9.54,0,0,1,8.73,7.4c.81,3.41-.38,6.63-3,8.22a5.19,5.19,0,0,1-6.36-.32,5.42,5.42,0,0,1-1.72-5.92A3.85,3.85,0,0,1,779.9,186a2.15,2.15,0,0,1,2,1.71c.26,1.68-1.3,2.58-2.16,2.82a.56.56,0,0,1-.31-1.08c.06,0,1.53-.46,1.36-1.57a1.09,1.09,0,0,0-1-.77,2.75,2.75,0,0,0-2.77,2,4.34,4.34,0,0,0,1.41,4.65,4.13,4.13,0,0,0,5.06.21c2.26-1.35,3.22-4,2.51-7a8.44,8.44,0,0,0-7.72-6.54,10,10,0,0,0-8.89,3.92c-1.85,2.41-2.56,5.57-1.77,7.84,1.78,5.13,5.39,6.49,9.22,7.92,3,1.14,6.2,2.32,8.39,5.49,4.48,6.48-.16,10.85-.21,10.89a.56.56,0,0,1-.93-.36s-.51-4.59-3.09-6.39a4.45,4.45,0,0,0-3.79-.53c-2,.52-3.41,2.37-3.93,5.23-1,5.33,1.29,13.31,6.17,17.43v-3.38a20.06,20.06,0,0,1-3.24-7.31,6.41,6.41,0,0,1,.86-5.14,4.43,4.43,0,0,1,2.89-1.66.56.56,0,0,1,.61.56v13.19a36.84,36.84,0,0,0,3.6,4.48.56.56,0,0,1,.16.39v25.76h2.45a.56.56,0,0,1,.41.94l-3,3.22a.56.56,0,0,1-1-.38v-2.66h-1.63v8l5.68,9.51a.55.55,0,0,1,.08.29v12.75A.56.56,0,0,1,786.77,291Zm-2.45-31.08v1.24l1.16-1.24Zm-4.88-44.23a3.27,3.27,0,0,0-1.5,1.08,5.39,5.39,0,0,0-.63,4.25,16.69,16.69,0,0,0,2.14,5.37Z" transform="translate(-595.27 -149.35)"/><path class="cls-2" d="M783.89,201.13a.56.56,0,0,1-.42-.19,6.35,6.35,0,0,0-3.1-1.65,17.37,17.37,0,0,1-7.28-4.21,5.87,5.87,0,0,1-2.08-4.52c.07-3.71,3.7-6.85,3.86-7a.56.56,0,0,1,.73.85s-3.4,3-3.47,6.16a4.8,4.8,0,0,0,1.72,3.67,16.4,16.4,0,0,0,6.87,4,10.28,10.28,0,0,1,2.61,1.12v-4.86a.56.56,0,0,1,1.12,0v6.08a.56.56,0,0,1-.56.56Z" transform="translate(-595.27 -149.35)"/><path class="cls-2" d="M780,188.59a.56.56,0,0,1-.56-.56V166.76H758.17a.56.56,0,0,1,0-1.12H780a.56.56,0,0,1,.56.56V188A.56.56,0,0,1,780,188.59Z" transform="translate(-595.27 -149.35)"/><path class="cls-2" d="M756,180a7.36,7.36,0,0,1-2.41-.39c-5.63-2-7.14-6-8.6-9.89-1.13-3-2.2-5.87-5.08-7.87-4.12-2.85-7.14-1.63-8.55-.68,1.64.35,4.49,1.25,6,3.36a5.52,5.52,0,0,1,.7,4.71c-.63,2.46-2.8,4.15-6.11,4.75-6,1.09-15-1.48-19.23-7.51a.56.56,0,0,1,.46-.88h2.93a37,37,0,0,1-3.16-2.64H691.18a.56.56,0,1,1,0-1.12h22a.56.56,0,0,1,.39.16,37,37,0,0,0,4.48,3.6H731.2a.56.56,0,0,1,.56.61,4.43,4.43,0,0,1-1.66,2.89A6.41,6.41,0,0,1,725,170a20.06,20.06,0,0,1-7.31-3.24h-3.37c4.11,4.88,12.11,7.14,17.43,6.17,2.85-.52,4.71-1.92,5.23-3.93a4.45,4.45,0,0,0-.53-3.79c-1.8-2.59-6.34-3.09-6.39-3.09a.56.56,0,0,1-.35-.94s4.41-4.69,10.89-.21c3.17,2.19,4.35,5.35,5.49,8.4,1.43,3.83,2.78,7.44,7.92,9.22,2.28.79,5.43.08,7.84-1.77a10,10,0,0,0,3.92-8.89,8.43,8.43,0,0,0-6.54-7.72c-3-.71-5.65.26-7,2.51a4.13,4.13,0,0,0,.21,5.06A4.35,4.35,0,0,0,757,169.2a2.76,2.76,0,0,0,2-2.77,1.1,1.1,0,0,0-.77-1.05c-1.13-.17-1.57,1.34-1.57,1.35a.56.56,0,1,1-1.08-.3c.24-.86,1.15-2.42,2.82-2.16a2.15,2.15,0,0,1,1.71,2,3.85,3.85,0,0,1-2.68,3.94,5.43,5.43,0,0,1-5.92-1.72,5.19,5.19,0,0,1-.32-6.36c1.58-2.65,4.81-3.84,8.22-3a9.54,9.54,0,0,1,7.4,8.73,11.19,11.19,0,0,1-4.36,9.85A10.91,10.91,0,0,1,756,180Zm-36.23-13.28a16.7,16.7,0,0,0,5.37,2.14,5.38,5.38,0,0,0,4.26-.63,3.27,3.27,0,0,0,1.08-1.5Z" transform="translate(-595.27 -149.35)"/><path class="cls-2" d="M755.51,175.19a5.89,5.89,0,0,1-4.4-2.08,17.37,17.37,0,0,1-4.21-7.28,6.34,6.34,0,0,0-1.65-3.1.56.56,0,0,1,.37-1h6.09a.56.56,0,1,1,0,1.12h-4.86a10.29,10.29,0,0,1,1.12,2.61,16.39,16.39,0,0,0,4,6.86,4.79,4.79,0,0,0,3.67,1.72c3.21-.06,6.12-3.43,6.15-3.46a.56.56,0,0,1,.85.73c-.13.15-3.27,3.78-7,3.86Z" transform="translate(-595.27 -149.35)"/><path class="cls-2" d="M783.89,182.87a.56.56,0,0,1-.56-.56V162.87H763.89a.56.56,0,0,1,0-1.12h20a.56.56,0,0,1,.56.56v20A.56.56,0,0,1,783.89,182.87Z" transform="translate(-595.27 -149.35)"/><path class="cls-2" d="M605.34,291a.56.56,0,0,1-.56-.56V277.71a.56.56,0,0,1,.08-.29l5.68-9.51v-8h-1.63v2.66a.56.56,0,0,1-1,.38l-3-3.22a.56.56,0,0,1,.41-.94h2.45V233.06a.56.56,0,0,1,.16-.39,36.93,36.93,0,0,0,3.6-4.48V215a.56.56,0,0,1,.18-.41.56.56,0,0,1,.43-.15,4.43,4.43,0,0,1,2.89,1.66,6.41,6.41,0,0,1,.86,5.14,20,20,0,0,1-3.24,7.31v3.38c4.88-4.12,7.14-12.1,6.17-17.43-.52-2.85-1.92-4.71-3.93-5.23a4.45,4.45,0,0,0-3.79.53c-2.58,1.8-3.09,6.34-3.09,6.39a.56.56,0,0,1-.93.36s-4.69-4.41-.21-10.89c2.19-3.17,5.35-4.35,8.4-5.49,3.83-1.43,7.44-2.78,9.22-7.92.79-2.28.08-5.43-1.77-7.84a10,10,0,0,0-8.89-3.92,8.43,8.43,0,0,0-7.72,6.54c-.71,3,.26,5.65,2.51,7a4.13,4.13,0,0,0,5.06-.21,4.35,4.35,0,0,0,1.41-4.65,2.76,2.76,0,0,0-2.77-2,1.1,1.1,0,0,0-1.05.77c-.17,1.13,1.34,1.57,1.35,1.57a.56.56,0,1,1-.3,1.08c-.86-.24-2.42-1.14-2.16-2.82a2.16,2.16,0,0,1,2-1.71,3.86,3.86,0,0,1,3.94,2.68,5.43,5.43,0,0,1-1.72,5.92,5.2,5.2,0,0,1-6.36.32c-2.65-1.58-3.84-4.81-3-8.22a9.54,9.54,0,0,1,8.73-7.4,11.17,11.17,0,0,1,9.85,4.36c2.1,2.74,2.86,6.23,1.94,8.89-2,5.63-6,7.14-9.89,8.6-3,1.13-5.87,2.2-7.87,5.08-2.83,4.1-1.62,7.13-.68,8.54.35-1.64,1.25-4.48,3.36-5.95a5.51,5.51,0,0,1,4.71-.7c2.46.63,4.15,2.8,4.75,6.11,1.09,6-1.48,15-7.51,19.23a.56.56,0,0,1-.88-.46v-2.93a37.46,37.46,0,0,1-2.64,3.16v25.53h2.19a.56.56,0,0,1,.56.56v8.68a.56.56,0,0,1-.08.29l-5.68,9.51v12.6A.56.56,0,0,1,605.34,291Zm1.29-31.08,1.16,1.24v-1.24Zm6-44.23v10.71a16.67,16.67,0,0,0,2.14-5.37,5.39,5.39,0,0,0-.63-4.25A3.26,3.26,0,0,0,612.68,215.71Z" transform="translate(-595.27 -149.35)"/><path class="cls-2" d="M608.23,201.13a.57.57,0,0,1-.2,0,.56.56,0,0,1-.36-.52v-6.08a.56.56,0,0,1,1.12,0v4.86a10.3,10.3,0,0,1,2.61-1.12,16.4,16.4,0,0,0,6.86-4,4.8,4.8,0,0,0,1.72-3.67c-.06-3.21-3.43-6.12-3.46-6.15a.56.56,0,1,1,.73-.85c.15.13,3.78,3.27,3.86,7a5.87,5.87,0,0,1-2.08,4.52,17.36,17.36,0,0,1-7.28,4.21,6.36,6.36,0,0,0-3.1,1.65A.56.56,0,0,1,608.23,201.13Z" transform="translate(-595.27 -149.35)"/><path class="cls-2" d="M612.12,188.59a.56.56,0,0,1-.56-.56V166.2a.56.56,0,0,1,.56-.56h21.83a.56.56,0,0,1,0,1.12H612.68V188A.56.56,0,0,1,612.12,188.59Z" transform="translate(-595.27 -149.35)"/><path class="cls-2" d="M636.1,180a10.92,10.92,0,0,1-6.48-2.33,11.19,11.19,0,0,1-4.36-9.85,9.54,9.54,0,0,1,7.4-8.73c3.41-.81,6.63.38,8.22,3a5.19,5.19,0,0,1-.32,6.36,5.43,5.43,0,0,1-5.92,1.72,3.85,3.85,0,0,1-2.68-3.94,2.16,2.16,0,0,1,1.71-2c1.68-.26,2.58,1.3,2.82,2.16a.56.56,0,0,1-1.08.31c0-.06-.45-1.53-1.57-1.36a1.1,1.1,0,0,0-.77,1.05,2.76,2.76,0,0,0,2,2.77,4.35,4.35,0,0,0,4.65-1.41,4.13,4.13,0,0,0,.21-5.06c-1.35-2.26-4-3.22-7-2.51a8.43,8.43,0,0,0-6.54,7.72,10,10,0,0,0,3.92,8.89c2.41,1.85,5.56,2.56,7.84,1.77,5.13-1.78,6.49-5.39,7.92-9.22,1.14-3,2.32-6.2,5.5-8.4,6.48-4.48,10.85.16,10.89.21a.56.56,0,0,1-.35.93s-4.59.51-6.39,3.1a4.45,4.45,0,0,0-.53,3.79c.52,2,2.37,3.41,5.23,3.93,5.32,1,13.31-1.29,17.43-6.17h-3.37a20.07,20.07,0,0,1-7.31,3.24,6.41,6.41,0,0,1-5.14-.86,4.43,4.43,0,0,1-1.66-2.89.56.56,0,0,1,.56-.61H674.1a36.88,36.88,0,0,0,4.48-3.6.56.56,0,0,1,.39-.16h22a.56.56,0,0,1,0,1.12H679.2a37.27,37.27,0,0,1-3.16,2.64H679a.56.56,0,0,1,.46.88c-4.23,6-13.27,8.6-19.23,7.51-3.31-.6-5.48-2.29-6.11-4.75a5.51,5.51,0,0,1,.7-4.71c1.47-2.11,4.31-3,5.95-3.36-1.42-.94-4.45-2.15-8.54.68-2.88,2-4,4.85-5.08,7.87-1.46,3.9-3,7.94-8.6,9.89A7.37,7.37,0,0,1,636.1,180Zm25.52-13.28a3.28,3.28,0,0,0,1.08,1.5,5.38,5.38,0,0,0,4.26.63,16.68,16.68,0,0,0,5.37-2.14Z" transform="translate(-595.27 -149.35)"/><path class="cls-2" d="M636.6,175.19h-.12c-3.71-.08-6.85-3.7-7-3.86a.56.56,0,0,1,.85-.73s3,3.4,6.16,3.46a4.82,4.82,0,0,0,3.67-1.72,16.4,16.4,0,0,0,4-6.86,10.29,10.29,0,0,1,1.12-2.61H640.4a.56.56,0,0,1,0-1.12h6.08a.56.56,0,0,1,.37,1,6.34,6.34,0,0,0-1.65,3.1,17.36,17.36,0,0,1-4.21,7.28A5.89,5.89,0,0,1,636.6,175.19Z" transform="translate(-595.27 -149.35)"/><path class="cls-2" d="M608.23,182.87a.56.56,0,0,1-.56-.56v-20a.56.56,0,0,1,.56-.56h20a.56.56,0,1,1,0,1.12H608.79v19.44A.56.56,0,0,1,608.23,182.87Z" transform="translate(-595.27 -149.35)"/><path class="cls-2" d="M614.65,401.6c-.29,0-.58,0-.88,0a9.54,9.54,0,0,1-8.73-7.4c-.81-3.41.38-6.63,3-8.22a5.2,5.2,0,0,1,6.36.33,5.43,5.43,0,0,1,1.72,5.92,3.83,3.83,0,0,1-3.94,2.68,2.15,2.15,0,0,1-2-1.71c-.26-1.68,1.3-2.58,2.16-2.82a.56.56,0,0,1,.3,1.08c-.06,0-1.53.46-1.36,1.57a1.1,1.1,0,0,0,1.05.77,2.77,2.77,0,0,0,2.77-2,4.34,4.34,0,0,0-1.41-4.64,4.13,4.13,0,0,0-5.06-.21c-2.26,1.35-3.22,4-2.51,7a8.43,8.43,0,0,0,7.72,6.54,10,10,0,0,0,8.89-3.92c1.85-2.41,2.56-5.56,1.77-7.84-1.78-5.13-5.39-6.49-9.22-7.92-3-1.14-6.2-2.32-8.4-5.49-4.48-6.48.16-10.85.21-10.89a.56.56,0,0,1,.93.36s.51,4.59,3.09,6.39a4.45,4.45,0,0,0,3.79.53c2-.52,3.41-2.37,3.93-5.23,1-5.32-1.29-13.32-6.17-17.43v3.38a20.06,20.06,0,0,1,3.24,7.31,6.41,6.41,0,0,1-.86,5.14,4.43,4.43,0,0,1-2.89,1.66.58.58,0,0,1-.43-.14.56.56,0,0,1-.18-.41V352.73a37,37,0,0,0-3.6-4.48.56.56,0,0,1-.16-.39V322.1h-2.45a.56.56,0,0,1-.41-.94l3-3.22a.56.56,0,0,1,1,.38V321h1.63v-8l-5.68-9.52a.56.56,0,0,1-.08-.29V290.46a.56.56,0,0,1,1.12,0v12.59l5.68,9.52a.56.56,0,0,1,.08.29v8.68a.56.56,0,0,1-.56.56h-2.19v25.53a37.78,37.78,0,0,1,2.64,3.16v-2.93a.56.56,0,0,1,.88-.46c6,4.23,8.6,13.28,7.51,19.23-.6,3.31-2.29,5.48-4.75,6.11a5.52,5.52,0,0,1-4.71-.7c-2.11-1.47-3-4.31-3.36-5.95-.94,1.42-2.15,4.44.68,8.54,2,2.88,4.85,4,7.87,5.08,3.9,1.46,7.94,3,9.89,8.6.92,2.66.16,6.15-1.94,8.89A11.14,11.14,0,0,1,614.65,401.6Zm-2-47.1v10.71a3.27,3.27,0,0,0,1.5-1.08,5.39,5.39,0,0,0,.63-4.25A16.66,16.66,0,0,0,612.68,354.49Zm-6-33.52h1.16v-1.24Z" transform="translate(-595.27 -149.35)"/><path class="cls-2" d="M616.88,397.46a.56.56,0,0,1-.36-1s3.4-3,3.46-6.16a4.8,4.8,0,0,0-1.73-3.67,16.38,16.38,0,0,0-6.86-4,10.33,10.33,0,0,1-2.61-1.12v4.86a.56.56,0,0,1-1.12,0v-6.08a.56.56,0,0,1,1-.37,6.36,6.36,0,0,0,3.1,1.65,17.35,17.35,0,0,1,7.28,4.21,5.86,5.86,0,0,1,2.08,4.52c-.08,3.71-3.7,6.85-3.86,7A.55.55,0,0,1,616.88,397.46Z" transform="translate(-595.27 -149.35)"/><path class="cls-2" d="M633.94,415.28H612.12a.56.56,0,0,1-.56-.56V392.89a.56.56,0,1,1,1.12,0v21.27h21.27a.56.56,0,0,1,0,1.12Z" transform="translate(-595.27 -149.35)"/><path class="cls-2" d="M634.76,422a9,9,0,0,1-2.1-.25,9.54,9.54,0,0,1-7.4-8.73,11.2,11.2,0,0,1,4.36-9.86c2.74-2.1,6.23-2.86,8.89-1.94,5.63,2,7.14,6,8.6,9.89,1.13,3,2.2,5.87,5.08,7.87,4.1,2.83,7.13,1.63,8.54.68-1.64-.35-4.48-1.25-5.95-3.36a5.51,5.51,0,0,1-.7-4.71c.63-2.46,2.8-4.15,6.11-4.75,6-1.08,15,1.48,19.23,7.51a.56.56,0,0,1-.46.88H676a37.58,37.58,0,0,1,3.16,2.64h21.73a.56.56,0,0,1,0,1.12H679a.56.56,0,0,1-.39-.16,36.94,36.94,0,0,0-4.48-3.6H660.91a.56.56,0,0,1-.56-.61,4.43,4.43,0,0,1,1.66-2.89,6.43,6.43,0,0,1,5.14-.86,20.07,20.07,0,0,1,7.31,3.24h3.38c-4.11-4.89-12.11-7.14-17.43-6.17-2.85.52-4.71,1.92-5.23,3.93a4.45,4.45,0,0,0,.53,3.79c1.8,2.58,6.34,3.09,6.39,3.09a.56.56,0,0,1,.36.93s-4.41,4.69-10.89.21c-3.17-2.19-4.35-5.35-5.5-8.39-1.43-3.83-2.78-7.44-7.92-9.22-2.28-.79-5.43-.08-7.84,1.77a10,10,0,0,0-3.93,8.89,8.44,8.44,0,0,0,6.54,7.72c3,.71,5.65-.26,7-2.51a4.13,4.13,0,0,0-.21-5.06,4.35,4.35,0,0,0-4.65-1.41,2.76,2.76,0,0,0-2,2.77,1.1,1.1,0,0,0,.77,1.05c1.12.18,1.57-1.34,1.57-1.36a.56.56,0,0,1,1.08.3c-.24.86-1.14,2.42-2.82,2.16a2.16,2.16,0,0,1-1.71-2,3.85,3.85,0,0,1,2.68-3.94,5.42,5.42,0,0,1,5.92,1.72,5.19,5.19,0,0,1,.32,6.36A7,7,0,0,1,634.76,422Zm26.86-7.89h10.71A16.67,16.67,0,0,0,667,412a5.36,5.36,0,0,0-4.27.64A3.25,3.25,0,0,0,661.62,414.16Z" transform="translate(-595.27 -149.35)"/><path class="cls-2" d="M646.49,419.16H640.4a.56.56,0,0,1,0-1.12h4.86a10.27,10.27,0,0,1-1.12-2.61,16.39,16.39,0,0,0-4-6.86,4.93,4.93,0,0,0-3.67-1.72c-3.2.06-6.13,3.43-6.16,3.46a.56.56,0,0,1-.85-.73c.13-.15,3.27-3.78,7-3.86a6,6,0,0,1,4.52,2.08,17.35,17.35,0,0,1,4.21,7.28,6.35,6.35,0,0,0,1.65,3.1.56.56,0,0,1-.37,1Z" transform="translate(-595.27 -149.35)"/><path class="cls-2" d="M628.23,419.16h-20a.56.56,0,0,1-.56-.56v-20a.56.56,0,0,1,1.12,0V418h19.44a.56.56,0,1,1,0,1.12Z" transform="translate(-595.27 -149.35)"/><path class="cls-2" d="M777.47,401.6a11.14,11.14,0,0,1-9-4.39c-2.1-2.74-2.86-6.23-1.94-8.89,2-5.63,6-7.14,9.89-8.6,3-1.13,5.87-2.2,7.87-5.08,2.85-4.12,1.63-7.14.68-8.55-.35,1.64-1.25,4.49-3.36,6a5.52,5.52,0,0,1-4.71.7c-2.46-.63-4.15-2.8-4.75-6.11-1.09-6,1.47-15,7.51-19.23a.56.56,0,0,1,.88.46v2.93a37.59,37.59,0,0,1,2.64-3.16V322.1H781a.56.56,0,0,1-.56-.56v-8.68a.56.56,0,0,1,.08-.29l5.68-9.52V290.46a.56.56,0,0,1,1.12,0v12.75a.55.55,0,0,1-.08.29L781.57,313v8h1.63v-2.66a.56.56,0,0,1,1-.38l3,3.22a.56.56,0,0,1-.41.94h-2.45v25.76a.56.56,0,0,1-.16.39,37,37,0,0,0-3.6,4.48v13.19a.56.56,0,0,1-.18.41.58.58,0,0,1-.43.14,4.42,4.42,0,0,1-2.89-1.66,6.41,6.41,0,0,1-.86-5.14,20.07,20.07,0,0,1,3.24-7.31V349c-4.88,4.12-7.14,12.11-6.17,17.43.52,2.85,1.92,4.71,3.93,5.23a4.45,4.45,0,0,0,3.79-.53c2.59-1.8,3.09-6.34,3.09-6.39a.56.56,0,0,1,.94-.36s4.69,4.41.21,10.89c-2.19,3.17-5.35,4.35-8.4,5.49-3.83,1.43-7.44,2.78-9.22,7.92-.79,2.28-.08,5.43,1.77,7.84a9.94,9.94,0,0,0,8.89,3.92,8.43,8.43,0,0,0,7.72-6.54c.71-3-.26-5.65-2.51-7a4.13,4.13,0,0,0-5.06.21,4.34,4.34,0,0,0-1.41,4.64,2.77,2.77,0,0,0,2.77,2,1.1,1.1,0,0,0,1-.77c.17-1.13-1.34-1.56-1.35-1.57a.56.56,0,0,1,.3-1.08c.86.24,2.41,1.14,2.16,2.82a2.15,2.15,0,0,1-2,1.71,3.84,3.84,0,0,1-3.94-2.68,5.42,5.42,0,0,1,1.72-5.92,5.2,5.2,0,0,1,6.36-.33c2.65,1.58,3.84,4.81,3,8.22a9.54,9.54,0,0,1-8.73,7.4C778,401.59,777.76,401.6,777.47,401.6Zm2-47.1a16.69,16.69,0,0,0-2.14,5.37,5.37,5.37,0,0,0,.64,4.27,3.25,3.25,0,0,0,1.49,1.07ZM784.32,321h1.16l-1.16-1.24Z" transform="translate(-595.27 -149.35)"/><path class="cls-2" d="M775.23,397.46a.55.55,0,0,1-.36-.13c-.15-.13-3.78-3.27-3.86-7a5.87,5.87,0,0,1,2.08-4.52,17.37,17.37,0,0,1,7.28-4.21,6.35,6.35,0,0,0,3.1-1.65.56.56,0,0,1,1,.37v6.08a.56.56,0,0,1-1.12,0v-4.86a10.31,10.31,0,0,1-2.61,1.12,16.39,16.39,0,0,0-6.87,4,4.79,4.79,0,0,0-1.72,3.67c.06,3.21,3.43,6.12,3.46,6.15a.56.56,0,0,1-.36,1Z" transform="translate(-595.27 -149.35)"/><path class="cls-2" d="M780,415.28H758.17a.56.56,0,0,1,0-1.12h21.27V392.89a.56.56,0,0,1,1.12,0v21.83A.56.56,0,0,1,780,415.28Z" transform="translate(-595.27 -149.35)"/><path class="cls-2" d="M757.35,422a7,7,0,0,1-6.12-3.28,5.19,5.19,0,0,1,.32-6.36,5.42,5.42,0,0,1,5.92-1.72,3.85,3.85,0,0,1,2.68,3.94,2.16,2.16,0,0,1-1.71,2c-1.67.26-2.58-1.3-2.82-2.16a.56.56,0,0,1,1.08-.31c0,.06.46,1.53,1.57,1.36a1.1,1.1,0,0,0,.77-1.05,2.76,2.76,0,0,0-2-2.77,4.35,4.35,0,0,0-4.65,1.41,4.13,4.13,0,0,0-.21,5.06c1.35,2.26,4,3.22,7,2.51a8.44,8.44,0,0,0,6.54-7.72,10,10,0,0,0-3.93-8.89c-2.41-1.85-5.56-2.56-7.84-1.77-5.13,1.78-6.49,5.39-7.92,9.22-1.14,3-2.32,6.2-5.49,8.39-6.48,4.48-10.85-.16-10.89-.21a.56.56,0,0,1,.35-.93s4.59-.51,6.39-3.09a4.45,4.45,0,0,0,.53-3.79c-.52-2-2.37-3.41-5.23-3.93-5.32-1-13.32,1.29-17.43,6.17h3.38a20.07,20.07,0,0,1,7.31-3.24,6.43,6.43,0,0,1,5.14.86,4.42,4.42,0,0,1,1.66,2.89.56.56,0,0,1-.56.61H718a36.84,36.84,0,0,0-4.48,3.6.56.56,0,0,1-.39.16h-22a.56.56,0,1,1,0-1.12h21.73a37.19,37.19,0,0,1,3.16-2.64h-2.93a.56.56,0,0,1-.46-.88c4.23-6,13.28-8.6,19.23-7.51,3.31.6,5.48,2.29,6.11,4.75a5.51,5.51,0,0,1-.7,4.71c-1.47,2.11-4.31,3-5.95,3.36,1.42.94,4.45,2.15,8.54-.68,2.88-2,4-4.85,5.08-7.87,1.46-3.9,3-7.94,8.6-9.89,2.66-.92,6.15-.16,8.89,1.94a11.2,11.2,0,0,1,4.36,9.86,9.54,9.54,0,0,1-7.4,8.73A9,9,0,0,1,757.35,422Zm-37.57-7.89h10.71a3.26,3.26,0,0,0-1.08-1.5,5.38,5.38,0,0,0-4.26-.63A16.68,16.68,0,0,0,719.78,414.16Z" transform="translate(-595.27 -149.35)"/><path class="cls-2" d="M751.71,419.16h-6.09a.56.56,0,0,1-.37-1,6.35,6.35,0,0,0,1.65-3.1,17.35,17.35,0,0,1,4.21-7.28,6,6,0,0,1,4.52-2.08c3.71.08,6.85,3.7,7,3.86a.56.56,0,0,1-.85.73s-3-3.4-6.16-3.46a4.88,4.88,0,0,0-3.67,1.72,16.39,16.39,0,0,0-4,6.86,10.31,10.31,0,0,1-1.12,2.61h4.86a.56.56,0,1,1,0,1.12Z" transform="translate(-595.27 -149.35)"/><path class="cls-2" d="M783.89,419.16h-20a.56.56,0,0,1,0-1.12h19.44V398.61a.56.56,0,0,1,1.12,0v20A.56.56,0,0,1,783.89,419.16Z" transform="translate(-595.27 -149.35)"/><path class="cls-2" d="M696.05,379.54a.55.55,0,0,1-.23,0l-38.08-16.88a.56.56,0,0,1-.33-.51V218.82a.56.56,0,0,1,.33-.51l38.08-16.89a.56.56,0,0,1,.45,0l38.08,16.89a.56.56,0,0,1,.33.51V362.1a.56.56,0,0,1-.33.51L696.28,379.5A.55.55,0,0,1,696.05,379.54Zm-37.52-17.81,37.52,16.64,37.52-16.64V219.18l-37.52-16.64-37.52,16.64Z" transform="translate(-595.27 -149.35)"/><path class="cls-2" d="M696.06,409.79a.57.57,0,0,1-.23,0l-22.18-9.84a.56.56,0,0,1-.33-.51v-88a.56.56,0,0,1,1.12,0V399l21.62,9.59L717.68,399V311.36a.56.56,0,0,1,1.12,0v88a.56.56,0,0,1-.33.51l-22.18,9.84A.57.57,0,0,1,696.06,409.79Z" transform="translate(-595.27 -149.35)"/><path class="cls-2" d="M718.24,270.12a.56.56,0,0,1-.56-.56V181.89l-21.62-9.59-21.62,9.59v87.66a.56.56,0,0,1-1.12,0v-88a.56.56,0,0,1,.33-.51l22.18-9.84a.56.56,0,0,1,.45,0L718.47,181a.56.56,0,0,1,.33.51v88A.56.56,0,0,1,718.24,270.12Z" transform="translate(-595.27 -149.35)"/><path class="cls-2" d="M696.05,357.51a.56.56,0,0,1-.25-.06l-51.33-25.84a.56.56,0,0,1-.31-.5V249.8a.56.56,0,0,1,.31-.5l51.33-25.84a.56.56,0,0,1,.5,0l51.33,25.84a.56.56,0,0,1,.31.5v81.32a.56.56,0,0,1-.31.5l-51.33,25.84A.55.55,0,0,1,696.05,357.51Zm-50.77-26.74,50.77,25.55,50.77-25.55V250.15l-50.77-25.56-50.77,25.56Z" transform="translate(-595.27 -149.35)"/><path class="cls-2" d="M696.06,321.27a30.81,30.81,0,1,1,30.81-30.81A30.84,30.84,0,0,1,696.06,321.27Zm0-60.5a29.69,29.69,0,1,0,29.69,29.69A29.72,29.72,0,0,0,696.06,260.77Z" transform="translate(-595.27 -149.35)"/></svg>