<svg id="Layer_1" data-name="Layer 1" xmlns="http://www.w3.org/2000/svg" viewBox="0 0 201.58 282.22"><defs><style>.cls-1{fill:#14110d;}.cls-2{fill:#fff;}</style></defs><title>cards_back_2</title><path class="cls-1" d="M1258,159.44a10.08,10.08,0,0,0-10.08-10.08H1066.48a10.08,10.08,0,0,0-10.08,10.08h0V421.5a10.08,10.08,0,0,0,10.08,10.08h181.42A10.08,10.08,0,0,0,1258,421.5V159.44Z" transform="translate(-1056.4 -149.36)"/><path class="cls-2" d="M1091.85,165.75a3.9,3.9,0,0,1-3-2.71,2.22,2.22,0,0,0,.5,2.68l-3.16-.63-4.89,1.75,4.89,1.75,3.16-.63a2.22,2.22,0,0,0-.5,2.68,3.9,3.9,0,0,1,3-2.7l3.37-1.1Z" transform="translate(-1056.4 -149.36)"/><path class="cls-2" d="M1244.5,394.68c1.6.73,3-2.65,3-2.65a2.8,2.8,0,0,1-2.12-.09,6.8,6.8,0,0,1-2.62-2.72,1.57,1.57,0,0,0-.72-2.4V245.21l-.16-.16a41.18,41.18,0,0,1-4-5V224.73l-.61.05a4.88,4.88,0,0,0-3.18,1.82c-1,1.35-1.36,3.26-.95,5.67a22.26,22.26,0,0,0,3.62,8.13v3.91c-5.54-4.57-8.11-13.56-7-19.55.59-3.2,2.16-5.29,4.43-5.87a5,5,0,0,1,4.28.6c2.91,2,3.48,7.11,3.48,7.16l.12,1.1.82-.75c.05,0,5.19-4.87.22-12-2.44-3.51-5.95-4.82-9.34-6.09-4.29-1.6-8.34-3.11-10.33-8.85-.89-2.56-.09-6.09,2-8.79a11.2,11.2,0,0,1,10-4.39,10.45,10.45,0,0,1,1.37.2v6.12a4.3,4.3,0,0,0-3.88,3,6,6,0,0,0,1.9,6.51,5.6,5.6,0,0,0,6.31.72V208a11,11,0,0,0-3-1.31,18.34,18.34,0,0,1-7.69-4.43,5.39,5.39,0,0,1-1.95-4.13c.07-3.59,3.85-6.87,3.89-6.9a.56.56,0,1,0-.73-.85c-.17.15-4.2,3.62-4.28,7.72a6.47,6.47,0,0,0,2.3,5,19.34,19.34,0,0,0,8.1,4.67,7.24,7.24,0,0,1,3.48,1.86l1,1.09v-8a8.12,8.12,0,0,0,2.94-8.78,11.08,11.08,0,0,0-2.94-5.21V166.14h-22.62a11.14,11.14,0,0,0-5.23-2.93,8.17,8.17,0,0,0-8.8,2.93h-8.07l1.09,1a7.22,7.22,0,0,1,1.86,3.48,19.25,19.25,0,0,0,4.68,8.08A6.52,6.52,0,0,0,1210,181h.13c4.11-.08,7.6-4.1,7.74-4.27a.56.56,0,0,0-.85-.73s-3.3,3.8-6.91,3.88a5.51,5.51,0,0,1-4.15-1.94,18.28,18.28,0,0,1-4.44-7.67,10.94,10.94,0,0,0-1.31-3h4.7a5.56,5.56,0,0,0,.72,6.3,6,6,0,0,0,6.53,1.9,4.3,4.3,0,0,0,3-3.87h6.14a10.24,10.24,0,0,1,.2,1.37,11.14,11.14,0,0,1-4.4,9.95c-2.71,2.07-6.25,2.87-8.81,2-5.76-2-7.27-6-8.88-10.3-1.27-3.38-2.58-6.88-6.11-9.31-7.19-5-12,.17-12.07.22l-.75.82,1.11.11c.05,0,5.15.56,7.17,3.47a5,5,0,0,1,.6,4.27c-.58,2.27-2.67,3.84-5.88,4.42-6,1.09-15-1.47-19.6-7h3.92a22.39,22.39,0,0,0,8.15,3.61c2.42.41,4.33.09,5.69-.95a4.86,4.86,0,0,0,1.82-3.17l.05-.61h-15.35a41,41,0,0,1-5-4l-.16-.16H1100a7.81,7.81,0,0,1-4.27-3.33,2.77,2.77,0,0,1-.09-2.11s-3.39,1.42-2.66,3,.13,2.21,2.67,2.94a.44.44,0,0,0,0,0,.39.39,0,0,0,0,0c-2.54.73-2,1.45-2.67,2.94s2.66,3,2.66,3a2.77,2.77,0,0,1,.09-2.11c.52-1.14-1.51-2.61.53-3.33h66.21a41.7,41.7,0,0,0,3.69,3.07h-4.54l.62.88c4.71,6.69,14.78,9.54,21.39,8.33,3.67-.67,6.07-2.53,6.77-5.24a6.06,6.06,0,0,0-.77-5.19c-1.67-2.39-5-3.37-6.75-3.74,1.54-1.07,5-2.59,9.73.67,3.24,2.23,4.43,5.41,5.69,8.79,1.62,4.33,3.3,8.81,9.56,11a8.18,8.18,0,0,0,2.67.42,12.14,12.14,0,0,0,7.19-2.58,12.38,12.38,0,0,0,4.84-10.91,12,12,0,0,0-.17-1.29h14.35V185.9a12.31,12.31,0,0,0-1.29-.17,12.46,12.46,0,0,0-10.94,4.83c-2.33,3-3.18,6.89-2.16,9.83,2.17,6.24,6.66,7.91,11,9.53,3.38,1.26,6.58,2.45,8.81,5.68,3.27,4.72,1.75,8.17.68,9.71-.37-1.79-1.35-5.06-3.75-6.73a6.1,6.1,0,0,0-5.2-.77c-2.72.7-4.59,3.09-5.26,6.75-1.21,6.6,1.64,16.64,8.35,21.33l.88.62V242a41.52,41.52,0,0,0,3.08,3.68V386.82a1.57,1.57,0,0,0-.72,2.4,6.8,6.8,0,0,1-2.62,2.72,2.8,2.8,0,0,1-2.12.09s1.42,3.38,3,2.65c1.2-.55,1.91-2.73,2.52-4.88a1.57,1.57,0,0,0,.3.06l-.92,5.94a3.9,3.9,0,0,1-2.71,3,2.23,2.23,0,0,0,2.69-.5l-.63,3.15,1.75,4.87,1.75-4.87-.63-3.15a2.23,2.23,0,0,0,2.69.5,3.9,3.9,0,0,1-2.71-3l-.92-5.94a1.57,1.57,0,0,0,.29-.06C1242.59,392,1243.29,394.13,1244.5,394.68Zm-62.35-223.09a3.71,3.71,0,0,1-1.26,1.79c-1.1.83-2.71,1.08-4.8.72a19,19,0,0,1-6.22-2.51ZM1241.22,202a4.68,4.68,0,0,1-5.72-.24,4.89,4.89,0,0,1-1.6-5.25,3.23,3.23,0,0,1,2.84-2.26v1a.56.56,0,0,0,1.12,0v-.75a1,1,0,0,1,.43.62c.2,1.3-1.49,1.8-1.56,1.82a.56.56,0,1,0,.3,1.07c.94-.26,2.64-1.24,2.36-3.07a2.17,2.17,0,0,0-1.53-1.69v-6a9.07,9.07,0,0,1,3.37,2l.06.05a9.91,9.91,0,0,1,2.76,4.79C1244.85,197.5,1243.76,200.51,1241.22,202Zm-26.28-31.56a2.18,2.18,0,0,0-1.69-1.53c-1.82-.28-2.81,1.42-3.07,2.35a.56.56,0,0,0,1.08.3c0-.07.51-1.75,1.83-1.56a.94.94,0,0,1,.62.42h-.75a.56.56,0,1,0,0,1.12h1a3.23,3.23,0,0,1-2.27,2.83,4.92,4.92,0,0,1-5.26-1.59,4.65,4.65,0,0,1-.24-5.7c1.52-2.54,4.54-3.62,7.88-2.83a10,10,0,0,1,4.8,2.75l.05.06a9,9,0,0,1,2,3.36Zm7.19,0a10.14,10.14,0,0,0-1.59-3.21h20.55v20.49a10.14,10.14,0,0,0-3.22-1.59V170.47Zm14.62,67.82a18.91,18.91,0,0,1-2.52-6.21c-.36-2.08-.12-3.69.72-4.79a3.73,3.73,0,0,1,1.79-1.26Z" transform="translate(-1056.4 -149.36)"/><path class="cls-2" d="M1241.27,421.5l-6.64-6.62,6.64-6.62,6.64,6.62Zm-5.06-6.62,5.06,5,5.06-5-5.06-5Z" transform="translate(-1056.4 -149.36)"/><path class="cls-2" d="M1073.12,173.39l-6.64-6.62,6.64-6.62,6.64,6.62Zm-5.06-6.62,5.06,5,5.06-5-5.06-5Z" transform="translate(-1056.4 -149.36)"/><path class="cls-2" d="M1222.55,415.9a3.9,3.9,0,0,1,3,2.7,2.22,2.22,0,0,0-.5-2.68l3.16.63,4.88-1.75-4.88-1.74-3.16.63a2.22,2.22,0,0,0,.5-2.68,3.9,3.9,0,0,1-3,2.7l-3.37,1.09Z" transform="translate(-1056.4 -149.36)"/><path class="cls-2" d="M1069.9,187c-1.6-.73-3,2.65-3,2.65a2.8,2.8,0,0,1,2.12.09,6.8,6.8,0,0,1,2.62,2.72,1.57,1.57,0,0,0,.72,2.4V336.43l.16.16a41.12,41.12,0,0,1,4,5v15.31l.61-.05a4.87,4.87,0,0,0,3.18-1.82c1-1.35,1.36-3.26.95-5.67a22.28,22.28,0,0,0-3.62-8.13v-3.91c5.54,4.57,8.11,13.57,7,19.55-.59,3.2-2.16,5.29-4.43,5.87a5,5,0,0,1-4.28-.6c-2.91-2-3.48-7.11-3.48-7.16l-.12-1.1-.82.75c-.05,0-5.19,4.87-.22,12,2.44,3.51,5.94,4.82,9.34,6.09,4.29,1.6,8.33,3.11,10.33,8.85.89,2.56.09,6.09-2,8.79a11.19,11.19,0,0,1-10,4.39,10.44,10.44,0,0,1-1.37-.2v-6.12a4.3,4.3,0,0,0,3.88-3,6,6,0,0,0-1.9-6.51,5.6,5.6,0,0,0-6.31-.72V373.6a11,11,0,0,0,3,1.31,18.34,18.34,0,0,1,7.69,4.43,5.39,5.39,0,0,1,1.94,4.13c-.07,3.59-3.85,6.87-3.89,6.9a.56.56,0,1,0,.73.85c.17-.15,4.2-3.62,4.28-7.72a6.46,6.46,0,0,0-2.3-5,19.31,19.31,0,0,0-8.1-4.67,7.24,7.24,0,0,1-3.48-1.85l-1-1.09v8.05a8.11,8.11,0,0,0-2.94,8.78,11.07,11.07,0,0,0,2.94,5.21V415.5h22.62a11.13,11.13,0,0,0,5.23,2.93,8.17,8.17,0,0,0,8.8-2.93h8.07l-1.09-1A7.23,7.23,0,0,1,1114,411a19.24,19.24,0,0,0-4.68-8.08,6.52,6.52,0,0,0-4.86-2.3h-.13c-4.11.08-7.6,4.1-7.74,4.27a.56.56,0,0,0,.85.73s3.3-3.81,6.91-3.88a5.52,5.52,0,0,1,4.15,1.94,18.28,18.28,0,0,1,4.44,7.66,11,11,0,0,0,1.31,3h-4.7a5.57,5.57,0,0,0-.72-6.3,6,6,0,0,0-6.53-1.9,4.29,4.29,0,0,0-3,3.87h-6.14a10.61,10.61,0,0,1-.2-1.37,11.14,11.14,0,0,1,4.41-9.95c2.71-2.07,6.25-2.87,8.81-2,5.76,2,7.27,6,8.88,10.3,1.27,3.38,2.58,6.89,6.11,9.31,7.19,5,12-.17,12.07-.22l.75-.82-1.11-.11c-.05,0-5.14-.56-7.17-3.47a5,5,0,0,1-.6-4.27c.58-2.27,2.67-3.84,5.88-4.42,6-1.09,15,1.47,19.6,7h-3.93a22.38,22.38,0,0,0-8.15-3.61c-2.42-.41-4.33-.09-5.69.95a4.86,4.86,0,0,0-1.82,3.17l-.05.61h15.35a41.48,41.48,0,0,1,5,4l.16.16h62.93a7.81,7.81,0,0,1,4.27,3.33,2.77,2.77,0,0,1,.09,2.11s3.39-1.42,2.66-3-.13-2.21-2.67-2.94a.36.36,0,0,0,0,0,.33.33,0,0,0,0,0c2.54-.73,2-1.46,2.67-2.94s-2.66-3-2.66-3a2.77,2.77,0,0,1-.09,2.11c-.52,1.13,1.51,2.61-.53,3.33h-66.21a41.86,41.86,0,0,0-3.69-3.07h4.54l-.62-.88c-4.71-6.7-14.77-9.54-21.39-8.33-3.67.67-6.07,2.53-6.77,5.24a6.07,6.07,0,0,0,.77,5.19c1.67,2.39,5,3.37,6.75,3.74-1.54,1.07-5,2.59-9.73-.67-3.23-2.23-4.43-5.42-5.69-8.79-1.62-4.33-3.3-8.8-9.56-11a8.18,8.18,0,0,0-2.67-.43,12.12,12.12,0,0,0-7.19,2.58,12.38,12.38,0,0,0-4.84,10.91,11.74,11.74,0,0,0,.17,1.29h-14.35V395.74a12,12,0,0,0,1.29.17,12.46,12.46,0,0,0,10.94-4.83c2.33-3,3.18-6.89,2.16-9.84-2.17-6.24-6.66-7.91-11-9.53-3.38-1.26-6.58-2.45-8.81-5.68-3.27-4.72-1.75-8.17-.68-9.71.37,1.79,1.35,5.06,3.75,6.73a6.1,6.1,0,0,0,5.2.76c2.72-.7,4.59-3.09,5.26-6.75,1.21-6.6-1.64-16.64-8.35-21.33l-.88-.62v4.53a42.07,42.07,0,0,0-3.08-3.68V194.82a1.57,1.57,0,0,0,.72-2.4,6.81,6.81,0,0,1,2.61-2.72,2.81,2.81,0,0,1,2.12-.09s-1.42-3.38-3-2.65c-1.2.55-1.91,2.73-2.52,4.88l-.29-.06.92-5.94a3.9,3.9,0,0,1,2.71-3,2.23,2.23,0,0,0-2.69.5l.63-3.15-1.75-4.87-1.75,4.87.63,3.15a2.23,2.23,0,0,0-2.69-.5,3.9,3.9,0,0,1,2.71,3l.92,5.94-.3.06C1071.8,189.69,1071.1,187.51,1069.9,187Zm62.35,223.09a3.69,3.69,0,0,1,1.26-1.79c1.1-.84,2.71-1.08,4.8-.72a19,19,0,0,1,6.22,2.51Zm-59.07-30.44a4.68,4.68,0,0,1,5.72.24,4.89,4.89,0,0,1,1.6,5.25,3.24,3.24,0,0,1-2.84,2.26v-1a.56.56,0,0,0-1.12,0v.75a.94.94,0,0,1-.43-.62c-.2-1.3,1.49-1.8,1.56-1.82a.56.56,0,1,0-.31-1.08c-.94.26-2.64,1.24-2.36,3.07a2.17,2.17,0,0,0,1.53,1.69v6a9.06,9.06,0,0,1-3.37-2l-.06-.05a9.91,9.91,0,0,1-2.76-4.79C1069.54,384.14,1070.63,381.13,1073.17,379.61Zm26.28,31.56a2.18,2.18,0,0,0,1.69,1.53c1.82.28,2.81-1.42,3.07-2.36a.56.56,0,0,0-1.08-.3c0,.07-.52,1.75-1.83,1.55a.94.94,0,0,1-.62-.43h.75a.56.56,0,1,0,0-1.12h-1a3.23,3.23,0,0,1,2.27-2.83,4.93,4.93,0,0,1,5.26,1.59,4.65,4.65,0,0,1,.24,5.7c-1.52,2.54-4.54,3.62-7.88,2.83a10,10,0,0,1-4.8-2.75l-.05-.06a9.06,9.06,0,0,1-2-3.36Zm-7.2,0a10.15,10.15,0,0,0,1.59,3.21h-20.54V393.89a10.16,10.16,0,0,0,3.22,1.59v15.69Zm-14.61-67.82a18.94,18.94,0,0,1,2.52,6.2c.36,2.08.12,3.69-.72,4.79a3.72,3.72,0,0,1-1.79,1.26Z" transform="translate(-1056.4 -149.36)"/><path class="cls-2" d="M1073.12,160.14l6.64,6.62-6.64,6.62-6.64-6.62Zm5.06,6.62-5.06-5-5.06,5,5.06,5Z" transform="translate(-1056.4 -149.36)"/><path class="cls-2" d="M1241.27,408.25l6.64,6.62-6.64,6.62-6.64-6.62Zm5.06,6.62-5.06-5-5.06,5,5.06,5Z" transform="translate(-1056.4 -149.36)"/><path class="cls-2" d="M1178.63,313.93a8.48,8.48,0,0,1-5-1.81,8.65,8.65,0,0,1-3.37-7.61,7.4,7.4,0,0,1,5.74-6.77,5.71,5.71,0,0,1,6.42,2.37,4.12,4.12,0,0,1-.25,5,4.28,4.28,0,0,1-4.67,1.35,3.06,3.06,0,0,1-2.13-3.14,1.77,1.77,0,0,1,1.41-1.66,2.18,2.18,0,0,1,2.3,1.74.56.56,0,0,1-1.08.31c0-.05-.32-1-1.05-.94-.24,0-.43.31-.47.68a2,2,0,0,0,1.44,2,3.18,3.18,0,0,0,3.4-1,3,3,0,0,0,.14-3.69,4.61,4.61,0,0,0-5.2-1.85,6.3,6.3,0,0,0-4.89,5.76,7.45,7.45,0,0,0,2.93,6.64,6.7,6.7,0,0,0,5.88,1.34c3.86-1.33,4.88-4.06,6-6.94.88-2.34,1.79-4.76,4.24-6.46,5-3.47,8.45.14,8.49.18a.56.56,0,0,1-.35.93s-3.45.39-4.79,2.31a3.21,3.21,0,0,0-.38,2.77c.51,2,2.65,2.67,3.88,2.89a15.46,15.46,0,0,0,13-4.43h-2.25a15.4,15.4,0,0,1-5.59,2.47,5,5,0,0,1-4-.68,3.5,3.5,0,0,1-1.31-2.29.55.55,0,0,1,.14-.43.56.56,0,0,1,.41-.18h10A28.14,28.14,0,0,0,1211,300a.56.56,0,0,1,.39-.16h16.76a.56.56,0,0,1,0,1.12h-16.53c-.32.3-1.06,1-2.07,1.75h1.84a.56.56,0,0,1,.46.88c-3.26,4.64-10.23,6.61-14.82,5.77-2.58-.47-4.27-1.79-4.76-3.72a4.32,4.32,0,0,1,.55-3.69,7.42,7.42,0,0,1,4.31-2.54c-1.14-.65-3.28-1.26-6.1.69-2.17,1.49-3,3.65-3.83,5.93-1.13,3-2.29,6.1-6.65,7.61A5.77,5.77,0,0,1,1178.63,313.93Zm19.67-10.11a2.32,2.32,0,0,0,.71.91,4,4,0,0,0,3.15.46,11.91,11.91,0,0,0,3.62-1.36Z" transform="translate(-1056.4 -149.36)"/><path class="cls-2" d="M1179,310.24h-.09c-2.89-.06-5.32-2.86-5.42-3a.56.56,0,0,1,.06-.79.56.56,0,0,1,.79.06s2.22,2.54,4.6,2.59a3.58,3.58,0,0,0,2.7-1.27,12.33,12.33,0,0,0,3-5.17,9,9,0,0,1,.74-1.81h-3.47a.56.56,0,1,1,0-1.12h4.65a.56.56,0,0,1,.37,1,4.73,4.73,0,0,0-1.22,2.3,13.33,13.33,0,0,1-3.24,5.59A4.63,4.63,0,0,1,1179,310.24Z" transform="translate(-1056.4 -149.36)"/><path class="cls-2" d="M1181.25,324.87a.55.55,0,0,1-.21,0,29.19,29.19,0,0,1-5.63-3.1c-5.19,2.06-10,3.17-12,1.34a4.17,4.17,0,0,1-1.14-4.33,9.32,9.32,0,0,1,4.41-5.14,61.4,61.4,0,0,1-6.88-10.06.56.56,0,0,1,.5-.82H1177a.56.56,0,0,1,0,1.12h-15.71a64.51,64.51,0,0,0,6.5,9.23,8.85,8.85,0,0,1,1.57-.5,6.27,6.27,0,0,1,6.41,2.1.56.56,0,0,1-.86.72,5.15,5.15,0,0,0-5.31-1.72,7.7,7.7,0,0,0-1,.3,44.48,44.48,0,0,0,7,6.49,134.36,134.36,0,0,0,16.51-8.5.56.56,0,0,1,.7.86l-11.11,11.88A.57.57,0,0,1,1181.25,324.87Zm-4.59-3.66a27.42,27.42,0,0,0,4.44,2.43l8.21-8.78A125.11,125.11,0,0,1,1176.66,321.21Zm-9.22-6.77a8.18,8.18,0,0,0-4.07,4.58,3.07,3.07,0,0,0,.83,3.22c1.48,1.39,5.49.5,10.12-1.31A46.09,46.09,0,0,1,1167.44,314.44Z" transform="translate(-1056.4 -149.36)"/><path class="cls-2" d="M1172.61,300.86h-15.27a.56.56,0,1,1,0-1.12h15.27a.56.56,0,1,1,0,1.12Z" transform="translate(-1056.4 -149.36)"/><path class="cls-2" d="M1157.23,340.35a.56.56,0,0,1-.56-.61l1.61-17a.56.56,0,0,1,1-.24,44.57,44.57,0,0,0,7.79,9.32l5.8-4.28c-12.15-7.83-16.36-26.31-16.54-27.11a.56.56,0,0,1,.43-.67.56.56,0,0,1,.67.43c0,.19,4.46,19.53,16.73,26.83a.56.56,0,0,1,0,.93l-6.23,4.59a9.51,9.51,0,0,0,5.87,2.29c2.5-.13,4.11-1.14,4.65-2.91a5.73,5.73,0,0,0-1.64-5.63.56.56,0,1,1,.67-.9,6.78,6.78,0,0,1,2,6.85c-.39,1.29-1.65,3.5-5.66,3.71-2.34.13-4.7-1-6.87-2.72l-9.52,7A.57.57,0,0,1,1157.23,340.35Zm2-15.92-1.34,14.16,8.28-6.1A42.37,42.37,0,0,1,1159.25,324.44Z" transform="translate(-1056.4 -149.36)"/><path class="cls-2" d="M1135.76,313.93a5.77,5.77,0,0,1-1.88-.3c-4.36-1.5-5.52-4.61-6.65-7.61-.86-2.28-1.66-4.43-3.83-5.93-2.84-2-5-1.35-6.11-.69a7.41,7.41,0,0,1,4.32,2.54,4.31,4.31,0,0,1,.55,3.69c-.5,1.93-2.19,3.25-4.76,3.72-4.58.84-11.55-1.13-14.81-5.77a.56.56,0,0,1,.46-.88h1.84c-1-.77-1.75-1.45-2.07-1.75h-16.54a.56.56,0,1,1,0-1.12H1103a.56.56,0,0,1,.39.16,28.22,28.22,0,0,0,3.37,2.71h10a.56.56,0,0,1,.56.61,3.52,3.52,0,0,1-1.31,2.3,5,5,0,0,1-4,.68,15.4,15.4,0,0,1-5.59-2.47h-2.25a15.47,15.47,0,0,0,13,4.43c1.23-.23,3.37-.9,3.88-2.89a3.21,3.21,0,0,0-.38-2.77c-1.34-1.92-4.75-2.3-4.78-2.3a.56.56,0,0,1-.36-.93s3.45-3.65,8.49-.18c2.46,1.69,3.37,4.12,4.25,6.46,1.08,2.88,2.1,5.61,6,6.94a6.69,6.69,0,0,0,5.88-1.34,7.45,7.45,0,0,0,2.93-6.64,6.29,6.29,0,0,0-4.88-5.76,4.61,4.61,0,0,0-5.21,1.85,3,3,0,0,0,.14,3.69,3.18,3.18,0,0,0,3.4,1,2,2,0,0,0,1.44-2c0-.37-.23-.65-.47-.68-.74-.1-1,.93-1.05.94a.56.56,0,1,1-1.08-.3,2.18,2.18,0,0,1,2.3-1.74,1.77,1.77,0,0,1,1.41,1.66,3.06,3.06,0,0,1-2.13,3.14,4.28,4.28,0,0,1-4.67-1.35,4.12,4.12,0,0,1-.25-5,5.71,5.71,0,0,1,6.43-2.37,7.4,7.4,0,0,1,5.74,6.77,8.64,8.64,0,0,1-3.37,7.61A8.48,8.48,0,0,1,1135.76,313.93Zm-27.15-10.11a11.91,11.91,0,0,0,3.61,1.36,4,4,0,0,0,3.15-.46,2.31,2.31,0,0,0,.71-.91Z" transform="translate(-1056.4 -149.36)"/><path class="cls-2" d="M1135.38,310.24a4.63,4.63,0,0,1-3.46-1.63,13.32,13.32,0,0,1-3.24-5.59,4.72,4.72,0,0,0-1.22-2.3.56.56,0,0,1,.37-1h4.65a.56.56,0,1,1,0,1.12H1129a9,9,0,0,1,.74,1.81,12.33,12.33,0,0,0,3,5.18,3.49,3.49,0,0,0,2.71,1.27c2.39,0,4.58-2.56,4.6-2.59a.56.56,0,1,1,.85.73c-.1.12-2.54,2.92-5.43,3Z" transform="translate(-1056.4 -149.36)"/><path class="cls-2" d="M1133.14,324.87a.56.56,0,0,1-.41-.18l-11.11-11.88a.56.56,0,0,1,.7-.86,134.43,134.43,0,0,0,16.51,8.5,44.46,44.46,0,0,0,7-6.49,7.86,7.86,0,0,0-1-.3,5.16,5.16,0,0,0-5.31,1.72.56.56,0,0,1-.86-.72,6.26,6.26,0,0,1,6.41-2.1,8.8,8.8,0,0,1,1.57.5,64.48,64.48,0,0,0,6.5-9.23h-15.71a.56.56,0,0,1,0-1.12h16.67a.56.56,0,0,1,.5.82,61.59,61.59,0,0,1-6.89,10.06,9.32,9.32,0,0,1,4.41,5.14,4.17,4.17,0,0,1-1.14,4.33c-2,1.84-6.78.72-12-1.34a29.16,29.16,0,0,1-5.63,3.1A.55.55,0,0,1,1133.14,324.87Zm-8.07-10,8.21,8.78a27.35,27.35,0,0,0,4.44-2.43A124.83,124.83,0,0,1,1125.07,314.85Zm15,6.08c4.63,1.8,8.64,2.7,10.12,1.3A3.07,3.07,0,0,0,1151,319a8.19,8.19,0,0,0-4.07-4.58A46.23,46.23,0,0,1,1140.07,320.94Z" transform="translate(-1056.4 -149.36)"/><path class="cls-2" d="M1157,300.86h-15.27a.56.56,0,1,1,0-1.12H1157a.56.56,0,1,1,0,1.12Z" transform="translate(-1056.4 -149.36)"/><path class="cls-2" d="M1157.23,340.35a.56.56,0,0,1-.33-.11l-9.57-7c-2.17,1.68-4.54,2.87-6.88,2.73-4-.21-5.27-2.41-5.66-3.71a6.78,6.78,0,0,1,2-6.85.56.56,0,0,1,.67.9,5.73,5.73,0,0,0-1.64,5.63c.54,1.78,2.15,2.78,4.65,2.91a9.48,9.48,0,0,0,5.88-2.3l-6.24-4.58a.56.56,0,0,1,0-.93c12.28-7.3,16.68-26.63,16.73-26.83a.55.55,0,0,1,.67-.43.56.56,0,0,1,.43.67c-.18.8-4.39,19.28-16.54,27.11l5.82,4.27a44.54,44.54,0,0,0,7.78-9.31.56.56,0,0,1,1,.24l1.68,17a.56.56,0,0,1-.28.54A.55.55,0,0,1,1157.23,340.35Zm-9-7.87,8.33,6.12-1.4-14.17A42.43,42.43,0,0,1,1148.22,332.48Z" transform="translate(-1056.4 -149.36)"/><path class="cls-2" d="M1177.61,284.09a7.08,7.08,0,0,1-1.64-.2,7.4,7.4,0,0,1-5.74-6.77,8.65,8.65,0,0,1,3.37-7.61,7.73,7.73,0,0,1,6.92-1.51c4.36,1.51,5.52,4.61,6.65,7.61.85,2.28,1.66,4.43,3.83,5.93,2.82,1.94,5,1.34,6.1.69a7.43,7.43,0,0,1-4.3-2.54,4.32,4.32,0,0,1-.55-3.69c.49-1.93,2.18-3.25,4.76-3.72,4.58-.84,11.55,1.13,14.82,5.77a.56.56,0,0,1-.46.88h-1.84c1,.77,1.75,1.45,2.07,1.75h16.53a.56.56,0,0,1,0,1.12h-16.76a.56.56,0,0,1-.39-.16,27.87,27.87,0,0,0-3.37-2.71h-10a.56.56,0,0,1-.41-.18.55.55,0,0,1-.14-.43,3.5,3.5,0,0,1,1.31-2.29,5,5,0,0,1,4-.68,15.41,15.41,0,0,1,5.59,2.47h2.25a15.45,15.45,0,0,0-13-4.43c-1.23.22-3.37.9-3.88,2.89a3.21,3.21,0,0,0,.38,2.77c1.34,1.92,4.75,2.3,4.78,2.3a.56.56,0,0,1,.36.94s-3.45,3.65-8.49.18c-2.46-1.69-3.37-4.12-4.24-6.46-1.08-2.88-2.1-5.61-6-6.94a6.68,6.68,0,0,0-5.88,1.34,7.45,7.45,0,0,0-2.93,6.64,6.3,6.3,0,0,0,4.89,5.76,4.6,4.6,0,0,0,5.2-1.85,3,3,0,0,0-.14-3.69,3.18,3.18,0,0,0-3.4-1,2,2,0,0,0-1.44,2c0,.37.24.65.47.69.74.11,1-.9,1.05-.94a.56.56,0,0,1,1.08.31,2.19,2.19,0,0,1-2.3,1.74,1.77,1.77,0,0,1-1.42-1.66,3.06,3.06,0,0,1,2.13-3.13,4.28,4.28,0,0,1,4.68,1.35,4.12,4.12,0,0,1,.25,5A5.44,5.44,0,0,1,1177.61,284.09Zm20.7-6.28h7.47a11.93,11.93,0,0,0-3.62-1.36,4,4,0,0,0-3.16.47A2.34,2.34,0,0,0,1198.31,277.82Z" transform="translate(-1056.4 -149.36)"/><path class="cls-2" d="M1186.55,281.9h-4.65a.56.56,0,0,1,0-1.12h3.47a9,9,0,0,1-.74-1.81,12.34,12.34,0,0,0-3-5.18,3.51,3.51,0,0,0-2.71-1.27c-2.39,0-4.58,2.57-4.6,2.59a.56.56,0,1,1-.85-.73c.1-.12,2.54-2.92,5.42-3a4.61,4.61,0,0,1,3.55,1.63,13.34,13.34,0,0,1,3.24,5.59,4.71,4.71,0,0,0,1.22,2.3.56.56,0,0,1-.37,1Z" transform="translate(-1056.4 -149.36)"/><path class="cls-2" d="M1177,278.94h-16.66a.56.56,0,0,1-.5-.82,61.32,61.32,0,0,1,6.89-10.06,9.32,9.32,0,0,1-4.41-5.14,4.17,4.17,0,0,1,1.14-4.33c2-1.84,6.78-.73,12,1.33a29.2,29.2,0,0,1,5.63-3.1.56.56,0,0,1,.62.14l11.11,11.88a.56.56,0,0,1-.7.86,134.59,134.59,0,0,0-16.51-8.49,44.53,44.53,0,0,0-7,6.49,7.52,7.52,0,0,0,1,.3,5.16,5.16,0,0,0,5.31-1.72.56.56,0,0,1,.86.72,6.27,6.27,0,0,1-6.41,2.1,8.94,8.94,0,0,1-1.57-.5,64.54,64.54,0,0,0-6.5,9.23H1177a.56.56,0,0,1,0,1.12Zm-10.47-20.22a3.29,3.29,0,0,0-2.3.68,3.07,3.07,0,0,0-.83,3.22,8.19,8.19,0,0,0,4.07,4.58,46.2,46.2,0,0,1,6.88-6.49A24.31,24.31,0,0,0,1166.5,258.71Zm10.16,1.71a125.13,125.13,0,0,1,12.66,6.36L1181.1,258A27.47,27.47,0,0,0,1176.66,260.43Z" transform="translate(-1056.4 -149.36)"/><path class="cls-2" d="M1172.61,281.9h-15.27a.56.56,0,1,1,0-1.12h15.27a.56.56,0,1,1,0,1.12Z" transform="translate(-1056.4 -149.36)"/><path class="cls-2" d="M1156.92,281.9h-.12a.56.56,0,0,1-.43-.67c.18-.8,4.39-19.28,16.54-27.11l-5.8-4.28a44.5,44.5,0,0,0-7.79,9.32.56.56,0,0,1-.6.25.56.56,0,0,1-.43-.49l-1.61-17a.56.56,0,0,1,.89-.5l9.52,7c2.16-1.68,4.53-2.84,6.86-2.72,4,.21,5.27,2.41,5.66,3.71a6.78,6.78,0,0,1-2,6.85.56.56,0,0,1-.67-.9,5.73,5.73,0,0,0,1.64-5.63c-.54-1.78-2.15-2.78-4.65-2.91a9.43,9.43,0,0,0-5.87,2.29l6.23,4.59a.56.56,0,0,1,0,.93c-12.27,7.3-16.69,26.63-16.73,26.83A.56.56,0,0,1,1156.92,281.9Zm1-38.85,1.34,14.16a42.38,42.38,0,0,1,6.94-8.06Z" transform="translate(-1056.4 -149.36)"/><path class="cls-2" d="M1136.78,284.09a5.43,5.43,0,0,1-4.78-2.56,4.12,4.12,0,0,1,.25-5,4.28,4.28,0,0,1,4.67-1.35,3.06,3.06,0,0,1,2.13,3.14,1.77,1.77,0,0,1-1.41,1.66,2.19,2.19,0,0,1-2.3-1.74.56.56,0,0,1,1.08-.31h0s.32,1,1.05.94c.24,0,.43-.31.47-.69a2,2,0,0,0-1.44-2,3.18,3.18,0,0,0-3.4,1A3,3,0,0,0,1133,281a4.61,4.61,0,0,0,5.21,1.85A6.29,6.29,0,0,0,1143,277a7.45,7.45,0,0,0-2.93-6.64,6.68,6.68,0,0,0-5.87-1.34c-3.86,1.33-4.88,4.06-6,6.94-.88,2.34-1.79,4.76-4.25,6.46-5,3.47-8.45-.14-8.49-.18a.56.56,0,0,1,.36-.94s3.45-.38,4.79-2.3a3.21,3.21,0,0,0,.38-2.77c-.51-2-2.65-2.67-3.88-2.89a15.47,15.47,0,0,0-13,4.43h2.25a15.4,15.4,0,0,1,5.59-2.47,5,5,0,0,1,4,.68,3.52,3.52,0,0,1,1.31,2.29.56.56,0,0,1-.56.61h-10a27.88,27.88,0,0,0-3.37,2.71.56.56,0,0,1-.39.16h-16.76a.56.56,0,1,1,0-1.12h16.54c.32-.3,1.06-1,2.07-1.75H1103a.56.56,0,0,1-.46-.88c3.26-4.64,10.23-6.61,14.81-5.77,2.58.47,4.27,1.79,4.76,3.72a4.31,4.31,0,0,1-.55,3.69,7.42,7.42,0,0,1-4.3,2.54c1.14.65,3.28,1.25,6.1-.69,2.17-1.49,3-3.65,3.83-5.93,1.13-3,2.29-6.1,6.65-7.61a7.73,7.73,0,0,1,6.92,1.51,8.65,8.65,0,0,1,3.37,7.61,7.4,7.4,0,0,1-5.74,6.77A7.08,7.08,0,0,1,1136.78,284.09Zm-28.17-6.28h7.47a2.3,2.3,0,0,0-.71-.91,4,4,0,0,0-3.15-.46A12,12,0,0,0,1108.61,277.82Z" transform="translate(-1056.4 -149.36)"/><path class="cls-2" d="M1132.48,281.9h-4.65a.56.56,0,0,1-.37-1,4.73,4.73,0,0,0,1.22-2.3,13.33,13.33,0,0,1,3.24-5.59,4.59,4.59,0,0,1,3.55-1.63c2.89.06,5.33,2.86,5.43,3a.56.56,0,0,1-.85.73s-2.22-2.55-4.6-2.59a3.44,3.44,0,0,0-2.7,1.27,12.32,12.32,0,0,0-3,5.18,9,9,0,0,1-.74,1.81h3.47a.56.56,0,0,1,0,1.12Z" transform="translate(-1056.4 -149.36)"/><path class="cls-2" d="M1154.08,278.94h-16.67a.56.56,0,0,1,0-1.12h15.71a64.43,64.43,0,0,0-6.5-9.23,8.8,8.8,0,0,1-1.56.5,6.27,6.27,0,0,1-6.41-2.1.56.56,0,0,1,.86-.72,5.16,5.16,0,0,0,5.31,1.72,7.68,7.68,0,0,0,1-.3,44.45,44.45,0,0,0-7-6.49,134.53,134.53,0,0,0-16.51,8.5.56.56,0,0,1-.7-.86l11.11-11.88a.56.56,0,0,1,.62-.14,29.17,29.17,0,0,1,5.63,3.1c5.19-2.06,10-3.17,12-1.33a4.17,4.17,0,0,1,1.14,4.33,9.32,9.32,0,0,1-4.41,5.14,61.54,61.54,0,0,1,6.89,10.06.56.56,0,0,1-.5.82Zm-14-18.24a46.28,46.28,0,0,1,6.88,6.49,8.19,8.19,0,0,0,4.07-4.58,3.07,3.07,0,0,0-.83-3.22C1148.71,258,1144.7,258.9,1140.07,260.7Zm-6.78-2.7-8.21,8.79a125,125,0,0,1,12.65-6.36A27.43,27.43,0,0,0,1133.29,258Z" transform="translate(-1056.4 -149.36)"/><path class="cls-2" d="M1157,281.9h-15.27a.56.56,0,1,1,0-1.12H1157a.56.56,0,1,1,0,1.12Z" transform="translate(-1056.4 -149.36)"/><path class="cls-2" d="M1157.47,281.9a.56.56,0,0,1-.55-.44c0-.19-4.45-19.53-16.73-26.83a.56.56,0,0,1,0-.93l6.24-4.58a9.37,9.37,0,0,0-5.88-2.3c-2.5.13-4.11,1.14-4.65,2.91a5.73,5.73,0,0,0,1.64,5.63.56.56,0,0,1-.67.9,6.78,6.78,0,0,1-2-6.85c.39-1.29,1.65-3.5,5.66-3.71,2.33-.12,4.71,1,6.88,2.73l9.57-7a.56.56,0,0,1,.89.51l-1.68,17a.56.56,0,0,1-1,.24,44.56,44.56,0,0,0-7.78-9.31l-5.81,4.27c12.15,7.83,16.36,26.31,16.54,27.11a.56.56,0,0,1-.43.67Zm-9.25-32.74a42.46,42.46,0,0,1,6.93,8.05l1.4-14.17Z" transform="translate(-1056.4 -149.36)"/><path class="cls-2" d="M1157.35,300.48a.56.56,0,0,1-.4-.16l-9.25-9.23a.56.56,0,0,1,0-.79l9.25-9.23a.56.56,0,0,1,.79,0l9.25,9.23a.56.56,0,0,1,0,.79l-9.25,9.23A.56.56,0,0,1,1157.35,300.48Zm-8.46-9.79,8.46,8.44,8.46-8.44-8.46-8.44Z" transform="translate(-1056.4 -149.36)"/><path class="cls-2" d="M1080.4,264.44a.59.59,0,0,1-.59-.59V198.76a.59.59,0,0,1,.5-.58c.7-.1,17.26-2.76,19.43-22.68a.59.59,0,0,1,.58-.52h57.51a.59.59,0,0,1,0,1.17h-57c-2.26,18.42-16.94,22.47-19.86,23.1v64.6A.59.59,0,0,1,1080.4,264.44Z" transform="translate(-1056.4 -149.36)"/><path class="cls-2" d="M1214.07,406.67h-57.51a.59.59,0,0,1,0-1.17h57c2.27-18.42,16.94-22.47,19.86-23.1v-64.6a.59.59,0,0,1,1.17,0v65.09a.59.59,0,0,1-.5.58c-.7.1-17.26,2.76-19.43,22.68A.59.59,0,0,1,1214.07,406.67Z" transform="translate(-1056.4 -149.36)"/></svg>